{"glyphs":{"0":{"ha":779,"x_min":57,"x_max":722,"o":"m 389 103 q 222 231 267 103 q 202 368 202 289 q 317 614 202 563 q 392 629 351 628 q 560 486 521 631 q 575 365 575 431 q 476 127 575 189 q 389 103 437 103 m 395 750 q 113 597 201 750 q 57 365 57 500 q 199 35 57 132 q 387 -18 277 -18 q 659 126 567 -18 q 722 369 722 227 q 566 709 722 620 q 395 750 492 750 z "},"1":{"ha":553,"x_min":39,"x_max":502,"o":"m 83 524 l 243 589 l 243 110 l 99 110 l 99 0 l 502 0 l 502 110 l 387 110 l 387 732 l 255 732 l 39 637 l 83 524 z "},"2":{"ha":604,"x_min":31,"x_max":543,"o":"m 543 0 l 543 121 l 252 121 l 326 205 q 370 255 339 221 q 505 435 476 372 q 526 524 526 481 q 419 712 526 648 q 277 750 355 750 q 57 650 141 750 q 31 613 42 632 l 134 551 q 264 627 184 623 q 368 570 336 627 q 381 513 381 544 q 298 357 381 450 q 222 274 288 345 l 41 80 l 41 0 l 543 0 z "},"3":{"ha":610,"x_min":11,"x_max":563,"o":"m 266 -201 q 496 -104 412 -201 q 563 83 563 -28 q 467 271 563 203 q 387 308 430 296 q 521 452 488 347 q 530 519 530 484 q 419 713 530 650 q 277 750 355 750 q 65 652 145 750 q 37 612 49 633 l 140 549 q 267 629 189 628 q 370 568 336 629 q 387 498 387 537 q 307 366 387 403 q 222 350 270 350 l 171 350 l 171 237 l 245 237 q 401 151 359 237 q 416 80 416 117 q 330 -61 416 -26 q 260 -75 297 -75 q 88 -9 167 -73 l 11 -109 q 266 -201 126 -201 z "},"4":{"ha":681,"x_min":24,"x_max":663,"o":"m 548 -183 l 548 23 l 663 23 l 663 144 l 548 144 l 548 732 l 415 732 l 24 126 l 43 23 l 404 23 l 404 -183 l 548 -183 m 404 144 l 160 144 l 404 521 l 404 144 z "},"5":{"ha":625,"x_min":42,"x_max":583,"o":"m 274 -201 q 537 -60 454 -201 q 583 117 583 19 q 490 334 583 251 q 289 403 411 401 q 241 400 269 403 l 241 612 l 529 613 l 529 734 l 99 732 l 99 275 q 220 292 159 292 q 414 193 363 292 q 431 113 431 155 q 346 -53 431 -5 q 258 -75 307 -75 q 104 -26 180 -73 l 42 -130 q 274 -201 157 -201 z "},"6":{"ha":694,"x_min":54,"x_max":642,"o":"m 642 304 q 534 545 642 461 q 384 600 465 600 q 199 502 271 598 q 389 814 221 808 q 530 742 471 812 l 624 815 q 422 932 547 918 q 391 933 406 933 q 110 730 198 933 q 54 422 54 600 q 218 14 54 103 q 349 -18 277 -18 q 590 115 509 -18 q 642 304 642 198 m 208 293 q 293 469 208 427 q 353 483 321 483 q 476 396 439 483 q 495 290 495 350 q 412 118 495 163 q 351 103 384 103 q 231 183 270 103 q 208 293 208 231 z "},"7":{"ha":574,"x_min":19,"x_max":557,"o":"m 557 637 l 557 734 l 19 734 l 19 597 l 392 597 q 111 -182 195 141 l 262 -184 q 557 637 357 186 z "},"8":{"ha":694,"x_min":41,"x_max":652,"o":"m 652 247 q 549 453 652 381 q 487 486 521 473 q 616 652 595 537 q 620 694 620 673 q 522 886 620 819 q 354 933 452 933 q 121 829 198 933 q 76 688 76 766 q 176 498 76 568 q 197 486 187 491 q 47 307 77 429 q 41 243 41 275 q 145 38 41 111 q 343 -18 225 -18 q 602 95 518 -18 q 652 247 652 163 m 183 260 q 258 403 183 359 q 346 425 297 425 q 491 338 450 425 q 507 256 507 300 q 434 123 507 164 q 349 103 397 103 q 198 190 237 103 q 183 260 183 222 m 217 677 q 292 802 217 770 q 353 812 320 812 q 476 726 452 812 q 483 678 483 704 q 415 548 483 585 q 350 533 385 533 q 231 610 263 533 q 217 677 217 642 z "},"9":{"ha":694,"x_min":52,"x_max":639,"o":"m 52 425 q 156 186 52 270 q 304 133 222 133 q 487 228 415 133 q 491 233 490 231 q 304 -80 479 -79 q 159 -11 220 -80 q 152 -3 155 -7 l 65 -72 q 263 -197 138 -178 q 307 -201 285 -201 q 586 4 499 -201 q 639 308 639 132 q 442 734 639 663 q 343 750 397 750 q 99 613 179 750 q 52 425 52 530 m 342 629 q 467 543 430 629 q 484 441 484 499 q 395 260 484 300 q 339 250 368 250 q 214 342 248 250 q 198 441 198 385 q 289 620 198 582 q 342 629 315 629 z "},"A":{"ha":738,"x_min":1,"x_max":736,"o":"m 146 0 l 206 202 l 529 202 l 587 0 l 736 0 l 461 916 l 282 916 l 1 0 l 146 0 m 312 564 q 343 688 320 593 q 369 788 361 758 q 423 571 416 597 l 498 312 l 237 312 l 312 564 z "},"Æ":{"ha":1120,"x_min":1,"x_max":1059,"o":"m 152 0 l 263 212 l 579 212 l 579 0 l 1059 0 l 1059 121 l 723 121 l 723 414 l 1008 414 l 1008 533 l 723 533 l 723 795 l 1047 795 l 1047 916 l 492 916 l 1 0 l 152 0 m 483 633 q 579 825 517 699 l 579 321 l 320 321 l 483 633 z "},"Á":{"ha":738,"x_min":1,"x_max":736,"o":"m 146 0 l 206 202 l 529 202 l 587 0 l 736 0 l 461 916 l 282 916 l 1 0 l 146 0 m 312 564 q 343 688 320 593 q 369 788 361 758 q 423 571 416 597 l 498 312 l 237 312 l 312 564 m 582 1123 l 510 1227 l 273 1057 l 330 971 l 582 1123 z "},"Ă":{"ha":738,"x_min":1,"x_max":736,"o":"m 146 0 l 206 202 l 529 202 l 587 0 l 736 0 l 461 916 l 282 916 l 1 0 l 146 0 m 312 564 q 343 688 320 593 q 369 788 361 758 q 423 571 416 597 l 498 312 l 237 312 l 312 564 m 186 1181 q 282 1012 186 1063 q 377 989 326 989 q 532 1062 475 989 q 570 1183 570 1112 l 476 1187 q 411 1100 471 1120 q 380 1095 396 1095 q 293 1147 320 1095 q 281 1191 283 1168 l 186 1181 z "},"Â":{"ha":738,"x_min":1,"x_max":736,"o":"m 146 0 l 206 202 l 529 202 l 587 0 l 736 0 l 461 916 l 282 916 l 1 0 l 146 0 m 312 564 q 343 688 320 593 q 369 788 361 758 q 423 571 416 597 l 498 312 l 237 312 l 312 564 m 384 1207 l 175 1046 l 233 974 l 380 1076 l 528 971 l 590 1047 l 384 1207 z "},"Ä":{"ha":738,"x_min":1,"x_max":736,"o":"m 146 0 l 206 202 l 529 202 l 587 0 l 736 0 l 461 916 l 282 916 l 1 0 l 146 0 m 312 564 q 343 688 320 593 q 369 788 361 758 q 423 571 416 597 l 498 312 l 237 312 l 312 564 m 323 1086 q 271 1166 323 1149 q 245 1171 258 1171 q 174 1122 191 1171 q 167 1086 167 1105 q 218 1004 167 1021 q 244 1000 232 1000 q 316 1048 297 1000 q 323 1086 323 1066 m 587 1086 q 534 1166 587 1150 q 509 1171 521 1171 q 438 1122 457 1171 q 433 1086 433 1105 q 484 1004 433 1021 q 509 1000 496 1000 q 581 1048 562 1000 q 587 1086 587 1066 z "},"À":{"ha":738,"x_min":1,"x_max":736,"o":"m 146 0 l 206 202 l 529 202 l 587 0 l 736 0 l 461 916 l 282 916 l 1 0 l 146 0 m 312 564 q 343 688 320 593 q 369 788 361 758 q 423 571 416 597 l 498 312 l 237 312 l 312 564 m 213 1123 l 285 1227 l 522 1057 l 465 971 l 213 1123 z "},"Ā":{"ha":738,"x_min":1,"x_max":736,"o":"m 146 0 l 206 202 l 529 202 l 587 0 l 736 0 l 461 916 l 282 916 l 1 0 l 146 0 m 312 564 q 343 688 320 593 q 369 788 361 758 q 423 571 416 597 l 498 312 l 237 312 l 312 564 m 194 1141 l 194 1031 l 560 1031 l 560 1141 l 194 1141 z "},"Ą":{"ha":738,"x_min":1,"x_max":755,"o":"m 146 0 l 206 202 l 529 202 l 587 0 l 594 0 q 499 -152 500 -72 q 597 -275 499 -247 q 661 -283 627 -283 q 755 -270 704 -283 l 749 -175 q 700 -182 726 -182 q 621 -134 633 -182 q 620 -119 620 -126 q 738 0 623 -47 l 736 0 l 461 916 l 282 916 l 1 0 l 146 0 m 312 564 q 343 688 320 593 q 369 788 361 758 q 423 571 416 597 l 498 312 l 237 312 l 312 564 z "},"Å":{"ha":738,"x_min":1,"x_max":736,"o":"m 146 0 l 206 202 l 529 202 l 587 0 l 736 0 l 463 910 q 529 1043 528 955 q 448 1180 529 1142 q 380 1195 415 1195 q 252 1131 297 1195 q 227 1040 227 1092 q 282 916 228 958 l 1 0 l 146 0 m 312 564 q 343 688 320 593 q 369 788 361 758 q 423 571 416 597 l 498 312 l 237 312 l 312 564 m 313 1040 q 358 1111 313 1096 q 377 1114 368 1114 q 437 1072 422 1114 q 442 1040 442 1057 q 396 970 442 985 q 377 967 387 967 q 319 1009 334 967 q 313 1040 313 1024 z "},"Ã":{"ha":738,"x_min":1,"x_max":736,"o":"m 146 0 l 206 202 l 529 202 l 587 0 l 736 0 l 461 916 l 282 916 l 1 0 l 146 0 m 312 564 q 343 688 320 593 q 369 788 361 758 q 423 571 416 597 l 498 312 l 237 312 l 312 564 m 463 1112 q 373 1142 435 1112 q 293 1165 326 1164 q 146 1089 224 1164 l 206 1021 q 296 1059 255 1059 q 391 1029 324 1059 q 475 1006 441 1006 q 612 1086 549 1008 l 552 1152 q 463 1112 514 1114 z "},"B":{"ha":715,"x_min":91,"x_max":667,"o":"m 667 267 q 578 442 667 377 q 480 484 534 473 q 618 604 576 511 q 637 693 637 647 q 488 897 637 844 q 336 920 422 920 q 91 916 201 920 l 91 0 q 275 -5 179 -5 q 659 190 610 -5 q 667 267 667 227 m 331 800 q 488 704 468 800 q 492 671 492 689 q 407 541 492 574 q 336 529 376 529 l 235 529 l 235 798 q 331 800 300 800 m 327 114 q 235 119 279 114 l 235 416 l 350 416 q 517 308 492 416 q 521 269 521 289 q 354 115 521 126 q 327 114 340 114 z "},"C":{"ha":723,"x_min":45,"x_max":713,"o":"m 431 113 q 225 271 281 113 q 198 456 198 350 q 319 783 198 709 q 408 807 359 807 q 574 673 525 804 l 713 708 q 486 926 658 891 q 411 933 449 933 q 138 795 240 933 q 45 454 45 665 q 187 65 45 193 q 411 -18 281 -18 q 694 76 549 -16 l 640 180 q 431 113 524 113 z "},"Ć":{"ha":723,"x_min":45,"x_max":713,"o":"m 431 113 q 225 271 281 113 q 198 456 198 350 q 319 783 198 709 q 408 807 359 807 q 574 673 525 804 l 713 708 q 486 926 658 891 q 411 933 449 933 q 138 795 240 933 q 45 454 45 665 q 187 65 45 193 q 411 -18 281 -18 q 694 76 549 -16 l 640 180 q 431 113 524 113 m 613 1123 l 541 1227 l 304 1057 l 361 971 l 613 1123 z "},"Č":{"ha":723,"x_min":45,"x_max":713,"o":"m 431 113 q 225 271 281 113 q 198 456 198 350 q 319 783 198 709 q 408 807 359 807 q 574 673 525 804 l 713 708 q 486 926 658 891 q 411 933 449 933 q 138 795 240 933 q 45 454 45 665 q 187 65 45 193 q 411 -18 281 -18 q 694 76 549 -16 l 640 180 q 431 113 524 113 m 407 970 l 616 1137 l 559 1207 l 411 1099 l 260 1210 l 199 1135 l 407 970 z "},"Ç":{"ha":723,"x_min":45,"x_max":713,"o":"m 368 -286 q 537 -208 490 -286 q 556 -142 556 -176 q 479 -20 556 -65 q 465 -14 471 -16 q 694 76 576 1 l 640 180 q 431 113 524 113 q 225 271 281 113 q 198 456 198 350 q 319 783 198 709 q 408 807 359 807 q 574 673 525 804 l 713 708 q 486 926 658 891 q 411 933 449 933 q 138 795 240 933 q 45 454 45 665 q 186 65 45 193 q 368 -15 263 -3 q 449 -111 448 -57 q 380 -180 449 -170 q 350 -183 366 -183 q 304 -179 327 -183 l 301 -278 q 368 -286 336 -286 z "},"D":{"ha":780,"x_min":91,"x_max":736,"o":"m 91 916 l 91 0 q 338 -4 323 -4 q 692 210 597 -8 q 736 456 736 315 q 548 875 736 770 q 342 920 461 921 q 186 917 293 918 l 184 917 l 183 917 l 182 917 l 180 917 l 179 917 l 178 917 l 176 917 l 175 917 l 174 917 l 172 917 l 171 917 l 170 917 l 168 917 l 167 917 l 165 917 l 164 917 l 163 917 l 161 917 l 160 917 l 159 917 l 157 917 l 156 917 l 155 917 l 153 917 l 152 917 l 151 917 l 149 917 l 148 917 l 146 917 l 145 917 l 144 917 l 142 917 l 141 917 l 140 917 l 138 917 l 137 917 l 136 917 l 134 917 l 133 916 l 132 916 l 130 916 l 129 916 l 127 916 l 126 916 l 125 916 l 123 916 l 122 916 l 121 916 l 119 916 l 118 916 l 117 916 l 115 916 l 114 916 l 113 916 l 111 916 l 110 916 l 109 916 l 107 916 l 106 916 l 104 916 l 103 916 l 102 916 l 100 916 l 99 916 l 98 916 l 96 916 l 95 916 l 94 916 l 91 916 m 339 119 q 235 121 271 119 l 235 795 q 342 796 273 796 q 574 578 530 796 q 585 454 585 521 q 339 119 582 121 z "},"Ď":{"ha":780,"x_min":91,"x_max":736,"o":"m 91 916 l 91 0 q 338 -4 323 -4 q 692 210 597 -8 q 736 456 736 315 q 548 875 736 770 q 342 920 461 921 q 186 917 293 918 l 184 917 l 183 917 l 182 917 l 180 917 l 179 917 l 178 917 l 176 917 l 175 917 l 174 917 l 172 917 l 171 917 l 170 917 l 168 917 l 167 917 l 165 917 l 164 917 l 163 917 l 161 917 l 160 917 l 159 917 l 157 917 l 156 917 l 155 917 l 153 917 l 152 917 l 151 917 l 149 917 l 148 917 l 146 917 l 145 917 l 144 917 l 142 917 l 141 917 l 140 917 l 138 917 l 137 917 l 136 917 l 134 917 l 133 916 l 132 916 l 130 916 l 129 916 l 127 916 l 126 916 l 125 916 l 123 916 l 122 916 l 121 916 l 119 916 l 118 916 l 117 916 l 115 916 l 114 916 l 113 916 l 111 916 l 110 916 l 109 916 l 107 916 l 106 916 l 104 916 l 103 916 l 102 916 l 100 916 l 99 916 l 98 916 l 96 916 l 95 916 l 94 916 l 91 916 m 339 119 q 235 121 271 119 l 235 795 q 342 796 273 796 q 574 578 530 796 q 585 454 585 521 q 339 119 582 121 m 361 970 l 570 1137 l 513 1207 l 365 1099 l 214 1210 l 153 1135 l 361 970 z "},"Đ":{"ha":791,"x_min":5,"x_max":747,"o":"m 5 528 l 5 418 l 102 418 l 102 0 q 349 -4 334 -4 q 703 210 608 -8 q 747 456 747 315 q 559 875 747 770 q 353 920 472 921 q 197 917 304 918 l 195 917 l 194 917 l 193 917 l 191 917 l 190 917 l 189 917 l 187 917 l 186 917 l 184 917 l 183 917 l 182 917 l 180 917 l 179 917 l 178 917 l 176 917 l 175 917 l 174 917 l 172 917 l 171 917 l 170 917 l 168 917 l 167 917 l 165 917 l 164 917 l 163 917 l 161 917 l 160 917 l 159 917 l 157 917 l 156 917 l 155 917 l 153 917 l 152 917 l 151 917 l 149 917 l 148 917 l 146 917 l 145 917 l 144 916 l 142 916 l 141 916 l 140 916 l 138 916 l 137 916 l 136 916 l 134 916 l 133 916 l 132 916 l 130 916 l 129 916 l 127 916 l 126 916 l 125 916 l 123 916 l 122 916 l 121 916 l 119 916 l 118 916 l 117 916 l 115 916 l 114 916 l 113 916 l 111 916 l 110 916 l 109 916 l 107 916 l 106 916 l 104 916 l 102 916 l 102 528 l 5 528 m 350 119 q 245 121 282 119 l 245 418 l 414 418 l 414 528 l 245 528 l 245 795 q 353 796 283 796 q 585 578 541 796 q 595 454 595 521 q 350 119 593 121 z "},"E":{"ha":631,"x_min":91,"x_max":571,"o":"m 571 121 l 235 121 l 235 414 l 519 414 l 519 533 l 235 533 l 235 795 l 559 795 l 559 916 l 91 916 l 91 0 l 571 0 l 571 121 z "},"É":{"ha":631,"x_min":91,"x_max":571,"o":"m 571 121 l 235 121 l 235 414 l 519 414 l 519 533 l 235 533 l 235 795 l 559 795 l 559 916 l 91 916 l 91 0 l 571 0 l 571 121 m 525 1123 l 453 1227 l 216 1057 l 273 971 l 525 1123 z "},"Ě":{"ha":631,"x_min":91,"x_max":571,"o":"m 571 121 l 235 121 l 235 414 l 519 414 l 519 533 l 235 533 l 235 795 l 559 795 l 559 916 l 91 916 l 91 0 l 571 0 l 571 121 m 319 970 l 528 1137 l 471 1207 l 323 1099 l 172 1210 l 111 1135 l 319 970 z "},"Ê":{"ha":631,"x_min":91,"x_max":571,"o":"m 571 121 l 235 121 l 235 414 l 519 414 l 519 533 l 235 533 l 235 795 l 559 795 l 559 916 l 91 916 l 91 0 l 571 0 l 571 121 m 327 1207 l 118 1046 l 176 974 l 323 1076 l 471 971 l 533 1047 l 327 1207 z "},"Ë":{"ha":631,"x_min":91,"x_max":571,"o":"m 571 121 l 235 121 l 235 414 l 519 414 l 519 533 l 235 533 l 235 795 l 559 795 l 559 916 l 91 916 l 91 0 l 571 0 l 571 121 m 266 1086 q 214 1166 266 1149 q 189 1171 201 1171 q 117 1122 134 1171 q 110 1086 110 1105 q 161 1004 110 1021 q 187 1000 175 1000 q 259 1048 240 1000 q 266 1086 266 1066 m 530 1086 q 477 1166 530 1150 q 452 1171 464 1171 q 381 1122 400 1171 q 376 1086 376 1105 q 427 1004 376 1021 q 452 1000 439 1000 q 524 1048 505 1000 q 530 1086 530 1066 z "},"Ė":{"ha":631,"x_min":91,"x_max":571,"o":"m 571 121 l 235 121 l 235 414 l 519 414 l 519 533 l 235 533 l 235 795 l 559 795 l 559 916 l 91 916 l 91 0 l 571 0 l 571 121 m 332 1005 q 396 1065 384 1016 q 397 1104 400 1084 q 338 1171 389 1162 q 307 1171 321 1173 q 244 1111 255 1160 q 243 1074 240 1093 q 302 1005 251 1015 q 332 1005 317 1002 z "},"È":{"ha":631,"x_min":91,"x_max":571,"o":"m 571 121 l 235 121 l 235 414 l 519 414 l 519 533 l 235 533 l 235 795 l 559 795 l 559 916 l 91 916 l 91 0 l 571 0 l 571 121 m 156 1123 l 228 1227 l 465 1057 l 408 971 l 156 1123 z "},"Ē":{"ha":631,"x_min":91,"x_max":571,"o":"m 571 121 l 235 121 l 235 414 l 519 414 l 519 533 l 235 533 l 235 795 l 559 795 l 559 916 l 91 916 l 91 0 l 571 0 l 571 121 m 137 1141 l 137 1031 l 503 1031 l 503 1141 l 137 1141 z "},"Ę":{"ha":631,"x_min":91,"x_max":589,"o":"m 589 -270 l 582 -175 q 533 -182 559 -182 q 454 -134 467 -182 q 453 -119 453 -126 q 571 0 456 -47 l 571 121 l 235 121 l 235 414 l 519 414 l 519 533 l 235 533 l 235 795 l 559 795 l 559 916 l 91 916 l 91 0 l 427 0 q 332 -152 334 -72 q 430 -275 332 -247 q 494 -283 460 -283 q 589 -270 537 -283 z "},"Ð":{"ha":791,"x_min":5,"x_max":747,"o":"m 5 528 l 5 418 l 102 418 l 102 0 q 349 -4 334 -4 q 703 210 608 -8 q 747 456 747 315 q 559 875 747 770 q 353 920 472 921 q 197 917 304 918 l 195 917 l 194 917 l 193 917 l 191 917 l 190 917 l 189 917 l 187 917 l 186 917 l 184 917 l 183 917 l 182 917 l 180 917 l 179 917 l 178 917 l 176 917 l 175 917 l 174 917 l 172 917 l 171 917 l 170 917 l 168 917 l 167 917 l 165 917 l 164 917 l 163 917 l 161 917 l 160 917 l 159 917 l 157 917 l 156 917 l 155 917 l 153 917 l 152 917 l 151 917 l 149 917 l 148 917 l 146 917 l 145 917 l 144 916 l 142 916 l 141 916 l 140 916 l 138 916 l 137 916 l 136 916 l 134 916 l 133 916 l 132 916 l 130 916 l 129 916 l 127 916 l 126 916 l 125 916 l 123 916 l 122 916 l 121 916 l 119 916 l 118 916 l 117 916 l 115 916 l 114 916 l 113 916 l 111 916 l 110 916 l 109 916 l 107 916 l 106 916 l 104 916 l 102 916 l 102 528 l 5 528 m 350 119 q 245 121 282 119 l 245 418 l 414 418 l 414 528 l 245 528 l 245 795 q 353 796 283 796 q 585 578 541 796 q 595 454 595 521 q 350 119 593 121 z "},"€":{"ha":769,"x_min":35,"x_max":731,"o":"m 728 62 l 667 167 q 486 114 574 114 q 289 297 336 114 q 285 312 286 305 l 556 312 l 575 412 l 273 412 q 271 457 271 429 q 273 492 271 481 l 602 492 l 621 593 l 282 593 q 434 800 317 773 q 472 804 453 804 q 623 716 560 804 q 628 708 625 711 l 731 792 q 525 929 661 907 q 475 933 499 933 q 198 766 296 933 q 134 593 153 690 l 35 593 l 35 492 l 122 492 q 121 453 121 477 q 122 412 121 426 l 35 412 l 35 312 l 134 312 q 309 26 174 107 q 465 -16 380 -16 q 728 62 601 -15 z "},"F":{"ha":593,"x_min":91,"x_max":557,"o":"m 557 916 l 91 916 l 91 0 l 235 0 l 235 407 l 518 407 l 518 526 l 235 526 l 235 795 l 557 795 l 557 916 z "},"G":{"ha":783,"x_min":45,"x_max":720,"o":"m 720 57 l 720 464 l 406 464 l 406 345 l 576 345 l 576 137 q 437 109 500 109 q 220 285 273 109 q 198 456 198 358 q 320 781 198 707 q 415 807 363 807 q 585 673 532 804 l 720 708 q 519 918 669 872 q 416 933 471 933 q 140 795 243 933 q 45 454 45 665 q 216 39 45 155 q 420 -18 302 -18 q 720 57 570 -16 z "},"Ğ":{"ha":783,"x_min":45,"x_max":720,"o":"m 720 57 l 720 464 l 406 464 l 406 345 l 576 345 l 576 137 q 437 109 500 109 q 220 285 273 109 q 198 456 198 358 q 320 781 198 707 q 415 807 363 807 q 585 673 532 804 l 720 708 q 519 918 669 872 q 416 933 471 933 q 140 795 243 933 q 45 454 45 665 q 216 39 45 155 q 420 -18 302 -18 q 720 57 570 -16 m 221 1181 q 317 1012 221 1063 q 412 989 361 989 q 567 1062 510 989 q 605 1183 605 1112 l 511 1187 q 446 1100 506 1120 q 415 1095 431 1095 q 328 1147 355 1095 q 316 1191 319 1168 l 221 1181 z "},"H":{"ha":819,"x_min":91,"x_max":728,"o":"m 585 0 l 728 0 l 728 916 l 585 916 l 585 533 l 235 533 l 235 916 l 91 916 l 91 0 l 235 0 l 235 414 l 585 414 l 585 0 z "},"I":{"ha":330,"x_min":94,"x_max":237,"o":"m 94 916 l 94 0 l 237 0 l 237 916 l 94 916 z "},"Í":{"ha":330,"x_min":61,"x_max":370,"o":"m 94 916 l 94 0 l 237 0 l 237 916 l 94 916 m 370 1123 l 298 1227 l 61 1057 l 118 971 l 370 1123 z "},"Î":{"ha":326,"x_min":-23,"x_max":354,"o":"m 167 1207 l -23 1046 l 35 972 l 163 1074 l 292 971 l 354 1047 l 167 1207 m 94 916 l 94 0 l 237 0 l 237 916 l 94 916 z "},"Ï":{"ha":326,"x_min":-34,"x_max":359,"o":"m 121 1086 q 68 1166 121 1150 q 43 1171 56 1171 q -28 1122 -9 1171 q -34 1086 -34 1105 q 19 1004 -34 1020 q 43 1000 31 1000 q 114 1047 94 1000 q 121 1086 121 1066 m 359 1086 q 305 1166 359 1150 q 281 1171 294 1171 q 210 1124 229 1171 q 203 1086 203 1107 q 255 1004 203 1021 q 279 1000 267 1000 q 351 1047 331 1000 q 359 1086 359 1066 m 94 916 l 94 0 l 237 0 l 237 916 l 94 916 z "},"İ":{"ha":326,"x_min":83,"x_max":243,"o":"m 94 916 l 94 0 l 237 0 l 237 916 l 94 916 m 175 996 q 239 1055 227 1006 q 240 1095 243 1074 q 180 1161 232 1153 q 149 1161 164 1164 q 87 1101 98 1150 q 85 1065 83 1084 q 145 996 94 1005 q 175 996 160 993 z "},"Ì":{"ha":330,"x_min":0,"x_max":309,"o":"m 94 916 l 94 0 l 237 0 l 237 916 l 94 916 m 0 1123 l 72 1227 l 309 1057 l 252 971 l 0 1123 z "},"Ī":{"ha":326,"x_min":1,"x_max":324,"o":"m 1 1139 l 1 1029 l 324 1029 l 324 1139 l 1 1139 m 94 916 l 94 0 l 237 0 l 237 916 l 94 916 z "},"Į":{"ha":330,"x_min":-1,"x_max":255,"o":"m 255 -270 l 248 -175 q 199 -182 225 -182 q 121 -134 133 -182 q 119 -119 119 -126 q 237 0 122 -47 l 237 916 l 94 916 l 94 0 q -1 -152 0 -72 q 96 -275 -1 -247 q 160 -283 126 -283 q 255 -270 203 -283 z "},"J":{"ha":410,"x_min":-12,"x_max":332,"o":"m 134 -18 q 307 79 255 -18 q 332 194 332 127 l 332 916 l 189 916 l 189 213 q 111 104 184 107 q 19 130 69 106 l -12 19 q 134 -18 65 -18 z "},"K":{"ha":739,"x_min":91,"x_max":738,"o":"m 731 96 q 661 140 685 94 l 484 486 l 716 916 l 571 916 l 373 540 l 235 540 l 235 916 l 91 916 l 91 0 l 235 0 l 235 420 l 369 420 l 537 83 q 674 -18 585 -16 q 738 -8 699 -18 l 731 96 z "},"L":{"ha":555,"x_min":87,"x_max":541,"o":"m 541 0 l 541 121 l 231 121 l 231 916 l 87 916 l 87 0 l 541 0 z "},"Ĺ":{"ha":555,"x_min":64,"x_max":541,"o":"m 541 0 l 541 121 l 231 121 l 231 916 l 87 916 l 87 0 l 541 0 m 373 1123 l 301 1227 l 64 1057 l 121 971 l 373 1123 z "},"Ľ":{"ha":555,"x_min":87,"x_max":541,"o":"m 541 0 l 541 121 l 231 121 l 231 916 l 87 916 l 87 0 l 541 0 m 537 837 q 481 928 537 907 q 452 933 467 933 q 378 886 400 933 q 369 844 370 865 q 419 770 369 789 q 429 766 425 768 q 372 640 420 719 q 368 633 369 636 l 416 601 q 533 803 514 701 q 537 837 537 822 z "},"Ł":{"ha":566,"x_min":-35,"x_max":541,"o":"m 541 0 l 541 121 l 231 121 l 231 419 l 406 491 l 366 587 l 231 532 l 231 916 l 87 916 l 87 472 l -35 422 l 4 326 l 87 359 l 87 0 l 541 0 z "},"M":{"ha":993,"x_min":31,"x_max":959,"o":"m 164 0 l 220 538 q 229 620 222 564 q 239 709 236 681 q 281 543 271 578 l 422 30 l 555 34 l 704 537 q 750 715 709 557 q 764 540 760 581 l 817 0 l 959 0 l 852 916 l 692 916 l 529 342 q 496 203 522 315 q 487 252 494 220 q 469 336 475 312 l 312 916 l 146 916 l 31 0 l 164 0 z "},"N":{"ha":830,"x_min":91,"x_max":738,"o":"m 738 0 l 738 916 l 605 916 l 605 270 l 216 926 l 91 916 l 91 0 l 224 0 l 224 652 l 618 -12 l 738 0 z "},"Ń":{"ha":830,"x_min":91,"x_max":738,"o":"m 738 0 l 738 916 l 605 916 l 605 270 l 216 926 l 91 916 l 91 0 l 224 0 l 224 652 l 618 -12 l 738 0 m 613 1123 l 541 1227 l 304 1057 l 361 971 l 613 1123 z "},"Ň":{"ha":830,"x_min":91,"x_max":738,"o":"m 738 0 l 738 916 l 605 916 l 605 270 l 216 926 l 91 916 l 91 0 l 224 0 l 224 652 l 618 -12 l 738 0 m 407 970 l 616 1137 l 559 1207 l 411 1099 l 260 1210 l 199 1135 l 407 970 z "},"Ñ":{"ha":830,"x_min":91,"x_max":738,"o":"m 738 0 l 738 916 l 605 916 l 605 270 l 216 926 l 91 916 l 91 0 l 224 0 l 224 652 l 618 -12 l 738 0 m 492 1112 q 403 1142 465 1112 q 323 1165 355 1164 q 176 1089 254 1164 l 236 1021 q 326 1059 285 1059 q 420 1029 354 1059 q 505 1006 471 1006 q 642 1086 579 1008 l 582 1152 q 492 1112 544 1114 z "},"O":{"ha":829,"x_min":46,"x_max":783,"o":"m 783 456 q 637 859 783 735 q 418 933 548 933 q 115 755 216 933 q 46 454 46 631 q 191 57 46 178 q 414 -18 282 -18 q 720 167 623 -18 q 783 456 783 286 m 199 456 q 296 760 199 670 q 416 807 347 807 q 608 632 557 807 q 629 454 629 555 q 526 148 629 232 q 414 109 477 109 q 221 283 270 109 q 199 456 199 358 z "},"Œ":{"ha":1081,"x_min":46,"x_max":1020,"o":"m 444 -12 q 541 -5 475 -12 q 633 0 606 0 l 1020 0 l 1020 121 l 684 121 l 684 414 l 968 414 l 968 533 l 684 533 l 684 795 l 1008 795 l 1008 916 l 620 916 q 545 921 600 916 q 448 926 479 926 q 85 694 175 926 q 46 454 46 593 q 415 -12 46 5 q 444 -12 430 -12 m 445 114 q 199 456 201 117 q 444 800 201 799 q 540 789 496 800 l 540 123 q 445 114 492 114 z "},"Ó":{"ha":829,"x_min":46,"x_max":783,"o":"m 783 456 q 637 859 783 735 q 418 933 548 933 q 115 755 216 933 q 46 454 46 631 q 191 57 46 178 q 414 -18 282 -18 q 720 167 623 -18 q 783 456 783 286 m 199 456 q 296 760 199 670 q 416 807 347 807 q 608 632 557 807 q 629 454 629 555 q 526 148 629 232 q 414 109 477 109 q 221 283 270 109 q 199 456 199 358 m 623 1114 l 551 1218 l 313 1047 l 370 962 l 623 1114 z "},"Ô":{"ha":829,"x_min":46,"x_max":783,"o":"m 783 456 q 637 859 783 735 q 418 933 548 933 q 115 755 216 933 q 46 454 46 631 q 191 57 46 178 q 414 -18 282 -18 q 720 167 623 -18 q 783 456 783 286 m 199 456 q 296 760 199 670 q 416 807 347 807 q 608 632 557 807 q 629 454 629 555 q 526 148 629 232 q 414 109 477 109 q 221 283 270 109 q 199 456 199 358 m 425 1198 l 216 1036 l 274 964 l 420 1066 l 568 962 l 631 1038 l 425 1198 z "},"Ö":{"ha":829,"x_min":46,"x_max":783,"o":"m 783 456 q 637 859 783 735 q 418 933 548 933 q 115 755 216 933 q 46 454 46 631 q 191 57 46 178 q 414 -18 282 -18 q 720 167 623 -18 q 783 456 783 286 m 199 456 q 296 760 199 670 q 416 807 347 807 q 608 632 557 807 q 629 454 629 555 q 526 148 629 232 q 414 109 477 109 q 221 283 270 109 q 199 456 199 358 m 363 1077 q 312 1157 363 1139 q 286 1161 298 1161 q 214 1112 232 1161 q 208 1077 208 1096 q 259 994 208 1012 q 285 990 273 990 q 357 1039 338 990 q 363 1077 363 1057 m 628 1077 q 575 1157 628 1141 q 549 1161 562 1161 q 479 1112 498 1161 q 473 1077 473 1096 q 525 994 473 1012 q 549 990 537 990 q 621 1039 602 990 q 628 1077 628 1057 z "},"Ò":{"ha":829,"x_min":46,"x_max":783,"o":"m 783 456 q 637 859 783 735 q 418 933 548 933 q 115 755 216 933 q 46 454 46 631 q 191 57 46 178 q 414 -18 282 -18 q 720 167 623 -18 q 783 456 783 286 m 199 456 q 296 760 199 670 q 416 807 347 807 q 608 632 557 807 q 629 454 629 555 q 526 148 629 232 q 414 109 477 109 q 221 283 270 109 q 199 456 199 358 m 252 1114 l 324 1218 l 562 1047 l 505 962 l 252 1114 z "},"Ő":{"ha":829,"x_min":46,"x_max":783,"o":"m 783 456 q 637 859 783 735 q 418 933 548 933 q 115 755 216 933 q 46 454 46 631 q 191 57 46 178 q 414 -18 282 -18 q 720 167 623 -18 q 783 456 783 286 m 199 456 q 296 760 199 670 q 416 807 347 807 q 608 632 557 807 q 629 454 629 555 q 526 148 629 232 q 414 109 477 109 q 221 283 270 109 q 199 456 199 358 m 500 1127 l 423 1217 l 212 1034 l 271 962 l 500 1127 m 770 1127 l 694 1217 l 481 1034 l 543 962 l 770 1127 z "},"Ō":{"ha":829,"x_min":46,"x_max":783,"o":"m 783 456 q 637 859 783 735 q 418 933 548 933 q 115 755 216 933 q 46 454 46 631 q 191 57 46 178 q 414 -18 282 -18 q 720 167 623 -18 q 783 456 783 286 m 199 456 q 296 760 199 670 q 416 807 347 807 q 608 632 557 807 q 629 454 629 555 q 526 148 629 232 q 414 109 477 109 q 221 283 270 109 q 199 456 199 358 m 235 1131 l 235 1021 l 601 1021 l 601 1131 l 235 1131 z "},"Ø":{"ha":829,"x_min":46,"x_max":783,"o":"m 567 1029 l 526 918 q 418 933 475 933 q 115 755 216 933 q 46 454 46 631 q 189 60 46 182 q 210 42 199 50 l 165 -84 l 258 -111 l 297 -1 q 414 -18 351 -18 q 720 167 623 -18 q 783 456 783 286 q 637 859 783 735 q 614 876 625 868 l 659 1002 l 567 1029 m 199 456 q 296 760 199 670 q 416 807 347 807 q 483 795 453 807 l 263 189 q 199 456 199 281 m 414 109 q 342 122 377 109 l 562 731 q 629 454 629 636 q 526 148 629 232 q 414 109 477 109 z "},"Õ":{"ha":829,"x_min":46,"x_max":783,"o":"m 783 456 q 637 859 783 735 q 418 933 548 933 q 115 755 216 933 q 46 454 46 631 q 191 57 46 178 q 414 -18 282 -18 q 720 167 623 -18 q 783 456 783 286 m 199 456 q 296 760 199 670 q 416 807 347 807 q 608 632 557 807 q 629 454 629 555 q 526 148 629 232 q 414 109 477 109 q 221 283 270 109 q 199 456 199 358 m 502 1103 q 412 1133 475 1103 q 332 1156 365 1154 q 186 1080 263 1154 l 245 1012 q 335 1050 294 1050 q 430 1020 363 1050 q 514 997 480 997 q 651 1077 589 998 l 591 1142 q 502 1103 553 1104 z "},"P":{"ha":681,"x_min":96,"x_max":658,"o":"m 240 0 l 240 353 l 343 353 q 617 491 537 353 q 658 650 658 560 q 515 884 658 817 q 339 920 439 920 q 96 916 205 920 l 96 0 l 240 0 m 338 800 q 510 632 509 798 q 395 479 510 503 q 342 473 369 473 l 240 473 l 240 798 q 338 800 302 800 z "},"Q":{"ha":821,"x_min":46,"x_max":783,"o":"m 783 456 q 639 856 783 732 q 416 933 549 933 q 115 755 214 933 q 46 454 46 631 q 194 54 46 175 q 411 -18 282 -16 q 545 -184 419 -155 q 761 -164 637 -206 l 734 -49 q 553 -31 590 -98 q 544 5 545 -15 q 758 264 701 65 q 783 456 783 353 m 199 456 q 296 760 199 670 q 416 807 347 807 q 608 632 557 807 q 629 454 629 555 q 526 148 629 232 q 414 109 477 109 q 221 283 270 109 q 199 456 199 358 z "},"R":{"ha":716,"x_min":96,"x_max":694,"o":"m 240 0 l 240 365 l 339 365 l 357 365 l 492 83 q 631 -16 540 -15 q 694 -8 665 -16 l 688 96 l 673 96 q 620 133 637 99 l 491 392 q 655 591 627 448 q 662 658 662 624 q 448 910 662 867 q 336 920 397 920 q 96 916 205 920 l 96 0 l 240 0 m 338 800 q 507 700 483 800 q 514 642 514 674 q 415 495 514 528 q 346 486 384 486 l 240 486 l 240 798 q 338 800 302 800 z "},"Ŕ":{"ha":716,"x_min":96,"x_max":694,"o":"m 240 0 l 240 365 l 357 365 l 492 83 q 631 -16 540 -15 q 694 -8 665 -16 l 688 96 l 673 96 q 620 133 637 99 l 491 392 q 655 591 627 448 q 662 658 662 624 q 448 910 662 867 q 336 920 397 920 q 96 916 205 920 l 96 0 l 240 0 m 338 800 q 507 700 483 800 q 514 642 514 674 q 415 495 514 528 q 346 486 384 486 l 240 486 l 240 798 q 338 800 302 800 m 547 1123 l 475 1227 l 237 1057 l 294 971 l 547 1123 z "},"Ř":{"ha":716,"x_min":96,"x_max":694,"o":"m 240 0 l 240 365 l 357 365 l 492 83 q 631 -16 540 -15 q 694 -8 665 -16 l 688 96 l 673 96 q 620 133 637 99 l 491 392 q 655 591 627 448 q 662 658 662 624 q 448 910 662 867 q 336 920 397 920 q 96 916 205 920 l 96 0 l 240 0 m 338 800 q 507 700 483 800 q 514 642 514 674 q 415 495 514 528 q 346 486 384 486 l 240 486 l 240 798 q 338 800 302 800 m 340 970 l 549 1137 l 492 1207 l 345 1099 l 194 1210 l 133 1135 l 340 970 z "},"S":{"ha":650,"x_min":52,"x_max":604,"o":"m 604 256 q 476 475 604 397 q 340 540 454 488 q 221 633 243 585 q 210 681 210 655 q 285 799 210 768 q 343 811 312 811 q 483 738 433 811 q 492 722 488 730 l 601 780 q 433 922 557 888 q 349 933 391 933 q 136 850 220 933 q 65 673 65 777 q 190 453 65 529 q 327 387 212 439 q 446 292 423 342 q 457 241 457 269 q 382 121 457 153 q 320 109 353 109 q 109 175 209 110 l 52 72 q 317 -18 178 -18 q 545 81 465 -18 q 604 256 604 153 z "},"Ś":{"ha":650,"x_min":52,"x_max":604,"o":"m 604 256 q 476 475 604 397 q 340 540 454 488 q 221 633 243 585 q 210 681 210 655 q 285 799 210 768 q 343 811 312 811 q 483 738 433 811 q 492 722 488 730 l 601 780 q 433 922 557 888 q 349 933 391 933 q 136 850 220 933 q 65 673 65 777 q 190 453 65 529 q 327 387 212 439 q 446 292 423 342 q 457 241 457 269 q 382 121 457 153 q 320 109 353 109 q 109 175 209 110 l 52 72 q 317 -18 178 -18 q 545 81 465 -18 q 604 256 604 153 m 545 1123 l 473 1227 l 236 1057 l 293 971 l 545 1123 z "},"Š":{"ha":650,"x_min":52,"x_max":604,"o":"m 604 256 q 476 475 604 397 q 340 540 454 488 q 221 633 243 585 q 210 681 210 655 q 285 799 210 768 q 343 811 312 811 q 483 738 433 811 q 492 722 488 730 l 601 780 q 433 922 557 888 q 349 933 391 933 q 136 850 220 933 q 65 673 65 777 q 190 453 65 529 q 327 387 212 439 q 446 292 423 342 q 457 241 457 269 q 382 121 457 153 q 320 109 353 109 q 109 175 209 110 l 52 72 q 317 -18 178 -18 q 545 81 465 -18 q 604 256 604 153 m 339 970 l 548 1137 l 491 1207 l 343 1099 l 193 1210 l 132 1135 l 339 970 z "},"T":{"ha":568,"x_min":8,"x_max":559,"o":"m 8 916 l 8 795 l 209 795 l 209 0 l 353 0 l 353 795 l 559 795 l 559 916 l 8 916 z "},"Ť":{"ha":568,"x_min":8,"x_max":559,"o":"m 8 916 l 8 795 l 209 795 l 209 0 l 353 0 l 353 795 l 559 795 l 559 916 l 8 916 m 283 970 l 492 1137 l 435 1207 l 288 1099 l 137 1210 l 76 1135 l 283 970 z "},"Þ":{"ha":688,"x_min":96,"x_max":658,"o":"m 343 183 q 617 321 537 183 q 658 480 658 391 q 517 715 658 646 q 339 751 441 751 l 240 750 l 240 916 l 96 916 l 96 0 l 240 0 l 240 183 l 343 183 m 338 631 q 510 463 509 628 q 401 311 510 339 q 342 304 374 304 l 240 304 l 240 629 l 338 631 z "},"U":{"ha":796,"x_min":77,"x_max":719,"o":"m 719 340 l 719 916 l 576 916 l 576 347 q 396 109 575 110 q 224 283 243 109 q 221 340 221 311 l 221 916 l 77 916 l 77 346 q 331 -14 77 22 q 392 -18 361 -18 q 680 145 602 -18 q 719 340 719 227 z "},"Ú":{"ha":796,"x_min":77,"x_max":719,"o":"m 719 340 l 719 916 l 576 916 l 576 347 q 396 109 575 110 q 224 283 243 109 q 221 340 221 311 l 221 916 l 77 916 l 77 346 q 331 -14 77 22 q 392 -18 361 -18 q 680 145 602 -18 q 719 340 719 227 m 604 1123 l 532 1227 l 294 1057 l 351 971 l 604 1123 z "},"Û":{"ha":796,"x_min":77,"x_max":719,"o":"m 719 340 l 719 916 l 576 916 l 576 347 q 396 109 575 110 q 224 283 243 109 q 221 340 221 311 l 221 916 l 77 916 l 77 346 q 331 -14 77 22 q 392 -18 361 -18 q 680 145 602 -18 q 719 340 719 227 m 406 1207 l 197 1046 l 255 974 l 401 1076 l 549 971 l 612 1047 l 406 1207 z "},"Ü":{"ha":796,"x_min":77,"x_max":719,"o":"m 719 340 l 719 916 l 576 916 l 576 347 q 396 109 575 110 q 224 283 243 109 q 221 340 221 311 l 221 916 l 77 916 l 77 346 q 331 -14 77 22 q 392 -18 361 -18 q 680 145 602 -18 q 719 340 719 227 m 345 1086 q 293 1166 345 1149 q 267 1171 279 1171 q 195 1122 213 1171 q 189 1086 189 1105 q 240 1004 189 1021 q 266 1000 254 1000 q 338 1048 319 1000 q 345 1086 345 1066 m 609 1086 q 556 1166 609 1150 q 530 1171 543 1171 q 460 1122 479 1171 q 454 1086 454 1105 q 506 1004 454 1021 q 530 1000 518 1000 q 602 1048 583 1000 q 609 1086 609 1066 z "},"Ù":{"ha":796,"x_min":77,"x_max":719,"o":"m 719 340 l 719 916 l 576 916 l 576 347 q 396 109 575 110 q 224 283 243 109 q 221 340 221 311 l 221 916 l 77 916 l 77 346 q 331 -14 77 22 q 392 -18 361 -18 q 680 145 602 -18 q 719 340 719 227 m 235 1123 l 307 1227 l 544 1057 l 487 971 l 235 1123 z "},"Ű":{"ha":796,"x_min":77,"x_max":751,"o":"m 719 340 l 719 916 l 576 916 l 576 347 q 396 109 575 110 q 224 283 243 109 q 221 340 221 311 l 221 916 l 77 916 l 77 346 q 331 -14 77 22 q 392 -18 361 -18 q 680 145 602 -18 q 719 340 719 227 m 481 1137 l 404 1226 l 193 1043 l 252 971 l 481 1137 m 751 1137 l 675 1226 l 463 1043 l 524 971 l 751 1137 z "},"Ū":{"ha":796,"x_min":77,"x_max":719,"o":"m 719 340 l 719 916 l 576 916 l 576 347 q 396 109 575 110 q 224 283 243 109 q 221 340 221 311 l 221 916 l 77 916 l 77 346 q 331 -14 77 22 q 392 -18 361 -18 q 680 145 602 -18 q 719 340 719 227 m 216 1141 l 216 1031 l 582 1031 l 582 1141 l 216 1141 z "},"Ų":{"ha":796,"x_min":77,"x_max":719,"o":"m 719 340 l 719 916 l 576 916 l 576 347 q 396 109 575 110 q 224 283 243 109 q 221 340 221 311 l 221 916 l 77 916 l 77 346 q 327 -12 77 24 q 345 -15 336 -14 q 269 -152 269 -81 q 366 -275 269 -247 q 430 -283 396 -283 q 525 -270 473 -283 l 518 -175 q 469 -182 495 -182 q 391 -134 403 -182 q 389 -119 389 -126 q 495 -5 392 -52 q 712 247 677 42 q 719 340 719 292 z "},"Ů":{"ha":796,"x_min":77,"x_max":719,"o":"m 719 340 l 719 916 l 576 916 l 576 347 q 396 109 575 110 q 224 283 243 109 q 221 340 221 311 l 221 916 l 77 916 l 77 346 q 331 -14 77 22 q 392 -18 361 -18 q 680 145 602 -18 q 719 340 719 227 m 552 1095 q 471 1232 552 1194 q 403 1246 438 1246 q 275 1183 320 1246 q 250 1092 250 1143 q 332 951 250 989 q 397 936 363 936 q 526 1002 481 936 q 552 1095 552 1042 m 336 1092 q 381 1162 336 1147 q 400 1165 391 1165 q 460 1123 445 1165 q 465 1092 465 1108 q 419 1021 465 1036 q 400 1019 410 1019 q 342 1061 357 1019 q 336 1092 336 1076 z "},"V":{"ha":739,"x_min":4,"x_max":734,"o":"m 461 0 l 734 916 l 583 916 l 429 378 q 373 138 414 327 q 315 374 330 320 l 161 916 l 4 916 l 274 0 l 461 0 z "},"W":{"ha":1101,"x_min":26,"x_max":1076,"o":"m 374 0 l 519 524 q 551 665 536 582 q 581 526 564 587 l 720 0 l 846 0 l 1076 916 l 936 916 l 818 377 q 788 199 810 339 q 755 374 769 319 l 623 886 l 487 882 l 353 377 q 317 197 345 345 q 292 374 302 330 l 175 916 l 26 916 l 243 0 l 374 0 z "},"X":{"ha":753,"x_min":8,"x_max":750,"o":"m 745 103 q 680 132 704 100 q 673 142 675 137 l 467 460 l 732 916 l 589 916 l 389 581 l 184 916 l 18 916 l 300 473 l 8 0 l 168 0 l 374 355 l 551 81 q 674 -15 608 -7 q 694 -16 685 -16 q 750 -9 727 -16 l 745 103 z "},"Y":{"ha":704,"x_min":1,"x_max":703,"o":"m 420 0 l 420 345 l 703 916 l 549 916 l 418 629 q 353 467 396 582 q 286 629 315 568 l 155 916 l 1 916 l 277 346 l 277 0 l 420 0 z "},"Ý":{"ha":704,"x_min":1,"x_max":703,"o":"m 420 0 l 420 345 l 703 916 l 549 916 l 418 629 q 353 467 396 582 q 286 629 315 568 l 155 916 l 1 916 l 277 346 l 277 0 l 420 0 m 559 1123 l 487 1227 l 250 1057 l 307 971 l 559 1123 z "},"Ÿ":{"ha":704,"x_min":1,"x_max":703,"o":"m 420 0 l 420 345 l 703 916 l 549 916 l 418 629 q 353 467 396 582 q 286 629 315 568 l 155 916 l 1 916 l 277 346 l 277 0 l 420 0 m 298 1086 q 247 1166 298 1149 q 221 1171 233 1171 q 149 1122 167 1171 q 142 1086 142 1105 q 194 1004 142 1021 q 220 1000 208 1000 q 292 1048 273 1000 q 298 1086 298 1066 m 563 1086 q 510 1166 563 1150 q 484 1171 496 1171 q 414 1122 433 1171 q 408 1086 408 1105 q 460 1004 408 1021 q 484 1000 472 1000 q 556 1048 537 1000 q 563 1086 563 1066 z "},"Z":{"ha":647,"x_min":37,"x_max":610,"o":"m 199 127 l 609 795 l 610 916 l 50 916 l 50 791 l 449 791 l 37 118 l 37 0 l 609 0 l 609 127 l 199 127 z "},"Ź":{"ha":647,"x_min":37,"x_max":610,"o":"m 199 127 l 609 795 l 610 916 l 50 916 l 50 791 l 449 791 l 37 118 l 37 0 l 609 0 l 609 127 l 199 127 m 534 1123 l 463 1227 l 225 1057 l 282 971 l 534 1123 z "},"Ž":{"ha":647,"x_min":37,"x_max":610,"o":"m 199 127 l 609 795 l 610 916 l 50 916 l 50 791 l 449 791 l 37 118 l 37 0 l 609 0 l 609 127 l 199 127 m 328 970 l 537 1137 l 480 1207 l 332 1099 l 182 1210 l 121 1135 l 328 970 z "},"Ż":{"ha":647,"x_min":37,"x_max":610,"o":"m 199 127 l 609 795 l 610 916 l 50 916 l 50 791 l 449 791 l 37 118 l 37 0 l 609 0 l 609 127 l 199 127 m 342 1005 q 406 1065 393 1016 q 407 1104 410 1084 q 347 1171 399 1162 q 316 1171 331 1173 q 254 1111 264 1160 q 252 1074 250 1093 q 312 1005 260 1015 q 342 1005 327 1002 z "},"a":{"ha":606,"x_min":23,"x_max":597,"o":"m 532 -18 q 597 -9 562 -18 l 591 94 q 572 92 583 92 q 519 141 526 92 q 518 168 518 153 l 518 467 q 391 678 518 631 q 294 694 347 694 q 52 628 165 694 q 46 624 49 625 l 95 521 q 264 576 194 576 q 377 461 372 566 l 377 403 q 313 406 331 406 q 54 300 125 406 q 23 193 23 252 q 121 9 23 64 q 228 -18 170 -18 q 391 62 331 -18 q 403 80 397 72 q 532 -18 426 -16 m 259 96 q 171 160 189 96 q 167 193 167 175 q 320 311 170 309 q 377 309 359 311 l 377 250 q 281 98 377 114 q 259 96 270 96 z "},"á":{"ha":606,"x_min":23,"x_max":597,"o":"m 532 -18 q 597 -9 562 -18 l 591 94 q 572 92 583 92 q 519 141 526 92 q 518 168 518 153 l 518 467 q 391 678 518 631 q 294 694 347 694 q 52 628 165 694 q 46 624 49 625 l 95 521 q 264 576 194 576 q 377 461 372 566 l 377 403 q 313 406 331 406 q 54 300 125 406 q 23 193 23 252 q 121 9 23 64 q 228 -18 170 -18 q 391 62 331 -18 q 403 80 397 72 q 532 -18 426 -16 m 259 96 q 171 160 189 96 q 167 193 167 175 q 320 311 170 309 q 377 309 359 311 l 377 250 q 281 98 377 114 q 259 96 270 96 m 496 911 l 425 1016 l 187 845 l 244 760 l 496 911 z "},"ă":{"ha":606,"x_min":23,"x_max":597,"o":"m 532 -18 q 597 -9 562 -18 l 591 94 q 572 92 583 92 q 519 141 526 92 q 518 168 518 153 l 518 467 q 391 678 518 631 q 294 694 347 694 q 52 628 165 694 q 46 624 49 625 l 95 521 q 264 576 194 576 q 377 461 372 566 l 377 403 q 313 406 331 406 q 54 300 125 406 q 23 193 23 252 q 121 9 23 64 q 228 -18 170 -18 q 391 62 331 -18 q 403 80 397 72 q 532 -18 426 -16 m 259 96 q 171 160 189 96 q 167 193 167 175 q 320 311 170 309 q 377 309 359 311 l 377 250 q 281 98 377 114 q 259 96 270 96 m 99 970 q 195 800 99 852 q 290 777 239 777 q 445 850 388 777 q 483 971 483 901 l 389 975 q 324 888 384 909 q 293 883 309 883 q 206 936 233 883 q 194 979 197 956 l 99 970 z "},"â":{"ha":606,"x_min":23,"x_max":597,"o":"m 532 -18 q 597 -9 562 -18 l 591 94 q 572 92 583 92 q 519 141 526 92 q 518 168 518 153 l 518 467 q 391 678 518 631 q 294 694 347 694 q 52 628 165 694 q 46 624 49 625 l 95 521 q 264 576 194 576 q 377 461 372 566 l 377 403 q 313 406 331 406 q 54 300 125 406 q 23 193 23 252 q 121 9 23 64 q 228 -18 170 -18 q 391 62 331 -18 q 403 80 397 72 q 532 -18 426 -16 m 259 96 q 171 160 189 96 q 167 193 167 175 q 320 311 170 309 q 377 309 359 311 l 377 250 q 281 98 377 114 q 259 96 270 96 m 298 996 l 90 834 l 148 762 l 294 864 l 442 760 l 505 836 l 298 996 z "},"´":{"ha":441,"x_min":81,"x_max":391,"o":"m 391 911 l 319 1016 l 81 845 l 138 760 l 391 911 z "},"ä":{"ha":606,"x_min":23,"x_max":597,"o":"m 532 -18 q 597 -9 562 -18 l 591 94 q 572 92 583 92 q 519 141 526 92 q 518 168 518 153 l 518 467 q 391 678 518 631 q 294 694 347 694 q 52 628 165 694 q 46 624 49 625 l 95 521 q 264 576 194 576 q 377 461 372 566 l 377 403 q 313 406 331 406 q 54 300 125 406 q 23 193 23 252 q 121 9 23 64 q 228 -18 170 -18 q 391 62 331 -18 q 403 80 397 72 q 532 -18 426 -16 m 259 96 q 171 160 189 96 q 167 193 167 175 q 320 311 170 309 q 377 309 359 311 l 377 250 q 281 98 377 114 q 259 96 270 96 m 237 875 q 186 955 237 937 q 160 959 172 959 q 88 910 106 959 q 81 875 81 894 q 133 792 81 810 q 159 788 146 788 q 231 837 212 788 q 237 875 237 854 m 502 875 q 449 955 502 939 q 423 959 435 959 q 353 910 372 959 q 347 875 347 894 q 399 792 347 810 q 423 788 411 788 q 495 837 476 788 q 502 875 502 854 z "},"æ":{"ha":962,"x_min":24,"x_max":929,"o":"m 663 586 q 781 475 758 586 q 787 411 787 445 l 524 408 q 636 583 544 560 q 663 586 650 586 m 916 52 l 873 146 q 700 98 781 98 q 537 220 579 98 q 521 305 525 259 l 929 305 l 929 347 q 669 696 926 694 q 473 606 548 694 q 296 694 420 694 q 53 628 167 694 q 47 624 50 625 l 96 521 q 266 576 195 576 q 378 461 373 566 l 378 403 q 315 406 332 406 q 56 300 126 406 q 24 193 24 252 q 122 9 24 64 q 229 -18 171 -18 q 391 49 326 -18 q 434 121 420 80 q 686 -18 517 -16 q 916 52 807 -16 m 260 96 q 172 160 190 96 q 168 193 168 175 q 321 311 171 309 q 378 309 361 311 l 378 250 q 282 98 378 114 q 260 96 271 96 z "},"à":{"ha":606,"x_min":23,"x_max":597,"o":"m 532 -18 q 597 -9 562 -18 l 591 94 q 572 92 583 92 q 519 141 526 92 q 518 168 518 153 l 518 467 q 391 678 518 631 q 294 694 347 694 q 52 628 165 694 q 46 624 49 625 l 95 521 q 264 576 194 576 q 377 461 372 566 l 377 403 q 313 406 331 406 q 54 300 125 406 q 23 193 23 252 q 121 9 23 64 q 228 -18 170 -18 q 391 62 331 -18 q 403 80 397 72 q 532 -18 426 -16 m 259 96 q 171 160 189 96 q 167 193 167 175 q 320 311 170 309 q 377 309 359 311 l 377 250 q 281 98 377 114 q 259 96 270 96 m 127 911 l 199 1016 l 437 845 l 380 760 l 127 911 z "},"ā":{"ha":606,"x_min":23,"x_max":597,"o":"m 532 -18 q 597 -9 562 -18 l 591 94 q 572 92 583 92 q 519 141 526 92 q 518 168 518 153 l 518 467 q 391 678 518 631 q 294 694 347 694 q 52 628 165 694 q 46 624 49 625 l 95 521 q 264 576 194 576 q 377 461 372 566 l 377 403 q 313 406 331 406 q 54 300 125 406 q 23 193 23 252 q 121 9 23 64 q 228 -18 170 -18 q 391 62 331 -18 q 403 80 397 72 q 532 -18 426 -16 m 259 96 q 171 160 189 96 q 167 193 167 175 q 320 311 170 309 q 377 309 359 311 l 377 250 q 281 98 377 114 q 259 96 270 96 m 109 929 l 109 819 l 475 819 l 475 929 l 109 929 z "},"&":{"ha":899,"x_min":54,"x_max":852,"o":"m 271 808 q 332 892 271 876 q 361 897 346 897 q 441 829 430 897 q 442 808 442 818 q 346 632 441 726 q 271 808 271 746 m 380 94 q 217 182 262 95 q 198 267 198 220 q 311 449 199 349 q 567 179 410 332 q 380 94 494 94 m 795 498 l 656 498 q 632 302 656 391 q 416 538 495 441 q 571 727 540 646 q 586 808 586 768 q 475 978 586 929 q 361 1001 423 1001 q 168 921 232 1001 q 129 806 129 872 q 239 540 130 694 q 83 373 119 439 q 54 264 54 319 q 175 37 54 115 q 376 -18 260 -18 q 655 92 545 -15 q 760 -8 661 87 l 852 84 q 804 132 836 100 q 734 201 755 178 q 795 498 795 321 z "},"ං":{"ha":437,"x_min":31,"x_max":407,"o":"m 140 361 q 218 221 141 222 q 298 361 297 225 q 218 499 292 492 q 140 361 140 496 m 31 361 q 118 579 31 515 q 218 612 161 612 q 382 496 334 612 q 407 361 407 438 q 283 118 407 160 q 218 109 252 109 q 37 282 66 109 q 31 361 31 319 z "},"ą":{"ha":610,"x_min":23,"x_max":610,"o":"m 610 -267 l 604 -172 q 555 -180 578 -180 q 475 -133 487 -180 q 473 -118 473 -125 q 597 -9 476 -46 l 591 94 q 572 92 583 92 q 519 141 526 92 q 518 168 518 153 l 518 467 q 391 678 518 631 q 294 694 347 694 q 52 628 165 694 q 46 624 49 625 l 95 521 q 264 576 194 576 q 377 461 372 566 l 377 403 q 313 406 331 406 q 54 300 125 406 q 23 193 23 252 q 121 9 23 64 q 228 -18 170 -18 q 391 62 331 -18 q 403 80 397 72 q 472 -8 418 16 q 355 -148 363 -62 q 354 -160 354 -155 q 431 -266 354 -235 q 519 -281 471 -281 q 610 -267 567 -281 m 259 96 q 171 160 189 96 q 167 193 167 175 q 320 311 170 309 q 377 309 359 311 l 377 250 q 281 98 377 114 q 259 96 270 96 z "},"≈":{"ha":716,"x_min":42,"x_max":673,"o":"m 488 499 q 358 537 448 499 q 227 571 277 571 q 42 472 129 570 l 111 395 q 227 444 168 444 q 357 406 269 444 q 490 372 438 372 q 670 473 586 373 l 601 549 q 488 499 549 499 m 491 267 q 361 305 449 267 q 228 339 279 339 q 43 241 130 338 l 113 163 q 229 213 168 213 q 361 175 271 213 q 491 141 441 141 q 673 243 587 142 l 602 317 q 491 267 551 267 z "},"å":{"ha":606,"x_min":23,"x_max":597,"o":"m 532 -18 q 597 -9 562 -18 l 591 94 q 572 92 583 92 q 519 141 526 92 q 518 168 518 153 l 518 467 q 391 678 518 631 q 294 694 347 694 q 52 628 165 694 q 46 624 49 625 l 95 521 q 264 576 194 576 q 377 461 372 566 l 377 403 q 313 406 331 406 q 54 300 125 406 q 23 193 23 252 q 121 9 23 64 q 228 -18 170 -18 q 391 62 331 -18 q 403 80 397 72 q 532 -18 426 -16 m 259 96 q 171 160 189 96 q 167 193 167 175 q 320 311 170 309 q 377 309 359 311 l 377 250 q 281 98 377 114 q 259 96 270 96 m 445 883 q 363 1020 445 982 q 296 1035 331 1035 q 168 971 213 1035 q 142 880 142 932 q 225 739 142 777 q 290 724 256 724 q 419 791 374 724 q 445 883 445 830 m 229 880 q 274 951 229 936 q 293 954 283 954 q 353 911 338 954 q 358 880 358 897 q 312 810 358 825 q 293 807 302 807 q 235 849 250 807 q 229 880 229 864 z "},"^":{"ha":705,"x_min":62,"x_max":644,"o":"m 354 933 l 62 522 l 148 467 l 351 764 l 555 467 l 644 526 l 354 933 z "},"~":{"ha":716,"x_min":43,"x_max":673,"o":"m 673 362 l 602 441 q 491 391 551 391 q 361 429 449 391 q 228 463 279 463 q 43 365 130 461 l 113 282 q 229 332 171 332 q 361 294 271 332 q 491 260 441 260 q 673 362 587 262 z "},"*":{"ha":492,"x_min":30,"x_max":454,"o":"m 267 812 l 292 913 q 263 985 307 971 q 187 972 231 994 l 224 812 l 267 812 m 216 806 l 127 861 q 50 857 77 894 q 39 781 31 829 l 203 766 l 216 806 m 206 757 l 125 689 q 106 613 79 651 q 175 581 127 587 l 239 731 l 206 757 m 251 730 l 290 632 q 350 589 309 579 q 408 646 385 598 l 283 754 l 251 730 m 286 765 l 392 772 q 452 815 448 774 q 415 888 453 850 l 274 804 l 286 765 z "},"@":{"ha":1057,"x_min":57,"x_max":1004,"o":"m 779 -43 l 746 49 q 533 8 636 8 q 235 175 328 8 q 179 416 179 277 q 296 728 180 612 q 549 830 396 830 q 815 705 723 830 q 883 467 883 610 q 792 235 883 259 q 761 231 777 231 q 720 266 726 231 q 719 289 719 277 l 719 524 q 606 697 719 661 q 536 708 574 708 q 335 654 425 707 l 374 566 q 511 609 452 609 q 600 521 598 606 l 600 479 q 571 480 590 479 q 548 480 555 480 q 332 382 384 480 q 313 305 313 347 q 401 155 313 195 q 481 137 438 137 q 617 208 570 137 q 621 216 620 213 q 750 137 644 138 q 960 266 892 137 q 1004 468 1004 350 q 833 845 1004 720 q 549 930 715 930 q 170 758 308 932 q 57 418 58 616 q 197 33 57 172 q 519 -92 320 -92 q 779 -43 642 -92 m 505 232 q 439 278 454 232 q 435 307 435 292 q 553 399 438 397 q 600 397 585 399 l 600 353 q 505 232 598 233 z "},"ã":{"ha":606,"x_min":23,"x_max":597,"o":"m 532 -18 q 597 -9 562 -18 l 591 94 q 572 92 583 92 q 519 141 526 92 q 518 168 518 153 l 518 467 q 391 678 518 631 q 294 694 347 694 q 52 628 165 694 q 46 624 49 625 l 95 521 q 264 576 194 576 q 377 461 372 566 l 377 403 q 313 406 331 406 q 54 300 125 406 q 23 193 23 252 q 121 9 23 64 q 228 -18 170 -18 q 391 62 331 -18 q 403 80 397 72 q 532 -18 426 -16 m 259 96 q 171 160 189 96 q 167 193 167 175 q 320 311 170 309 q 377 309 359 311 l 377 250 q 281 98 377 114 q 259 96 270 96 m 376 901 q 286 930 349 901 q 206 954 239 952 q 60 878 137 952 l 119 810 q 209 848 168 848 q 304 818 237 848 q 388 795 354 795 q 525 875 463 796 l 465 940 q 376 901 427 902 z "},"b":{"ha":684,"x_min":91,"x_max":643,"o":"m 643 373 q 533 651 643 567 q 399 696 475 696 q 236 616 298 694 l 233 983 l 92 983 l 91 42 q 330 -18 216 -18 q 583 125 499 -18 q 643 373 643 225 m 232 122 l 233 389 q 315 571 233 532 q 365 583 338 583 q 476 495 441 583 q 498 372 498 444 q 397 113 498 165 q 332 98 368 98 q 232 122 286 98 z "},"\\":{"ha":549,"x_min":12,"x_max":537,"o":"m 407 -95 l 537 -94 l 140 983 l 12 983 l 407 -95 z "},"|":{"ha":377,"x_min":132,"x_max":245,"o":"m 134 983 l 132 -95 l 245 -95 l 245 983 l 134 983 z "},"{":{"ha":450,"x_min":60,"x_max":420,"o":"m 420 -255 l 416 -146 q 382 -148 404 -148 q 302 -92 313 -148 q 300 -62 300 -79 l 300 251 q 193 400 298 369 q 300 553 298 435 l 300 859 q 350 940 300 928 q 384 943 363 943 q 415 941 406 943 l 420 1050 q 328 1061 369 1061 q 171 930 187 1061 q 168 890 168 910 l 168 564 q 79 454 168 467 q 60 453 69 453 l 60 350 q 168 256 159 346 q 170 239 170 247 l 170 -95 q 293 -262 170 -247 q 328 -264 311 -264 q 420 -255 376 -264 z "},"}":{"ha":444,"x_min":23,"x_max":384,"o":"m 23 1050 l 27 941 q 61 943 39 943 q 141 887 130 943 q 144 857 144 873 l 144 544 q 251 395 145 426 q 144 241 145 359 l 144 -64 q 94 -145 144 -133 q 60 -148 79 -148 q 28 -146 38 -148 l 23 -255 q 115 -266 75 -266 q 273 -136 256 -266 q 275 -95 275 -115 l 275 231 q 365 340 275 328 q 384 342 374 342 l 384 445 q 275 538 285 449 q 274 556 274 548 l 274 890 q 151 1057 274 1042 q 115 1059 133 1059 q 23 1050 68 1059 z "},"[":{"ha":420,"x_min":107,"x_max":385,"o":"m 385 -247 l 385 -118 l 240 -118 l 240 914 l 385 914 l 385 1043 l 107 1043 l 107 -247 l 385 -247 z "},"]":{"ha":411,"x_min":26,"x_max":304,"o":"m 26 1050 l 26 921 l 171 921 l 171 -111 l 26 -111 l 26 -240 l 304 -240 l 304 1050 l 26 1050 z "},"˘":{"ha":543,"x_min":79,"x_max":463,"o":"m 79 970 q 175 800 79 852 q 270 777 218 777 q 425 850 368 777 q 463 971 463 901 l 369 975 q 304 888 363 909 q 273 883 289 883 q 186 936 213 883 q 174 979 176 956 l 79 970 z "},"¦":{"ha":377,"x_min":132,"x_max":245,"o":"m 134 317 l 132 -95 l 245 -95 l 245 317 l 134 317 m 134 983 l 132 571 l 245 571 l 245 983 l 134 983 z "},"•":{"ha":467,"x_min":79,"x_max":388,"o":"m 388 399 q 320 532 388 484 q 233 559 281 559 q 104 488 149 559 q 79 399 79 446 q 146 266 79 312 q 233 240 186 240 q 363 312 319 240 q 388 399 388 351 z "},"c":{"ha":556,"x_min":39,"x_max":553,"o":"m 541 52 l 502 148 q 349 102 414 102 q 184 339 187 110 q 297 576 184 555 q 321 579 309 579 q 434 486 393 579 q 438 475 437 480 l 553 519 q 321 694 492 694 q 91 562 167 694 q 39 342 39 472 q 179 18 39 100 q 317 -18 240 -18 q 541 52 423 -16 z "},"ć":{"ha":556,"x_min":39,"x_max":553,"o":"m 541 52 l 502 148 q 349 102 414 102 q 184 339 187 110 q 297 576 184 555 q 321 579 309 579 q 434 486 393 579 q 438 475 437 480 l 553 519 q 321 694 492 694 q 91 562 167 694 q 39 342 39 472 q 179 18 39 100 q 317 -18 240 -18 q 541 52 423 -16 m 530 911 l 458 1016 l 221 845 l 278 760 l 530 911 z "},"ˇ":{"ha":612,"x_min":98,"x_max":514,"o":"m 305 758 l 514 925 l 457 996 l 309 887 l 159 998 l 98 924 l 305 758 z "},"č":{"ha":556,"x_min":39,"x_max":553,"o":"m 541 52 l 502 148 q 349 102 414 102 q 184 339 187 110 q 297 576 184 555 q 321 579 309 579 q 434 486 393 579 q 438 475 437 480 l 553 519 q 321 694 492 694 q 91 562 167 694 q 39 342 39 472 q 179 18 39 100 q 317 -18 240 -18 q 541 52 423 -16 m 324 758 l 533 925 l 476 996 l 328 887 l 178 998 l 117 924 l 324 758 z "},"ç":{"ha":556,"x_min":39,"x_max":553,"o":"m 267 -286 q 437 -208 389 -286 q 456 -142 456 -176 q 378 -20 456 -66 q 366 -14 372 -16 q 541 52 448 -3 l 502 148 q 349 102 414 102 q 184 339 187 110 q 297 576 184 555 q 321 579 309 579 q 434 486 393 579 q 438 475 437 480 l 553 519 q 321 694 492 694 q 91 562 167 694 q 39 342 39 472 q 175 20 39 104 q 262 -12 214 -4 q 349 -111 345 -54 q 279 -180 349 -170 q 250 -183 266 -183 q 203 -179 227 -183 l 201 -278 q 267 -286 236 -286 z "},"¸":{"ha":547,"x_min":153,"x_max":408,"o":"m 220 -286 q 389 -208 342 -286 q 408 -142 408 -176 q 330 -20 408 -65 q 255 7 297 -1 l 163 5 q 296 -85 270 -23 q 301 -111 301 -99 q 232 -180 301 -170 q 202 -183 218 -183 q 156 -179 179 -183 l 153 -278 q 220 -286 189 -286 z "},"¢":{"ha":587,"x_min":38,"x_max":553,"o":"m 541 79 l 500 175 q 347 129 412 129 q 191 270 220 129 q 183 353 183 308 q 271 568 183 528 q 320 579 293 579 q 437 475 397 576 l 553 522 q 362 692 494 671 l 362 795 l 264 795 l 264 689 q 71 528 129 663 q 38 355 38 452 q 172 49 38 132 q 264 14 214 23 l 264 -96 l 362 -96 l 362 12 q 541 79 452 26 z "},"ˆ":{"ha":612,"x_min":98,"x_max":513,"o":"m 307 996 l 98 834 l 156 762 l 302 864 l 450 760 l 513 836 l 307 996 z "},":":{"ha":321,"x_min":72,"x_max":251,"o":"m 251 461 q 191 553 251 534 q 161 559 176 559 q 79 503 100 559 q 72 461 72 484 q 133 365 72 384 q 160 361 145 361 q 243 415 220 361 q 251 461 251 435 m 251 84 q 191 176 251 157 q 161 182 176 182 q 79 126 100 182 q 72 84 72 107 q 133 -12 72 7 q 160 -16 145 -16 q 243 38 220 -16 q 251 84 251 58 z "},",":{"ha":290,"x_min":39,"x_max":237,"o":"m 237 73 q 174 178 237 153 q 138 184 156 184 q 54 133 80 184 q 42 80 42 110 q 95 -4 42 20 q 111 -9 103 -7 q 46 -155 102 -62 q 39 -165 42 -161 l 96 -203 q 232 27 206 -91 q 237 73 237 52 z "},"©":{"ha":1044,"x_min":52,"x_max":998,"o":"m 998 463 q 840 826 998 692 q 529 936 708 936 q 198 812 334 936 q 52 460 52 677 q 212 94 52 228 q 522 -15 343 -15 q 852 109 716 -15 q 998 463 998 244 m 720 222 l 677 304 q 540 259 597 259 q 407 374 435 259 q 399 454 399 411 q 494 654 399 627 q 526 658 510 658 q 635 571 600 655 l 732 602 q 552 750 688 738 q 528 751 540 751 q 334 648 404 751 q 279 453 279 568 q 388 208 279 286 q 532 164 452 164 q 720 222 625 165 m 170 463 q 304 768 170 661 q 524 841 397 841 q 787 727 685 841 q 880 461 880 621 q 745 152 880 258 q 528 81 651 81 q 262 197 363 81 q 170 463 170 301 z "},"¤":{"ha":708,"x_min":34,"x_max":669,"o":"m 647 339 q 583 551 646 465 l 669 661 l 590 722 l 510 616 q 355 655 445 655 q 197 614 264 655 l 114 722 l 34 661 l 122 549 q 53 336 53 460 q 118 126 54 209 l 34 19 l 114 -41 l 191 61 q 345 23 258 23 q 509 65 439 23 l 591 -41 l 669 19 l 582 130 q 647 339 647 217 m 198 339 q 269 511 198 456 q 353 540 305 540 q 484 442 445 540 q 503 336 503 395 q 431 164 503 216 q 350 138 395 138 q 218 232 259 138 q 198 339 198 279 z "},"d":{"ha":684,"x_min":43,"x_max":651,"o":"m 323 96 q 208 201 243 96 q 189 328 189 256 q 281 562 189 507 q 354 581 313 581 q 457 559 404 581 l 457 285 q 373 106 457 144 q 323 96 349 96 m 457 983 l 457 681 q 350 696 399 696 q 92 538 174 696 q 43 316 43 444 q 144 37 43 127 q 288 -18 205 -18 q 469 84 404 -16 q 651 -11 496 -42 l 646 94 q 598 130 604 87 q 598 145 598 138 l 598 983 l 457 983 z "},"†":{"ha":617,"x_min":35,"x_max":582,"o":"m 366 -75 l 385 342 l 368 590 l 582 583 l 582 699 l 368 692 l 385 944 l 232 944 l 250 692 l 35 699 l 35 583 l 250 590 l 232 342 l 251 -75 l 366 -75 z "},"‡":{"ha":617,"x_min":35,"x_max":582,"o":"m 582 171 l 582 286 l 369 279 l 385 438 l 369 590 l 582 583 l 582 699 l 368 692 l 385 944 l 232 944 l 250 692 l 35 699 l 35 583 l 248 590 l 232 438 l 248 279 l 35 286 l 35 171 l 250 178 l 232 -75 l 385 -75 l 368 178 l 582 171 z "},"ď":{"ha":783,"x_min":43,"x_max":815,"o":"m 323 96 q 208 201 243 96 q 189 328 189 256 q 281 562 189 507 q 354 581 313 581 q 457 559 404 581 l 457 285 q 373 106 457 144 q 323 96 349 96 m 457 983 l 457 681 q 350 696 399 696 q 92 538 174 696 q 43 316 43 444 q 144 37 43 127 q 288 -18 205 -18 q 469 84 404 -16 q 651 -11 496 -42 l 646 94 q 598 130 604 87 q 598 145 598 138 l 598 983 l 457 983 m 815 864 q 760 955 815 935 q 730 960 745 960 q 656 913 678 960 q 647 871 648 892 q 697 798 647 817 q 707 793 701 795 q 650 667 699 746 q 646 661 647 663 l 694 628 q 811 830 792 728 q 815 864 815 849 z "},"đ":{"ha":673,"x_min":43,"x_max":677,"o":"m 269 872 l 269 776 l 457 776 l 457 681 q 350 696 399 696 q 92 538 174 696 q 43 316 43 444 q 144 37 43 127 q 288 -18 205 -18 q 469 84 404 -16 q 651 -11 496 -42 l 646 94 q 598 130 604 87 q 598 145 598 138 l 598 776 l 677 776 l 677 872 l 598 872 l 598 983 l 457 983 l 457 872 l 269 872 m 323 96 q 208 201 243 96 q 189 328 189 256 q 281 562 189 507 q 354 581 313 581 q 457 559 404 581 l 457 285 q 373 106 457 144 q 323 96 349 96 z "},"°":{"ha":503,"x_min":53,"x_max":450,"o":"m 254 1015 q 94 939 152 1015 q 53 808 53 884 q 149 637 53 689 q 247 613 194 613 q 408 686 349 613 q 450 812 450 739 q 353 990 450 936 q 254 1015 307 1015 m 251 711 q 168 764 193 711 q 157 815 157 787 q 218 910 157 887 q 251 916 233 916 q 334 863 309 916 q 345 808 345 838 q 286 718 345 741 q 251 711 269 711 z "},"¨":{"ha":636,"x_min":107,"x_max":528,"o":"m 263 875 q 212 955 263 937 q 186 959 198 959 q 114 910 132 959 q 107 875 107 894 q 159 792 107 810 q 184 788 172 788 q 256 837 237 788 q 263 875 263 854 m 528 875 q 475 955 528 939 q 449 959 461 959 q 378 910 397 959 q 373 875 373 894 q 425 792 373 810 q 449 788 437 788 q 521 837 502 788 q 528 875 528 854 z "},"÷":{"ha":750,"x_min":54,"x_max":696,"o":"m 696 300 l 696 419 l 54 419 l 54 300 l 696 300 m 461 123 q 406 213 461 193 q 376 218 391 218 q 297 165 317 218 q 289 123 289 146 q 346 31 289 50 q 374 27 359 27 q 453 79 431 27 q 461 123 461 99 m 461 597 q 406 685 461 665 q 376 690 391 690 q 297 639 317 690 q 289 597 289 618 q 347 503 289 522 q 374 499 361 499 q 452 551 430 499 q 461 597 461 572 z "},"$":{"ha":730,"x_min":90,"x_max":642,"o":"m 426 -127 l 426 -11 q 617 130 564 16 q 642 251 642 186 q 514 465 642 389 q 378 530 494 477 q 260 623 282 575 q 251 667 251 644 q 326 783 251 753 q 382 793 353 793 q 528 713 480 793 q 532 707 530 709 l 639 764 q 471 905 597 873 q 426 913 449 910 l 426 1025 l 326 1025 l 326 910 q 138 783 195 884 q 107 659 107 727 q 232 442 107 518 q 365 378 254 430 q 484 286 461 335 q 495 236 495 263 q 419 119 495 148 q 361 109 392 109 q 149 176 255 110 l 90 75 q 326 -16 201 -5 l 326 -127 l 426 -127 z "},"˙":{"ha":334,"x_min":87,"x_max":247,"o":"m 179 793 q 243 853 231 804 q 244 892 247 872 q 184 959 236 951 q 153 959 168 962 q 91 899 102 948 q 90 863 87 882 q 149 793 98 803 q 179 793 164 791 z "},"ı":{"ha":319,"x_min":88,"x_max":229,"o":"m 229 0 l 229 678 l 88 678 l 88 0 l 229 0 z "},"◌":{"ha":924,"x_min":34,"x_max":888,"o":"m 81 225 q 122 290 81 270 q 153 297 137 297 q 218 256 198 297 q 225 225 225 241 q 184 160 225 180 q 153 153 170 153 q 88 194 109 153 q 81 225 81 209 m 213 95 q 255 160 213 141 q 285 167 270 167 q 350 126 330 167 q 357 95 357 111 q 316 30 357 50 q 285 23 301 23 q 220 65 237 23 q 213 95 213 80 m 697 225 q 739 290 697 270 q 770 297 754 297 q 836 256 815 297 q 842 225 842 241 q 802 160 842 180 q 770 153 787 153 q 704 194 724 153 q 697 225 697 210 m 567 95 q 608 160 567 140 q 639 167 623 167 q 704 126 684 167 q 711 95 711 111 q 670 30 711 50 q 639 23 655 23 q 574 64 594 23 q 567 95 567 79 m 81 581 q 122 646 81 625 q 153 652 137 652 q 218 612 198 652 q 225 581 225 597 q 184 515 225 536 q 153 509 170 509 q 88 549 109 509 q 81 581 81 564 m 213 711 q 255 776 213 757 q 285 783 269 783 q 350 742 330 783 q 357 711 357 727 q 316 646 357 666 q 285 639 301 639 q 220 681 237 639 q 213 711 213 696 m 697 581 q 739 646 697 625 q 770 652 754 652 q 836 612 815 652 q 842 581 842 597 q 802 515 842 536 q 770 509 787 509 q 704 549 724 509 q 697 581 697 566 m 567 711 q 608 776 567 755 q 639 783 623 783 q 704 742 684 783 q 711 711 711 727 q 670 646 711 666 q 639 639 655 639 q 574 680 594 639 q 567 711 567 694 m 34 403 q 75 468 34 448 q 106 475 90 475 q 171 434 151 475 q 178 403 178 419 q 137 338 178 358 q 106 331 122 331 q 41 372 61 331 q 34 403 34 387 m 745 403 q 785 468 745 448 q 817 475 800 475 q 882 434 861 475 q 888 403 888 419 q 848 338 888 358 q 817 331 833 331 q 751 372 772 331 q 745 403 745 387 m 389 758 q 430 823 389 803 q 461 830 445 830 q 526 789 506 830 q 533 758 533 774 q 492 693 533 713 q 461 686 477 686 q 396 727 416 686 q 389 758 389 742 m 389 47 q 430 113 389 92 q 461 119 445 119 q 526 79 506 119 q 533 47 533 64 q 492 -18 533 3 q 461 -24 477 -24 q 396 16 416 -24 q 389 47 389 31 z "},"e":{"ha":632,"x_min":45,"x_max":600,"o":"m 586 52 l 544 146 q 370 98 452 98 q 208 218 250 98 q 191 304 195 258 l 600 304 l 600 347 q 353 696 600 685 q 335 696 343 696 q 107 576 187 696 q 45 345 45 484 q 180 34 45 127 q 357 -18 256 -18 q 586 52 477 -16 m 334 586 q 452 477 429 586 q 457 411 457 446 l 194 408 q 307 583 214 560 q 334 586 320 586 z "},"é":{"ha":632,"x_min":45,"x_max":600,"o":"m 586 52 l 544 146 q 370 98 452 98 q 208 218 250 98 q 191 304 195 258 l 600 304 l 600 347 q 353 696 600 685 q 335 696 343 696 q 107 576 187 696 q 45 345 45 484 q 180 34 45 127 q 357 -18 256 -18 q 586 52 477 -16 m 334 586 q 452 477 429 586 q 457 411 457 446 l 194 408 q 307 583 214 560 q 334 586 320 586 m 543 911 l 471 1016 l 233 845 l 290 760 l 543 911 z "},"ě":{"ha":632,"x_min":45,"x_max":600,"o":"m 586 52 l 544 146 q 370 98 452 98 q 208 218 250 98 q 191 304 195 258 l 600 304 l 600 347 q 353 696 600 685 q 335 696 343 696 q 107 576 187 696 q 45 345 45 484 q 180 34 45 127 q 357 -18 256 -18 q 586 52 477 -16 m 334 586 q 452 477 429 586 q 457 411 457 446 l 194 408 q 307 583 214 560 q 334 586 320 586 m 338 758 l 547 925 l 490 996 l 342 887 l 191 998 l 130 924 l 338 758 z "},"ê":{"ha":632,"x_min":45,"x_max":600,"o":"m 586 52 l 544 146 q 370 98 452 98 q 208 218 250 98 q 191 304 195 258 l 600 304 l 600 347 q 353 696 600 685 q 335 696 343 696 q 107 576 187 696 q 45 345 45 484 q 180 34 45 127 q 357 -18 256 -18 q 586 52 477 -16 m 334 586 q 452 477 429 586 q 457 411 457 446 l 194 408 q 307 583 214 560 q 334 586 320 586 m 345 996 l 136 834 l 194 762 l 340 864 l 488 760 l 551 836 l 345 996 z "},"ë":{"ha":632,"x_min":45,"x_max":600,"o":"m 586 52 l 544 146 q 370 98 452 98 q 208 218 250 98 q 191 304 195 258 l 600 304 l 600 347 q 353 696 600 685 q 335 696 343 696 q 107 576 187 696 q 45 345 45 484 q 180 34 45 127 q 357 -18 256 -18 q 586 52 477 -16 m 334 586 q 452 477 429 586 q 457 411 457 446 l 194 408 q 307 583 214 560 q 334 586 320 586 m 283 875 q 232 955 283 937 q 206 959 218 959 q 134 910 152 959 q 127 875 127 894 q 179 792 127 810 q 205 788 193 788 q 277 837 258 788 q 283 875 283 854 m 548 875 q 495 955 548 939 q 469 959 481 959 q 399 910 418 959 q 393 875 393 894 q 445 792 393 810 q 469 788 457 788 q 541 837 522 788 q 548 875 548 854 z "},"ė":{"ha":632,"x_min":45,"x_max":600,"o":"m 586 52 l 544 146 q 370 98 452 98 q 208 218 250 98 q 191 304 195 258 l 600 304 l 600 347 q 353 696 600 685 q 335 696 343 696 q 107 576 187 696 q 45 345 45 484 q 180 34 45 127 q 357 -18 256 -18 q 586 52 477 -16 m 334 586 q 452 477 429 586 q 457 411 457 446 l 194 408 q 307 583 214 560 q 334 586 320 586 m 350 793 q 414 853 401 804 q 415 892 418 872 q 355 959 407 951 q 324 959 339 962 q 262 899 273 948 q 260 863 258 882 q 320 793 269 803 q 350 793 335 791 z "},"è":{"ha":632,"x_min":45,"x_max":600,"o":"m 586 52 l 544 146 q 370 98 452 98 q 208 218 250 98 q 191 304 195 258 l 600 304 l 600 347 q 353 696 600 685 q 335 696 343 696 q 107 576 187 696 q 45 345 45 484 q 180 34 45 127 q 357 -18 256 -18 q 586 52 477 -16 m 334 586 q 452 477 429 586 q 457 411 457 446 l 194 408 q 307 583 214 560 q 334 586 320 586 m 174 911 l 245 1016 l 483 845 l 426 760 l 174 911 z "},"…":{"ha":901,"x_min":66,"x_max":830,"o":"m 538 84 q 479 176 538 157 q 449 182 464 182 q 366 126 388 182 q 359 84 359 107 q 420 -12 359 7 q 448 -16 433 -16 q 530 38 507 -16 q 538 84 538 58 m 830 84 q 770 176 830 157 q 741 182 755 182 q 658 126 680 182 q 651 84 651 107 q 712 -12 651 7 q 739 -16 724 -16 q 822 38 799 -16 q 830 84 830 58 m 245 84 q 186 176 245 157 q 156 182 171 182 q 73 126 95 182 q 66 84 66 107 q 127 -12 66 7 q 155 -16 140 -16 q 237 38 214 -16 q 245 84 245 58 z "},"ē":{"ha":632,"x_min":45,"x_max":600,"o":"m 586 52 l 544 146 q 370 98 452 98 q 208 218 250 98 q 191 304 195 258 l 600 304 l 600 347 q 353 696 600 685 q 335 696 343 696 q 107 576 187 696 q 45 345 45 484 q 180 34 45 127 q 357 -18 256 -18 q 586 52 477 -16 m 334 586 q 452 477 429 586 q 457 411 457 446 l 194 408 q 307 583 214 560 q 334 586 320 586 m 155 929 l 155 819 l 521 819 l 521 929 l 155 929 z "},"—":{"ha":1356,"x_min":-1,"x_max":1358,"o":"m -1 467 l -1 343 l 1358 343 l 1358 467 l -1 467 z "},"–":{"ha":678,"x_min":-1,"x_max":680,"o":"m -1 467 l -1 343 l 680 343 l 680 467 l -1 467 z "},"ę":{"ha":628,"x_min":45,"x_max":600,"o":"m 578 -270 l 572 -175 q 522 -182 549 -182 q 444 -114 449 -172 q 547 30 445 -42 q 586 52 574 43 l 544 146 q 370 98 452 98 q 208 218 250 98 q 191 304 195 258 l 600 304 l 600 347 q 353 696 600 685 q 335 696 343 696 q 107 576 187 696 q 45 345 45 484 q 180 34 45 127 q 357 -18 256 -18 q 397 -15 372 -18 q 323 -155 324 -79 q 399 -267 323 -233 q 484 -283 437 -283 q 578 -270 529 -283 m 334 586 q 452 477 429 586 q 457 411 457 446 l 194 408 q 307 583 214 560 q 334 586 320 586 z "},"=":{"ha":766,"x_min":87,"x_max":680,"o":"m 680 401 l 680 517 l 87 517 l 87 401 l 680 401 m 680 178 l 680 293 l 87 293 l 87 178 l 680 178 z "},"℮":{"ha":962,"x_min":58,"x_max":917,"o":"m 262 117 l 262 483 l 917 483 q 757 848 917 723 q 500 933 646 933 q 152 761 275 933 q 58 457 58 631 q 184 113 58 247 q 488 -14 304 -14 q 788 85 654 -14 q 856 146 826 114 l 822 180 q 581 43 731 75 q 491 34 536 34 q 262 117 354 35 m 711 819 l 711 530 l 262 530 l 262 800 q 502 886 357 886 q 711 819 629 884 z "},"ð":{"ha":681,"x_min":39,"x_max":640,"o":"m 640 431 q 495 890 639 736 l 585 952 l 528 1027 l 419 951 q 233 1000 335 1000 q 94 978 164 1000 l 125 878 q 218 888 175 888 q 311 873 266 888 l 202 798 l 258 723 l 396 821 q 494 575 477 738 q 328 654 438 652 q 103 537 184 654 q 39 319 39 448 q 156 39 39 130 q 336 -18 231 -18 q 640 431 639 -15 m 186 319 q 266 514 186 460 q 343 538 301 538 q 486 420 450 538 q 498 320 498 376 q 415 121 498 175 q 340 99 381 99 q 205 202 244 99 q 186 319 186 254 z "},"!":{"ha":335,"x_min":77,"x_max":256,"o":"m 247 960 l 84 960 l 106 259 l 225 259 l 247 960 m 256 84 q 197 176 256 157 q 167 182 182 182 q 84 126 106 182 q 77 84 77 107 q 138 -12 77 7 q 165 -16 151 -16 q 248 38 225 -16 q 256 84 256 58 z "},"¡":{"ha":335,"x_min":79,"x_max":258,"o":"m 88 -281 l 251 -281 l 229 420 l 110 420 l 88 -281 m 79 595 q 138 503 79 522 q 168 498 153 498 q 251 553 229 498 q 258 595 258 572 q 197 692 258 673 q 170 696 183 696 q 87 642 110 696 q 79 595 79 621 z "},"f":{"ha":438,"x_min":39,"x_max":465,"o":"m 418 572 l 418 678 l 266 678 l 266 777 q 343 884 271 880 q 420 861 380 883 l 465 958 q 311 1001 384 1001 q 148 905 194 1001 q 125 793 125 856 l 125 678 l 39 678 l 39 572 l 125 572 l 125 0 l 266 0 l 266 572 l 418 572 z "},"ﬁ":{"ha":727,"x_min":38,"x_max":659,"o":"m 264 0 l 264 572 l 496 572 l 496 0 l 636 0 l 636 678 l 264 678 l 264 777 q 342 884 270 880 q 392 873 365 884 l 434 968 q 305 1001 369 1001 q 145 903 191 1001 q 123 793 123 856 l 123 678 l 38 678 l 38 572 l 123 572 l 123 0 l 264 0 m 659 876 q 601 967 659 945 q 567 972 583 972 q 486 922 509 972 q 476 876 476 901 q 534 781 476 803 q 567 776 551 776 q 651 830 628 776 q 659 876 659 852 z "},"ﬂ":{"ha":780,"x_min":38,"x_max":768,"o":"m 401 572 l 401 678 l 264 678 l 264 777 q 342 884 270 880 q 392 873 365 884 l 434 968 q 305 1001 369 1001 q 145 903 191 1001 q 123 793 123 856 l 123 678 l 38 678 l 38 572 l 123 572 l 123 0 l 264 0 l 264 572 l 401 572 m 768 0 l 741 106 q 696 98 716 98 q 640 174 643 109 l 640 983 l 499 983 l 499 160 q 636 -15 499 -1 q 662 -16 650 -16 q 768 0 713 -16 z "},"ƒ":{"ha":594,"x_min":-77,"x_max":590,"o":"m 256 -83 l 327 467 l 496 467 l 496 572 l 340 572 l 366 770 q 471 884 382 883 q 549 867 502 884 l 590 971 q 456 1001 522 1001 q 264 898 327 1001 q 228 787 236 849 l 201 572 l 61 572 l 61 467 l 187 467 l 118 -65 q 30 -172 102 -171 q -33 -157 -1 -171 l -77 -258 q 49 -289 -15 -289 q 227 -182 170 -289 q 256 -83 248 -138 z "},"⁄":{"ha":762,"x_min":31,"x_max":726,"o":"m 163 -15 l 31 -14 l 597 997 l 726 997 l 163 -15 z "},"g":{"ha":661,"x_min":37,"x_max":642,"o":"m 320 300 q 218 368 248 300 q 205 438 205 399 q 278 574 205 545 q 317 581 297 581 q 420 510 391 581 q 433 438 433 479 q 361 308 433 336 q 320 300 342 300 m 320 689 q 109 589 179 689 q 64 435 64 524 q 144 251 65 317 q 72 126 73 202 q 134 19 73 58 q 37 -126 38 -47 q 155 -267 37 -222 q 300 -290 218 -290 q 589 -183 502 -290 q 631 -66 631 -130 q 529 84 631 38 q 389 110 469 110 l 260 107 q 186 155 187 107 q 224 205 189 184 q 320 190 271 190 q 528 288 457 190 q 574 438 574 351 q 529 583 572 522 l 642 579 l 642 689 l 391 680 q 320 689 359 689 m 317 -179 q 171 -111 189 -179 q 168 -94 168 -102 q 225 -8 170 -46 l 244 -8 l 372 -5 q 492 -65 481 -4 q 494 -77 494 -72 q 406 -168 494 -142 q 317 -179 366 -179 z "},"ğ":{"ha":661,"x_min":37,"x_max":642,"o":"m 320 300 q 218 368 248 300 q 205 438 205 399 q 278 574 205 545 q 317 581 297 581 q 420 510 391 581 q 433 438 433 479 q 361 308 433 336 q 320 300 342 300 m 320 689 q 109 589 179 689 q 64 435 64 524 q 144 251 65 317 q 72 126 73 202 q 134 19 73 58 q 37 -126 38 -47 q 155 -267 37 -222 q 300 -290 218 -290 q 589 -183 502 -290 q 631 -66 631 -130 q 529 84 631 38 q 389 110 469 110 l 260 107 q 186 155 187 107 q 224 205 189 184 q 320 190 271 190 q 528 288 457 190 q 574 438 574 351 q 529 583 572 522 l 642 579 l 642 689 l 391 680 q 320 689 359 689 m 317 -179 q 171 -111 189 -179 q 168 -94 168 -102 q 225 -8 170 -46 l 244 -8 l 372 -5 q 492 -65 481 -4 q 494 -77 494 -72 q 406 -168 494 -142 q 317 -179 366 -179 m 126 970 q 222 800 126 852 q 317 777 266 777 q 472 850 415 777 q 510 971 510 901 l 416 975 q 351 888 411 909 q 320 883 336 883 q 233 936 260 883 q 221 979 224 956 l 126 970 z "},"ß":{"ha":798,"x_min":38,"x_max":754,"o":"m 754 197 q 644 403 754 309 q 598 439 628 416 q 515 522 529 494 q 510 548 510 536 q 564 629 510 585 q 644 708 627 684 q 677 808 677 753 q 560 971 677 918 q 415 1001 495 1001 q 187 917 271 1001 q 123 755 123 852 l 123 678 l 38 678 l 38 572 l 123 572 l 123 0 l 264 0 l 264 747 q 349 887 264 856 q 400 895 373 895 q 524 845 487 895 q 538 799 538 825 q 481 704 538 750 q 410 643 422 656 q 370 534 370 598 q 460 373 370 449 q 503 339 475 361 q 600 244 579 279 q 614 187 614 216 q 560 99 614 121 q 529 92 544 92 q 403 136 477 94 l 359 42 q 536 -18 450 -18 q 704 56 640 -18 q 754 197 754 114 z "},"`":{"ha":450,"x_min":83,"x_max":392,"o":"m 83 911 l 155 1016 l 392 845 l 335 760 l 83 911 z "},">":{"ha":594,"x_min":71,"x_max":541,"o":"m 541 343 l 170 719 l 71 632 l 368 342 l 71 43 l 174 -39 l 541 343 z "},"≥":{"ha":556,"x_min":69,"x_max":502,"o":"m 502 448 l 153 727 l 69 633 l 319 446 l 69 255 l 145 161 l 502 448 m 491 3 l 491 122 l 77 122 l 77 3 l 491 3 z "},"«":{"ha":689,"x_min":46,"x_max":621,"o":"m 336 560 l 239 631 l 46 358 l 235 84 l 334 156 l 195 359 l 336 560 m 621 560 l 524 631 l 320 358 l 519 84 l 618 156 l 469 359 l 621 560 z "},"»":{"ha":685,"x_min":46,"x_max":621,"o":"m 331 155 l 429 84 l 621 357 l 433 631 l 334 559 l 472 355 l 331 155 m 46 155 l 144 84 l 347 357 l 148 631 l 49 559 l 198 355 l 46 155 z "},"‹":{"ha":393,"x_min":37,"x_max":339,"o":"m 339 556 l 235 631 l 37 358 l 231 84 l 335 160 l 189 359 l 339 556 z "},"›":{"ha":393,"x_min":54,"x_max":357,"o":"m 54 156 l 159 81 l 357 354 l 163 628 l 58 552 l 205 353 l 54 156 z "},"h":{"ha":705,"x_min":90,"x_max":670,"o":"m 665 94 q 613 125 620 88 q 612 148 612 136 l 612 458 q 503 677 612 623 q 414 696 463 696 q 229 595 301 694 l 231 983 l 90 983 l 90 0 l 231 0 l 231 363 q 315 570 231 522 q 369 583 340 583 q 465 499 444 583 q 471 445 471 473 l 471 138 q 636 -16 471 -31 q 670 -11 654 -14 l 665 94 z "},"˝":{"ha":689,"x_min":79,"x_max":637,"o":"m 368 925 l 290 1015 l 79 831 l 138 760 l 368 925 m 637 925 l 562 1015 l 349 831 l 410 760 l 637 925 z "},"-":{"ha":446,"x_min":57,"x_max":389,"o":"m 57 420 l 57 311 l 389 311 l 389 420 l 57 420 z "},"i":{"ha":319,"x_min":69,"x_max":251,"o":"m 229 0 l 229 678 l 88 678 l 88 0 l 229 0 m 251 876 q 194 967 251 945 q 160 972 176 972 q 77 918 99 972 q 69 876 69 898 q 126 781 69 803 q 159 776 142 776 q 243 830 220 776 q 251 876 251 852 z "},"í":{"ha":319,"x_min":47,"x_max":357,"o":"m 229 0 l 229 678 l 88 678 l 88 0 l 229 0 m 357 911 l 285 1016 l 47 845 l 104 760 l 357 911 z "},"î":{"ha":319,"x_min":-24,"x_max":350,"o":"m 164 996 l -24 833 l 37 762 l 160 864 l 283 760 l 350 834 l 164 996 m 229 0 l 229 678 l 88 678 l 88 0 l 229 0 z "},"ï":{"ha":319,"x_min":-34,"x_max":351,"o":"m 122 875 q 69 955 122 939 q 45 959 57 959 q -27 910 -9 959 q -34 875 -34 894 q 20 792 -34 808 q 45 788 33 788 q 115 836 95 788 q 122 875 122 854 m 351 875 q 298 955 351 939 q 274 959 286 959 q 202 910 221 959 q 197 875 197 894 q 248 792 197 810 q 273 788 260 788 q 345 837 326 788 q 351 875 351 854 m 229 0 l 229 678 l 88 678 l 88 0 l 229 0 z "},"ì":{"ha":319,"x_min":-20,"x_max":289,"o":"m 229 0 l 229 678 l 88 678 l 88 0 l 229 0 m -20 911 l 52 1016 l 289 845 l 232 760 l -20 911 z "},"ī":{"ha":319,"x_min":1,"x_max":317,"o":"m 1 929 l 1 819 l 317 819 l 317 929 l 1 929 m 229 0 l 229 678 l 88 678 l 88 0 l 229 0 z "},"∞":{"ha":1165,"x_min":53,"x_max":1112,"o":"m 864 129 q 1070 232 1001 129 q 1112 374 1112 294 q 1028 562 1112 494 q 872 610 964 610 q 623 488 766 610 q 589 458 608 475 q 301 610 430 609 q 95 507 164 610 q 53 365 53 445 q 140 178 53 244 q 296 129 203 129 q 544 248 400 129 q 579 278 559 260 q 864 129 741 130 m 859 251 q 704 345 802 251 q 670 378 689 359 q 821 481 772 467 q 857 488 840 488 q 960 418 932 488 q 970 366 970 393 q 914 264 970 294 q 859 251 888 251 m 311 251 q 205 321 233 251 q 195 373 195 346 q 254 476 195 448 q 305 487 278 487 q 463 391 361 487 q 495 359 476 377 q 311 251 369 256 z "},"∫":{"ha":441,"x_min":19,"x_max":404,"o":"m 294 -30 q 270 684 294 68 q 267 764 269 731 q 316 899 263 868 q 350 909 332 909 q 381 903 368 909 l 404 1015 q 320 1028 361 1028 q 146 903 194 1028 q 123 768 123 845 q 146 100 123 684 q 151 -27 149 23 q 75 -172 156 -171 q 37 -165 58 -172 l 19 -279 q 98 -292 62 -292 q 269 -174 218 -292 q 294 -30 294 -113 z "},"į":{"ha":319,"x_min":-9,"x_max":247,"o":"m 172 793 q 236 853 224 804 q 237 892 240 872 q 178 959 229 951 q 146 959 161 962 q 84 899 95 948 q 83 863 80 882 q 142 793 91 803 q 172 793 157 791 m 247 -270 l 240 -175 q 191 -182 217 -182 q 113 -134 125 -182 q 111 -119 111 -126 q 229 0 114 -47 l 229 678 l 88 678 l 88 1 q -9 -152 -8 -72 q 88 -275 -9 -247 q 152 -283 118 -283 q 247 -270 195 -283 z "},"j":{"ha":327,"x_min":-91,"x_max":259,"o":"m 237 -73 l 237 678 l 96 678 l 96 -77 q 27 -175 94 -174 q -49 -151 -3 -174 l -91 -258 q 49 -290 -27 -290 q 214 -189 167 -290 q 237 -73 237 -138 m 259 876 q 199 967 259 948 q 168 972 184 972 q 84 917 104 972 q 77 876 77 898 q 136 783 77 804 q 167 777 151 777 q 250 830 227 777 q 259 876 259 852 z "},"k":{"ha":656,"x_min":91,"x_max":655,"o":"m 598 -18 q 655 -11 623 -18 l 648 92 l 631 92 q 582 129 602 95 l 438 380 l 628 678 l 487 678 l 346 449 l 232 448 l 232 983 l 91 983 l 91 0 l 232 0 l 232 334 l 326 334 l 467 77 q 557 -12 509 3 q 598 -18 576 -18 z "},"l":{"ha":361,"x_min":88,"x_max":357,"o":"m 251 -16 q 357 0 302 -16 l 330 106 q 285 98 305 98 q 229 174 231 100 l 229 983 l 88 983 l 88 160 q 225 -15 88 -1 q 251 -16 239 -16 z "},"ĺ":{"ha":361,"x_min":49,"x_max":358,"o":"m 251 -16 q 357 0 302 -16 l 330 106 q 285 98 305 98 q 229 174 231 100 l 229 983 l 88 983 l 88 160 q 225 -15 88 -1 q 251 -16 239 -16 m 358 1187 l 286 1291 l 49 1120 l 106 1035 l 358 1187 z "},"ľ":{"ha":416,"x_min":88,"x_max":448,"o":"m 251 -16 q 357 0 302 -16 l 330 106 q 285 98 305 98 q 229 174 231 100 l 229 983 l 88 983 l 88 160 q 225 -15 88 -1 q 251 -16 239 -16 m 448 864 q 392 955 448 935 q 362 960 377 960 q 289 913 311 960 q 279 871 281 892 q 330 798 279 817 q 339 793 334 795 q 282 667 331 746 q 278 661 279 663 l 327 628 q 444 830 425 728 q 448 864 448 849 z "},"<":{"ha":574,"x_min":33,"x_max":503,"o":"m 33 335 l 404 -41 l 503 46 l 206 336 l 503 635 l 400 718 l 33 335 z "},"≤":{"ha":556,"x_min":54,"x_max":487,"o":"m 479 3 l 479 122 l 65 122 l 65 3 l 479 3 m 54 439 l 403 161 l 487 254 l 236 441 l 487 632 l 410 727 l 54 439 z "},"¬":{"ha":671,"x_min":42,"x_max":616,"o":"m 616 144 l 616 420 l 42 420 l 42 305 l 479 305 l 479 144 l 616 144 z "},"◊":{"ha":735,"x_min":20,"x_max":715,"o":"m 418 -5 l 715 457 l 415 921 l 317 921 l 20 453 l 323 -5 l 418 -5 m 308 258 l 165 468 l 236 563 l 368 777 l 426 658 l 571 446 l 500 345 l 368 137 l 308 258 z "},"ł":{"ha":368,"x_min":64,"x_max":357,"o":"m 251 -16 q 357 0 302 -16 l 330 106 q 285 98 305 98 q 229 174 231 100 l 229 431 l 266 446 l 236 518 l 229 515 l 229 983 l 88 983 l 88 458 l 64 449 l 88 389 l 88 160 q 225 -15 88 -1 q 251 -16 239 -16 z "},"m":{"ha":1066,"x_min":87,"x_max":1029,"o":"m 970 461 q 869 674 970 617 q 780 696 829 696 q 601 593 671 696 q 586 567 593 579 q 441 693 547 677 q 408 696 425 696 q 236 605 305 696 q 224 586 229 595 l 221 678 l 87 678 l 87 0 l 228 0 l 228 363 q 313 571 228 524 q 366 585 339 585 q 457 498 439 585 q 463 448 463 475 l 463 0 l 604 0 l 604 363 q 690 574 604 530 q 738 585 713 585 q 823 500 806 585 q 829 448 829 476 l 829 138 q 977 -16 829 -20 q 1029 -11 1002 -16 l 1024 94 q 971 127 977 87 q 970 148 970 137 l 970 461 z "},"¯":{"ha":506,"x_min":69,"x_max":435,"o":"m 69 929 l 69 819 l 435 819 l 435 929 l 69 929 z "},"−":{"ha":728,"x_min":85,"x_max":643,"o":"m 85 296 l 643 296 l 643 420 l 85 420 l 85 296 z "},"×":{"ha":658,"x_min":83,"x_max":575,"o":"m 83 522 l 245 359 l 84 198 l 167 117 l 328 277 l 490 115 l 575 199 l 412 362 l 574 522 l 491 605 l 331 445 l 168 606 l 83 522 z "},"n":{"ha":703,"x_min":87,"x_max":667,"o":"m 662 94 q 610 127 616 87 q 609 148 609 137 l 609 461 q 500 677 609 624 q 411 696 460 696 q 225 585 292 694 l 222 678 l 87 678 l 87 0 l 228 0 l 228 359 q 313 568 228 519 q 369 583 340 583 q 463 496 444 583 q 468 446 468 473 l 468 138 q 609 -16 471 -15 q 667 -9 635 -16 l 662 94 z "},"ń":{"ha":703,"x_min":87,"x_max":667,"o":"m 662 94 q 610 127 616 87 q 609 148 609 137 l 609 461 q 500 677 609 624 q 411 696 460 696 q 225 585 292 694 l 222 678 l 87 678 l 87 0 l 228 0 l 228 359 q 313 568 228 519 q 369 583 340 583 q 463 496 444 583 q 468 446 468 473 l 468 138 q 609 -16 471 -15 q 667 -9 635 -16 l 662 94 m 557 911 l 486 1016 l 248 845 l 305 760 l 557 911 z "},"ň":{"ha":703,"x_min":87,"x_max":667,"o":"m 662 94 q 610 127 616 87 q 609 148 609 137 l 609 461 q 500 677 609 624 q 411 696 460 696 q 225 585 292 694 l 222 678 l 87 678 l 87 0 l 228 0 l 228 359 q 313 568 228 519 q 369 583 340 583 q 463 496 444 583 q 468 446 468 473 l 468 138 q 609 -16 471 -15 q 667 -9 635 -16 l 662 94 m 351 758 l 560 925 l 503 996 l 355 887 l 205 998 l 144 924 l 351 758 z "},"≠":{"ha":766,"x_min":87,"x_max":680,"o":"m 680 178 l 680 293 l 427 293 l 467 401 l 680 401 l 680 517 l 507 517 l 560 662 l 433 662 l 380 517 l 87 517 l 87 401 l 338 401 l 298 293 l 87 293 l 87 178 l 258 178 l 203 30 l 332 30 l 385 178 l 680 178 z "},"ñ":{"ha":703,"x_min":87,"x_max":667,"o":"m 662 94 q 610 127 616 87 q 609 148 609 137 l 609 461 q 500 677 609 624 q 411 696 460 696 q 225 585 292 694 l 222 678 l 87 678 l 87 0 l 228 0 l 228 359 q 313 568 228 519 q 369 583 340 583 q 463 496 444 583 q 468 446 468 473 l 468 138 q 609 -16 471 -15 q 667 -9 635 -16 l 662 94 m 438 901 q 349 930 411 901 q 269 954 301 952 q 122 878 199 952 l 182 810 q 271 848 231 848 q 366 818 300 848 q 450 795 416 795 q 587 875 525 796 l 528 940 q 438 901 490 902 z "},"#":{"ha":887,"x_min":27,"x_max":860,"o":"m 365 916 l 297 682 l 118 682 l 118 583 l 269 583 l 202 355 l 27 355 l 27 256 l 174 256 l 99 0 l 218 0 l 293 256 l 471 258 l 396 0 l 515 0 l 590 258 l 768 258 l 768 355 l 617 355 l 684 583 l 860 583 l 860 682 l 712 682 l 779 916 l 661 916 l 593 682 l 415 682 l 483 916 l 365 916 m 499 355 l 321 355 l 387 583 l 564 583 l 499 355 z "},"o":{"ha":681,"x_min":43,"x_max":637,"o":"m 340 98 q 202 222 237 98 q 189 339 189 274 q 279 564 189 514 q 343 581 309 581 q 481 448 449 581 q 494 336 494 399 q 399 110 494 156 q 340 98 372 98 m 346 696 q 91 549 171 696 q 43 336 43 460 q 178 24 43 111 q 335 -18 244 -18 q 598 140 522 -18 q 637 339 637 224 q 498 658 637 574 q 346 696 433 696 z "},"ó":{"ha":681,"x_min":43,"x_max":637,"o":"m 340 98 q 202 222 237 98 q 189 339 189 274 q 279 564 189 514 q 343 581 309 581 q 481 448 449 581 q 494 336 494 399 q 399 110 494 156 q 340 98 372 98 m 346 696 q 91 549 171 696 q 43 336 43 460 q 178 24 43 111 q 335 -18 244 -18 q 598 140 522 -18 q 637 339 637 224 q 498 658 637 574 q 346 696 433 696 m 548 911 l 476 1016 l 239 845 l 296 760 l 548 911 z "},"ô":{"ha":681,"x_min":43,"x_max":637,"o":"m 340 98 q 202 222 237 98 q 189 339 189 274 q 279 564 189 514 q 343 581 309 581 q 481 448 449 581 q 494 336 494 399 q 399 110 494 156 q 340 98 372 98 m 346 696 q 91 549 171 696 q 43 336 43 460 q 178 24 43 111 q 335 -18 244 -18 q 598 140 522 -18 q 637 339 637 224 q 498 658 637 574 q 346 696 433 696 m 350 996 l 141 834 l 199 762 l 346 864 l 494 760 l 556 836 l 350 996 z "},"ö":{"ha":681,"x_min":43,"x_max":637,"o":"m 340 98 q 202 222 237 98 q 189 339 189 274 q 279 564 189 514 q 343 581 309 581 q 481 448 449 581 q 494 336 494 399 q 399 110 494 156 q 340 98 372 98 m 346 696 q 91 549 171 696 q 43 336 43 460 q 178 24 43 111 q 335 -18 244 -18 q 598 140 522 -18 q 637 339 637 224 q 498 658 637 574 q 346 696 433 696 m 289 875 q 237 955 289 937 q 212 959 224 959 q 140 910 157 959 q 133 875 133 894 q 184 792 133 810 q 210 788 198 788 q 282 837 263 788 q 289 875 289 854 m 553 875 q 500 955 553 939 q 475 959 487 959 q 404 910 423 959 q 399 875 399 894 q 450 792 399 810 q 475 788 463 788 q 547 837 528 788 q 553 875 553 854 z "},"œ":{"ha":1081,"x_min":43,"x_max":1048,"o":"m 1035 52 l 993 146 q 819 98 901 98 q 656 218 699 98 q 640 304 644 258 l 1048 304 l 1048 347 q 789 696 1046 694 q 576 589 654 696 q 568 576 572 582 q 346 696 494 694 q 91 549 171 696 q 43 336 43 460 q 178 24 43 111 q 335 -18 244 -18 q 568 111 492 -16 q 807 -18 650 -16 q 1035 52 924 -16 m 783 586 q 901 477 878 586 q 906 411 906 446 l 643 408 q 755 583 663 560 q 783 586 769 586 m 189 339 q 279 564 189 514 q 343 581 309 581 q 481 448 449 581 q 494 336 494 399 q 399 110 494 156 q 340 98 372 98 q 202 222 237 98 q 189 339 189 274 z "},"˛":{"ha":376,"x_min":68,"x_max":324,"o":"m 324 -270 l 317 -175 q 269 -182 294 -182 q 190 -134 202 -182 q 189 -119 189 -126 q 307 0 191 -47 l 167 3 q 68 -152 69 -72 q 165 -275 68 -247 q 229 -283 195 -283 q 324 -270 273 -283 z "},"ò":{"ha":681,"x_min":43,"x_max":637,"o":"m 340 98 q 202 222 237 98 q 189 339 189 274 q 279 564 189 514 q 343 581 309 581 q 481 448 449 581 q 494 336 494 399 q 399 110 494 156 q 340 98 372 98 m 346 696 q 91 549 171 696 q 43 336 43 460 q 178 24 43 111 q 335 -18 244 -18 q 598 140 522 -18 q 637 339 637 224 q 498 658 637 574 q 346 696 433 696 m 179 911 l 251 1016 l 488 845 l 431 760 l 179 911 z "},"ő":{"ha":681,"x_min":43,"x_max":696,"o":"m 340 98 q 202 222 237 98 q 189 339 189 274 q 279 564 189 514 q 343 581 309 581 q 481 448 449 581 q 494 336 494 399 q 399 110 494 156 q 340 98 372 98 m 346 696 q 91 549 171 696 q 43 336 43 460 q 178 24 43 111 q 335 -18 244 -18 q 598 140 522 -18 q 637 339 637 224 q 498 658 637 574 q 346 696 433 696 m 426 925 l 349 1015 l 137 831 l 197 760 l 426 925 m 696 925 l 620 1015 l 407 831 l 468 760 l 696 925 z "},"ō":{"ha":681,"x_min":43,"x_max":637,"o":"m 340 98 q 202 222 237 98 q 189 339 189 274 q 279 564 189 514 q 343 581 309 581 q 481 448 449 581 q 494 336 494 399 q 399 110 494 156 q 340 98 372 98 m 346 696 q 91 549 171 696 q 43 336 43 460 q 178 24 43 111 q 335 -18 244 -18 q 598 140 522 -18 q 637 339 637 224 q 498 658 637 574 q 346 696 433 696 m 160 929 l 160 819 l 526 819 l 526 929 l 160 929 z "},"½":{"ha":1156,"x_min":14,"x_max":1120,"o":"m 347 -15 l 910 997 l 781 997 l 216 -14 l 347 -15 m 1120 0 l 1120 106 l 917 106 l 959 155 q 998 198 971 170 q 1100 335 1081 283 q 1111 392 1111 363 q 1023 540 1111 491 q 917 567 974 567 q 731 471 798 567 q 724 460 727 464 l 807 410 q 901 467 845 465 q 982 418 963 467 q 987 388 987 403 q 922 267 987 339 q 894 236 913 256 q 869 209 878 217 l 736 61 l 736 0 l 1120 0 m 52 746 l 168 793 l 168 463 l 58 463 l 58 366 l 372 366 l 372 463 l 289 463 l 289 916 l 182 916 l 14 844 l 52 746 z "},"¼":{"ha":1150,"x_min":14,"x_max":1123,"o":"m 1055 1 l 1055 109 l 1123 109 l 1123 208 l 1055 208 l 1055 553 l 905 553 l 673 187 l 685 109 l 933 109 l 933 1 l 1055 1 m 347 -15 l 910 997 l 781 997 l 216 -14 l 347 -15 m 52 746 l 168 793 l 168 463 l 58 463 l 58 366 l 372 366 l 372 463 l 289 463 l 289 916 l 182 916 l 14 844 l 52 746 m 933 208 l 798 208 l 933 431 l 933 208 z "},"¹":{"ha":450,"x_min":39,"x_max":397,"o":"m 77 746 l 194 793 l 194 463 l 84 463 l 84 366 l 397 366 l 397 463 l 315 463 l 315 916 l 208 916 l 39 844 l 77 746 z "},"ª":{"ha":465,"x_min":24,"x_max":450,"o":"m 400 408 q 450 412 433 408 l 446 500 l 433 500 q 399 553 400 503 l 399 764 q 296 922 399 888 q 227 933 263 933 q 35 879 132 932 l 76 795 q 203 834 148 834 q 278 776 267 834 q 279 758 279 766 l 279 720 q 239 722 263 722 q 38 628 83 722 q 24 563 24 598 q 106 423 24 461 q 178 408 138 408 q 298 472 255 408 q 305 483 302 477 q 400 408 323 410 m 202 503 q 146 552 155 503 q 145 568 145 560 q 209 642 145 629 q 239 644 224 644 q 279 643 267 644 l 279 606 q 221 506 279 521 q 202 503 212 503 z "},"º":{"ha":529,"x_min":39,"x_max":490,"o":"m 264 503 q 171 598 193 503 q 164 670 164 631 q 231 827 164 796 q 266 836 247 836 q 358 739 338 836 q 365 669 365 707 q 294 509 365 536 q 264 503 279 503 m 269 933 q 64 804 119 933 q 39 669 39 745 q 167 425 39 477 q 260 407 209 407 q 471 549 422 407 q 490 670 490 604 q 359 917 490 865 q 269 933 319 933 z "},"ø":{"ha":681,"x_min":43,"x_max":637,"o":"m 458 808 l 415 689 q 346 696 378 696 q 91 549 171 696 q 43 336 43 460 q 176 26 45 113 l 137 -84 l 224 -111 l 260 -9 q 335 -18 296 -18 q 598 140 522 -18 q 637 339 637 224 q 499 656 636 571 l 544 780 l 458 808 m 189 339 q 279 564 189 514 q 343 581 309 581 q 376 576 359 581 l 227 164 q 189 339 189 231 m 340 98 q 301 103 317 98 l 452 521 q 494 336 494 457 q 399 110 494 156 q 340 98 372 98 z "},"õ":{"ha":681,"x_min":43,"x_max":637,"o":"m 340 98 q 202 222 237 98 q 189 339 189 274 q 279 564 189 514 q 343 581 309 581 q 481 448 449 581 q 494 336 494 399 q 399 110 494 156 q 340 98 372 98 m 346 696 q 91 549 171 696 q 43 336 43 460 q 178 24 43 111 q 335 -18 244 -18 q 598 140 522 -18 q 637 339 637 224 q 498 658 637 574 q 346 696 433 696 m 429 901 q 339 930 401 901 q 259 954 292 952 q 113 878 190 952 l 172 810 q 262 848 221 848 q 357 818 290 848 q 441 795 407 795 q 578 875 515 796 l 518 940 q 429 901 480 902 z "},"p":{"ha":688,"x_min":91,"x_max":643,"o":"m 332 98 q 233 121 281 98 l 233 389 q 311 567 233 522 q 365 582 335 582 q 476 496 439 582 q 498 372 498 444 q 393 111 498 161 q 332 98 365 98 m 232 -273 l 232 -4 q 335 -18 289 -18 q 587 129 505 -18 q 643 373 643 228 q 534 648 643 563 q 399 696 475 696 q 227 601 292 694 l 222 678 l 92 678 l 91 -273 l 232 -273 z "},"¶":{"ha":726,"x_min":28,"x_max":629,"o":"m 407 0 l 407 916 l 266 916 q 56 807 115 913 q 28 700 28 758 q 132 515 28 575 q 273 479 191 483 l 273 0 l 407 0 m 629 0 l 629 916 l 495 916 l 495 0 l 629 0 z "},"(":{"ha":416,"x_min":103,"x_max":396,"o":"m 237 403 q 395 990 239 726 l 285 1046 q 103 397 103 749 q 283 -247 104 50 l 396 -189 q 237 403 237 79 z "},")":{"ha":412,"x_min":19,"x_max":312,"o":"m 178 410 q 20 -178 176 87 l 130 -233 q 312 415 312 64 q 132 1059 311 762 l 19 1001 q 178 410 178 734 z "},"∂":{"ha":711,"x_min":60,"x_max":656,"o":"m 656 460 q 328 983 655 845 l 273 878 q 519 514 517 764 q 340 600 452 600 q 115 471 195 600 q 60 271 60 381 q 156 39 60 119 q 323 -18 225 -18 q 598 167 509 -18 q 656 460 656 290 m 205 281 q 298 471 205 430 q 355 483 326 483 q 479 397 445 483 q 494 308 494 358 q 401 117 494 161 q 340 103 373 103 q 220 191 252 103 q 205 281 205 231 z "},"%":{"ha":1185,"x_min":31,"x_max":1154,"o":"m 271 551 q 161 650 187 551 q 152 728 152 685 q 239 897 152 871 q 273 902 255 902 q 384 789 363 902 q 389 727 389 760 q 316 562 389 598 q 271 551 294 551 m 275 998 q 65 878 127 998 q 31 727 31 814 q 149 486 31 549 q 270 457 201 457 q 473 574 410 457 q 510 730 510 642 q 385 975 510 916 q 275 998 336 998 m 914 76 q 807 171 834 76 q 796 255 796 209 q 878 423 796 395 q 916 430 897 430 q 1027 316 1005 430 q 1032 252 1032 286 q 959 85 1032 122 q 914 76 937 76 m 918 524 q 707 401 769 524 q 674 252 674 338 q 788 14 674 79 q 913 -18 842 -18 q 1116 96 1050 -18 q 1154 255 1154 164 q 1024 503 1154 446 q 918 524 977 524 m 374 -15 l 243 -14 l 808 997 l 937 997 l 374 -15 z "},".":{"ha":312,"x_min":66,"x_max":245,"o":"m 245 84 q 186 176 245 157 q 156 182 171 182 q 73 126 95 182 q 66 84 66 107 q 127 -12 66 7 q 155 -16 140 -16 q 237 38 214 -16 q 245 84 245 58 z "},"·":{"ha":328,"x_min":64,"x_max":264,"o":"m 164 266 q 252 320 225 266 q 264 377 264 346 q 202 477 264 453 q 164 486 183 486 q 76 433 103 486 q 64 377 64 407 q 126 273 64 298 q 164 266 145 266 z "},"‰":{"ha":1725,"x_min":31,"x_max":1702,"o":"m 1462 77 q 1354 170 1382 77 q 1343 255 1343 208 q 1427 425 1343 396 q 1463 430 1444 430 q 1575 319 1553 430 q 1580 254 1580 289 q 1507 88 1580 125 q 1462 77 1485 77 m 1466 524 q 1255 403 1317 524 q 1222 254 1222 339 q 1340 12 1222 76 q 1461 -16 1392 -16 q 1664 99 1599 -16 q 1702 256 1702 167 q 1577 500 1702 441 q 1466 524 1529 524 m 271 551 q 161 650 187 551 q 152 728 152 685 q 239 897 152 871 q 273 902 255 902 q 384 789 363 902 q 389 727 389 760 q 316 562 389 598 q 271 551 294 551 m 275 998 q 65 878 127 998 q 31 727 31 814 q 149 486 31 549 q 270 457 201 457 q 473 574 410 457 q 510 730 510 642 q 385 975 510 916 q 275 998 336 998 m 914 76 q 807 171 834 76 q 796 255 796 209 q 878 423 796 395 q 916 430 897 430 q 1027 316 1005 430 q 1032 252 1032 286 q 959 85 1032 122 q 914 76 937 76 m 918 524 q 707 401 769 524 q 674 252 674 338 q 788 14 674 79 q 913 -18 842 -18 q 1116 96 1050 -18 q 1154 255 1154 164 q 1024 503 1154 446 q 918 524 977 524 m 374 -15 l 243 -14 l 808 997 l 937 997 l 374 -15 z "},"π":{"ha":779,"x_min":35,"x_max":773,"o":"m 743 572 l 743 678 l 35 678 l 35 572 l 133 572 l 133 0 l 274 0 l 273 572 l 505 572 l 505 160 q 632 -14 505 7 q 667 -16 650 -16 q 773 0 719 -16 l 746 106 q 701 98 722 98 q 646 174 647 100 l 646 572 l 743 572 z "},"+":{"ha":654,"x_min":35,"x_max":618,"o":"m 618 296 l 618 414 l 396 414 l 396 631 l 259 631 l 259 414 l 35 414 l 35 296 l 259 296 l 259 79 l 396 79 l 396 296 l 618 296 z "},"±":{"ha":666,"x_min":49,"x_max":617,"o":"m 617 3 l 617 122 l 49 122 l 49 3 l 617 3 m 617 385 l 617 503 l 401 503 l 401 696 l 266 696 l 266 503 l 49 503 l 49 385 l 266 385 l 266 194 l 401 194 l 401 385 l 617 385 z "},"∏":{"ha":898,"x_min":90,"x_max":692,"o":"m 90 582 l 288 582 l 289 817 l 198 796 l 90 802 l 90 582 m 412 -237 l 429 495 l 423 582 l 563 582 l 563 99 l 648 99 l 648 582 l 692 582 l 692 802 l 648 799 l 648 817 l 628 799 l 600 796 l 586 798 l 563 817 l 563 798 l 410 802 l 423 582 l 288 582 l 285 88 l 412 -237 z "},"q":{"ha":680,"x_min":42,"x_max":594,"o":"m 42 305 q 151 27 42 113 q 286 -18 210 -18 q 449 66 389 -16 l 452 -305 l 593 -305 l 594 636 q 349 696 475 696 q 102 555 184 696 q 42 305 42 453 m 453 556 l 452 285 q 365 104 452 140 q 320 96 343 96 q 206 190 240 96 q 187 307 187 240 q 286 564 187 510 q 351 581 316 581 q 453 556 399 581 z "},"?":{"ha":633,"x_min":15,"x_max":552,"o":"m 262 247 q 258 289 258 266 q 346 456 258 378 q 397 496 362 469 q 517 613 487 566 q 552 739 552 670 q 435 956 552 882 q 275 1001 363 1001 q 61 906 142 1001 q 15 826 31 871 l 138 781 q 250 879 167 867 q 270 880 260 880 q 385 818 345 880 q 410 734 410 781 q 334 601 410 662 q 290 568 320 590 q 170 454 202 503 q 123 290 123 384 q 129 239 123 278 l 262 247 m 301 84 q 241 176 301 157 q 212 182 227 182 q 129 126 151 182 q 122 84 122 107 q 183 -12 122 7 q 210 -16 195 -16 q 293 38 270 -16 q 301 84 301 58 z "},"¿":{"ha":633,"x_min":81,"x_max":618,"o":"m 372 434 q 376 392 376 415 q 288 225 376 302 q 236 184 271 212 q 117 68 146 115 q 81 -58 81 11 q 198 -275 81 -201 q 358 -320 270 -320 q 572 -225 491 -320 q 618 -145 602 -190 l 495 -100 q 384 -198 467 -186 q 363 -199 373 -199 q 248 -137 289 -199 q 224 -53 224 -100 q 300 80 224 19 q 343 113 313 91 q 464 227 431 178 q 510 391 510 297 q 505 442 510 403 l 372 434 m 332 597 q 392 505 332 524 q 422 499 407 499 q 505 555 483 499 q 511 597 511 574 q 450 693 511 674 q 423 697 438 697 q 340 643 363 697 q 332 597 332 623 z "},"\"":{"ha":448,"x_min":49,"x_max":400,"o":"m 187 998 l 49 998 l 71 678 l 165 678 l 187 998 m 400 998 l 262 998 l 283 678 l 378 678 l 400 998 z "},"„":{"ha":522,"x_min":47,"x_max":464,"o":"m 463 79 q 401 180 463 157 q 368 186 384 186 q 285 136 311 186 q 274 85 274 113 q 281 49 274 66 q 304 18 289 31 q 340 -1 319 4 q 277 -142 331 -53 q 271 -152 274 -148 l 327 -189 q 397 -100 366 -146 q 445 -6 427 -53 q 463 79 463 41 m 239 79 q 178 180 239 157 q 144 186 160 186 q 61 136 87 186 q 50 85 50 113 q 103 4 50 26 q 117 -1 110 1 q 53 -142 107 -53 q 47 -152 50 -148 l 103 -189 q 233 35 209 -79 q 239 79 239 58 z "},"“":{"ha":511,"x_min":57,"x_max":475,"o":"m 58 741 q 119 639 58 662 q 153 633 137 633 q 236 684 210 633 q 247 734 247 707 q 194 815 247 793 q 180 821 187 818 q 244 962 190 872 q 250 971 247 967 l 194 1008 q 64 784 88 898 q 58 741 58 761 m 283 741 q 345 639 283 662 q 378 633 362 633 q 461 684 435 633 q 472 734 472 705 q 419 815 472 793 q 406 821 412 818 q 469 962 415 872 q 475 971 472 967 l 419 1008 q 289 784 313 898 q 283 741 283 761 z "},"”":{"ha":532,"x_min":60,"x_max":476,"o":"m 475 878 q 414 979 475 956 q 380 985 396 985 q 297 935 323 985 q 286 884 286 913 q 339 803 286 825 q 353 798 346 800 q 289 656 343 746 q 283 647 286 651 l 339 610 q 469 834 445 720 q 475 878 475 857 m 251 878 q 190 979 251 956 q 156 985 172 985 q 73 935 99 985 q 62 884 62 911 q 115 803 62 825 q 129 798 122 800 q 65 656 119 746 q 60 647 62 651 l 115 610 q 245 834 221 720 q 251 878 251 857 z "},"‘":{"ha":278,"x_min":57,"x_max":250,"o":"m 58 741 q 119 639 58 662 q 153 633 137 633 q 236 684 210 633 q 247 734 247 707 q 194 815 247 793 q 180 821 187 818 q 244 962 190 872 q 250 971 247 967 l 194 1008 q 64 784 88 898 q 58 741 58 761 z "},"’":{"ha":285,"x_min":39,"x_max":232,"o":"m 231 878 q 170 979 231 956 q 136 985 152 985 q 53 935 79 985 q 42 884 42 911 q 95 803 42 825 q 109 798 102 800 q 45 656 99 746 q 39 647 42 651 l 95 610 q 225 834 201 720 q 231 878 231 857 z "},"‚":{"ha":297,"x_min":46,"x_max":239,"o":"m 237 79 q 176 180 237 157 q 142 186 159 186 q 60 136 85 186 q 49 85 49 113 q 102 4 49 26 q 115 -1 109 1 q 52 -142 106 -53 q 46 -152 49 -148 l 102 -189 q 232 35 208 -79 q 237 79 237 58 z "},"'":{"ha":225,"x_min":43,"x_max":182,"o":"m 182 998 l 43 998 l 65 678 l 160 678 l 182 998 z "},"r":{"ha":439,"x_min":88,"x_max":442,"o":"m 229 0 l 229 362 q 305 547 229 498 q 368 564 334 564 q 427 552 396 564 l 442 692 q 406 696 423 696 q 225 566 281 694 l 220 684 l 88 684 l 88 0 l 229 0 z "},"ŕ":{"ha":439,"x_min":88,"x_max":442,"o":"m 229 0 l 229 362 q 305 547 229 498 q 368 564 334 564 q 427 552 396 564 l 442 692 q 406 696 423 696 q 225 566 281 694 l 220 684 l 88 684 l 88 0 l 229 0 m 400 911 l 328 1016 l 91 845 l 148 760 l 400 911 z "},"√":{"ha":887,"x_min":0,"x_max":887,"o":"m 460 -163 l 727 888 l 887 888 l 887 1004 l 618 1004 l 391 37 l 218 547 l 0 472 l 34 361 l 127 395 l 326 -163 l 460 -163 z "},"ř":{"ha":448,"x_min":33,"x_max":449,"o":"m 229 0 l 229 362 q 305 547 229 498 q 368 564 334 564 q 427 552 396 564 l 442 692 q 406 696 423 696 q 225 566 281 694 l 220 684 l 88 684 l 88 0 l 229 0 m 240 758 l 449 925 l 392 996 l 244 887 l 94 998 l 33 924 l 240 758 z "},"®":{"ha":1048,"x_min":50,"x_max":997,"o":"m 452 171 l 452 395 l 513 395 l 522 395 l 606 221 q 693 161 633 163 q 738 165 716 161 l 735 235 l 724 235 q 694 256 705 237 l 614 412 q 720 581 716 463 q 511 746 718 745 q 350 743 395 746 l 350 171 l 452 171 m 511 663 q 616 571 614 661 q 551 480 616 499 q 515 476 533 476 l 452 476 l 452 663 l 511 663 m 997 463 q 838 826 997 692 q 528 936 708 936 q 197 812 332 936 q 50 460 50 677 q 210 94 50 228 q 522 -15 342 -15 q 850 109 716 -15 q 997 463 997 244 m 168 463 q 302 768 168 661 q 524 841 397 841 q 787 727 684 841 q 880 461 879 621 q 745 152 880 258 q 528 81 651 81 q 260 197 362 81 q 168 463 168 301 z "},"˚":{"ha":538,"x_min":118,"x_max":420,"o":"m 420 883 q 339 1020 420 982 q 271 1035 307 1035 q 144 971 189 1035 q 118 880 118 932 q 201 739 118 777 q 266 724 232 724 q 395 791 350 724 q 420 883 420 830 m 205 880 q 250 951 205 936 q 269 954 259 954 q 328 911 313 954 q 334 880 334 897 q 288 810 334 825 q 269 807 278 807 q 210 849 225 807 q 205 880 205 864 z "},"s":{"ha":538,"x_min":33,"x_max":494,"o":"m 491 193 q 381 365 491 301 q 313 397 359 377 q 209 465 229 437 q 195 507 195 486 q 254 585 195 567 q 286 589 270 589 q 395 534 357 589 q 401 524 399 528 l 494 578 q 323 693 446 677 q 283 696 302 696 q 104 625 172 696 q 56 505 56 574 q 165 328 56 392 q 233 294 187 316 q 338 227 317 256 q 351 183 351 206 q 285 96 351 115 q 248 92 267 92 q 85 145 163 94 l 33 60 q 254 -18 132 -18 q 448 64 380 -18 q 491 193 491 118 z "},"ś":{"ha":538,"x_min":33,"x_max":494,"o":"m 491 193 q 381 365 491 301 q 313 397 359 377 q 209 465 229 437 q 195 507 195 486 q 254 585 195 567 q 286 589 270 589 q 395 534 357 589 q 401 524 399 528 l 494 578 q 323 693 446 677 q 283 696 302 696 q 104 625 172 696 q 56 505 56 574 q 165 328 56 392 q 233 294 187 316 q 338 227 317 256 q 351 183 351 206 q 285 96 351 115 q 248 92 267 92 q 85 145 163 94 l 33 60 q 254 -18 132 -18 q 448 64 380 -18 q 491 193 491 118 m 464 911 l 392 1016 l 155 845 l 212 760 l 464 911 z "},"š":{"ha":557,"x_min":33,"x_max":510,"o":"m 491 193 q 381 365 491 301 q 313 397 359 377 q 209 465 229 437 q 195 507 195 486 q 254 585 195 567 q 286 589 270 589 q 395 534 357 589 q 401 524 399 528 l 494 578 q 323 693 446 677 q 283 696 302 696 q 104 625 172 696 q 56 505 56 574 q 165 328 56 392 q 233 294 187 316 q 338 227 317 256 q 351 183 351 206 q 285 96 351 115 q 248 92 267 92 q 85 145 163 94 l 33 60 q 254 -18 132 -18 q 448 64 380 -18 q 491 193 491 118 m 301 758 l 510 925 l 453 996 l 305 887 l 155 998 l 94 924 l 301 758 z "},"§":{"ha":545,"x_min":46,"x_max":499,"o":"m 182 483 q 197 534 183 511 q 236 506 210 525 q 343 410 320 445 q 361 346 361 378 q 349 297 361 319 q 307 328 335 308 q 198 425 221 388 q 182 483 182 453 m 499 374 q 387 570 499 481 q 328 612 368 585 q 225 703 244 670 q 213 745 213 724 q 274 822 213 806 q 307 826 290 826 q 391 793 358 821 l 463 875 q 298 932 392 932 q 119 860 186 932 q 73 741 73 810 q 122 604 75 666 q 46 460 47 552 q 156 264 46 351 q 214 222 175 250 q 316 133 296 165 q 328 88 328 110 q 256 1 327 18 q 225 -1 241 -1 q 99 31 164 -1 l 60 -64 q 232 -113 148 -113 q 426 -30 359 -113 q 468 99 468 24 q 429 220 467 165 q 499 374 498 278 z "},";":{"ha":313,"x_min":60,"x_max":241,"o":"m 241 83 q 183 178 241 159 q 151 183 167 183 q 69 130 94 183 q 61 90 61 110 q 110 9 61 31 q 125 4 118 5 q 62 -137 114 -47 q 60 -141 61 -140 l 114 -175 q 241 68 232 -49 q 241 83 241 76 m 241 444 q 182 536 241 517 q 152 541 167 541 q 69 486 91 541 q 62 444 62 467 q 123 347 62 366 q 151 343 136 343 q 233 397 210 343 q 241 444 241 418 z "},"අ":{"ha":754,"x_min":34,"x_max":716,"o":"m 549 503 q 525 506 540 503 q 600 688 534 647 q 601 669 598 681 q 610 624 602 655 q 621 564 621 582 q 549 503 618 505 m 410 -278 l 524 -278 l 524 30 q 709 152 631 71 l 635 241 q 559 178 583 193 q 524 159 541 167 l 524 416 q 574 410 544 410 q 708 496 680 410 q 716 547 716 521 q 697 661 716 570 q 692 708 692 690 q 712 758 693 743 l 667 827 q 498 739 581 823 q 483 722 490 730 q 324 807 429 806 q 170 724 218 807 q 145 628 145 681 q 175 530 146 574 q 39 349 65 468 q 34 293 34 320 q 155 56 34 134 q 361 1 239 1 q 408 4 380 1 l 410 -278 m 248 623 q 296 693 248 677 q 324 699 311 699 q 403 640 384 699 q 410 598 410 620 q 406 564 410 594 q 321 567 351 567 q 269 563 293 567 q 248 623 248 587 m 361 123 q 172 222 216 123 q 157 293 157 255 q 225 423 157 374 q 321 453 269 453 l 406 453 l 408 126 q 361 123 378 123 z "},"ආ":{"ha":1086,"x_min":34,"x_max":1072,"o":"m 549 496 q 525 500 540 496 q 600 681 534 640 q 601 662 600 669 q 610 617 602 648 q 621 557 621 575 q 549 496 618 498 m 410 -285 l 524 -285 l 524 23 q 709 145 631 64 l 635 235 q 559 171 583 186 q 524 152 541 160 l 524 410 q 574 403 544 403 q 708 490 680 403 q 716 540 716 514 q 697 654 716 563 q 692 701 692 684 q 712 751 693 736 l 667 821 q 498 732 581 817 q 483 715 490 723 q 324 800 429 799 q 170 718 218 800 q 145 621 145 674 q 175 524 146 567 q 39 342 65 461 q 34 286 34 313 q 155 49 34 127 q 361 -5 239 -5 q 408 -3 380 -5 l 410 -285 m 248 616 q 296 686 248 670 q 324 692 311 692 q 403 633 384 692 q 410 591 410 613 q 406 557 410 587 q 321 560 351 560 q 269 556 293 560 q 248 616 248 581 m 361 117 q 172 216 216 117 q 157 286 157 248 q 225 416 157 368 q 321 446 269 446 l 406 446 l 408 119 q 361 117 378 117 m 774 722 l 800 613 q 844 627 821 627 q 947 378 947 624 q 844 130 945 132 q 800 144 821 132 l 774 34 q 853 8 803 8 q 1028 133 968 8 q 1072 378 1072 228 q 943 724 1072 646 q 853 749 901 749 q 774 722 802 747 z "},"ඈ":{"ha":1172,"x_min":34,"x_max":1143,"o":"m 549 503 q 525 506 540 503 q 600 688 534 647 q 601 669 598 681 q 610 624 602 655 q 621 564 621 582 q 549 503 618 505 m 410 -278 l 524 -278 l 524 30 q 709 152 631 71 l 635 241 q 559 178 583 193 q 524 159 541 167 l 524 416 q 574 410 544 410 q 708 496 680 410 q 716 547 716 521 q 697 661 716 570 q 692 708 692 690 q 712 758 693 743 l 667 827 q 498 739 581 823 q 483 722 490 730 q 324 807 429 806 q 170 724 218 807 q 145 628 145 681 q 175 530 146 574 q 39 349 65 468 q 34 293 34 320 q 155 56 34 134 q 361 1 239 1 q 408 4 380 1 l 410 -278 m 248 623 q 296 693 248 677 q 324 699 311 699 q 403 640 384 699 q 410 598 410 620 q 406 564 410 594 q 321 567 351 567 q 269 563 293 567 q 248 623 248 587 m 361 123 q 172 222 216 123 q 157 293 157 255 q 225 423 157 374 q 321 453 269 453 l 406 453 l 408 126 q 361 123 378 123 m 746 213 q 829 33 746 88 q 944 1 878 1 q 1137 165 1103 1 q 1143 241 1143 202 l 1036 241 q 967 118 1036 136 q 943 115 956 115 q 857 213 863 127 q 951 374 857 313 q 1044 407 1001 407 l 1065 407 l 1065 506 l 902 506 l 1065 633 l 1065 739 l 766 739 l 766 629 l 905 629 l 766 506 l 766 407 l 836 407 q 746 213 747 326 z "},"ඇ":{"ha":1160,"x_min":34,"x_max":1137,"o":"m 549 503 q 525 506 540 503 q 600 688 534 647 q 601 669 598 681 q 610 624 602 655 q 621 564 621 582 q 549 503 618 505 m 410 -278 l 524 -278 l 524 30 q 709 152 631 71 l 635 241 q 559 178 583 193 q 524 159 541 167 l 524 416 q 574 410 544 410 q 708 496 680 410 q 716 547 716 521 q 697 661 716 570 q 692 708 692 690 q 712 758 693 743 l 667 827 q 498 739 581 823 q 483 722 490 730 q 324 807 429 806 q 170 724 218 807 q 145 628 145 681 q 175 530 146 574 q 39 349 65 468 q 34 293 34 320 q 155 56 34 134 q 361 1 239 1 q 408 4 380 1 l 410 -278 m 248 623 q 296 693 248 677 q 324 699 311 699 q 403 640 384 699 q 410 598 410 620 q 406 564 410 594 q 321 567 351 567 q 269 563 293 567 q 248 623 248 587 m 361 123 q 172 222 216 123 q 157 293 157 255 q 225 423 157 374 q 321 453 269 453 l 406 453 l 408 126 q 361 123 378 123 m 736 222 q 811 43 736 104 q 939 1 863 1 q 1128 163 1096 1 q 1137 241 1137 201 l 1029 241 q 968 126 1029 148 q 941 122 955 122 q 857 201 867 122 q 856 222 856 212 q 925 408 856 302 q 1089 633 945 438 l 1089 739 l 791 739 l 791 629 l 948 629 q 818 449 821 452 q 736 222 736 324 z "},"ඓ":{"ha":1306,"x_min":18,"x_max":1297,"o":"m 330 358 q 369 419 330 403 q 393 425 381 425 q 453 384 437 425 q 458 358 458 370 q 419 298 458 315 q 393 293 407 293 q 335 331 353 293 q 330 358 330 345 m 229 363 q 301 228 232 278 q 384 203 339 203 q 475 243 444 205 q 324 118 449 119 q 168 222 222 118 q 134 380 134 292 q 220 610 134 525 q 347 667 277 667 q 479 613 423 667 q 494 598 487 606 l 575 671 q 347 784 477 783 q 106 658 202 784 q 18 380 18 543 q 140 65 18 167 q 324 1 217 1 q 553 148 491 1 q 579 285 579 210 q 479 510 579 454 q 396 530 441 530 q 259 458 308 530 q 229 363 229 415 m 1103 743 q 1017 792 1039 743 q 1012 819 1012 806 q 1050 902 1013 859 q 1133 747 1108 842 q 1103 743 1107 743 m 898 817 q 975 681 898 736 q 1118 636 1039 636 q 1156 637 1143 636 q 1173 465 1173 532 q 1038 149 1173 218 q 933 126 991 126 q 749 228 789 126 q 738 288 738 258 q 802 422 738 388 q 852 434 825 434 l 1005 434 q 1013 505 1013 467 q 916 694 1013 640 q 822 718 872 718 q 680 642 722 718 q 659 559 659 604 q 662 532 659 547 l 608 532 l 608 434 l 671 434 q 618 274 618 366 q 711 69 618 145 q 933 1 793 1 q 1252 210 1164 1 q 1297 461 1297 316 q 1190 897 1297 697 q 1012 1099 1114 1036 l 951 1024 q 975 983 975 1004 q 944 930 975 970 q 898 817 898 872 m 760 555 q 822 620 769 614 q 903 556 886 620 q 907 529 906 543 l 764 530 q 760 555 760 543 z "},"ඖ":{"ha":1218,"x_min":34,"x_max":1184,"o":"m 34 342 q 224 1 35 3 q 365 96 324 1 q 374 121 370 109 q 490 5 403 23 q 526 1 507 1 q 735 218 703 1 q 745 397 745 282 q 574 958 745 829 q 355 1021 487 1021 q 138 935 228 1021 q 72 833 94 890 l 190 793 q 301 888 217 864 q 355 897 328 897 q 586 705 529 897 q 620 397 620 591 q 567 141 620 187 q 526 126 549 126 q 430 328 433 127 l 324 328 q 229 126 320 127 q 152 355 153 133 q 214 602 152 576 q 229 605 222 605 q 267 563 263 597 q 264 532 267 551 q 263 507 263 515 q 388 370 266 372 q 514 492 499 370 q 517 547 517 517 q 434 707 517 680 q 393 713 415 713 q 317 680 345 712 q 224 713 281 713 q 45 487 81 713 q 34 342 34 420 m 359 590 q 358 604 359 600 q 388 621 370 620 q 425 548 425 620 q 392 477 423 479 q 357 533 357 480 q 358 560 357 541 q 359 590 359 581 m 781 475 q 899 321 784 323 q 962 341 941 321 q 985 384 983 361 q 994 427 986 407 q 1023 446 1002 446 q 1070 324 1067 446 q 1070 301 1070 313 q 1005 109 1070 132 q 989 106 997 106 q 936 132 958 106 q 930 138 932 137 l 860 75 q 949 8 898 22 q 1004 1 975 1 q 1172 168 1134 1 q 1184 301 1184 227 q 1115 528 1184 461 q 1028 563 1078 563 q 957 541 981 563 q 932 494 933 519 q 926 446 930 468 q 909 425 922 425 q 875 491 875 427 q 947 604 875 591 q 963 605 955 605 l 963 693 q 789 563 818 693 q 781 475 781 524 z "},"බ":{"ha":772,"x_min":34,"x_max":739,"o":"m 34 298 q 225 1 35 3 q 339 60 294 3 q 491 1 392 1 q 726 241 678 1 q 739 397 739 313 q 568 958 739 829 q 350 1021 481 1021 q 133 935 222 1021 q 66 833 88 890 l 184 793 q 297 888 213 865 q 350 897 323 897 q 581 705 524 897 q 614 397 614 591 q 506 127 614 149 q 487 126 496 126 q 414 187 430 126 q 410 224 410 205 q 446 323 410 264 q 487 448 487 391 q 339 655 487 621 q 271 662 307 662 q 34 298 35 659 m 225 121 q 155 298 156 126 q 271 540 156 538 q 366 448 365 537 q 328 339 366 403 q 290 224 290 274 q 294 170 290 195 q 225 121 269 121 z "},"භ":{"ha":920,"x_min":34,"x_max":886,"o":"m 637 115 q 560 159 589 117 q 570 222 570 190 q 479 372 570 345 q 468 374 473 373 q 475 398 472 387 q 481 427 479 410 q 486 449 484 444 q 490 477 487 454 l 492 500 q 552 654 506 621 q 618 674 579 674 q 769 396 768 671 q 651 117 769 132 q 637 115 644 115 m 311 339 l 372 256 q 399 273 391 267 q 422 279 411 279 q 453 227 452 278 q 373 129 453 149 q 319 122 349 122 q 184 220 217 122 q 174 293 174 254 q 182 358 174 328 q 273 452 208 449 l 380 453 q 311 339 359 372 m 54 282 q 151 58 54 138 q 319 1 221 1 q 500 61 434 3 q 637 1 552 3 q 886 396 884 4 q 618 791 872 781 q 444 711 495 789 q 292 804 393 796 q 275 804 282 804 q 115 716 163 804 q 94 624 94 675 q 107 552 94 587 l 34 552 l 34 453 l 99 453 q 64 365 77 425 q 54 282 54 324 m 197 613 q 254 693 197 678 q 279 696 267 696 q 363 640 342 696 q 370 597 370 620 q 366 552 370 582 l 214 552 q 197 613 197 575 z "},"ච":{"ha":718,"x_min":34,"x_max":684,"o":"m 46 274 q 132 69 46 146 q 338 1 210 1 q 684 480 681 4 q 328 1021 682 1020 q 111 925 197 1021 q 56 833 76 884 l 175 793 q 285 891 203 869 q 328 897 307 897 q 541 670 498 897 q 556 480 556 589 q 338 126 549 132 q 175 228 212 126 q 164 288 164 256 q 228 422 164 388 q 278 434 251 434 l 433 434 q 441 505 441 477 q 342 694 441 640 q 248 718 298 718 q 106 640 148 718 q 87 559 87 604 q 90 532 87 547 l 34 532 l 34 434 l 99 434 q 46 274 46 370 m 186 555 q 248 620 195 614 q 330 556 312 620 q 334 529 332 543 l 190 530 q 186 555 186 543 z "},"ඡ":{"ha":781,"x_min":34,"x_max":791,"o":"m 506 559 l 441 559 q 441 576 441 564 q 439 597 439 591 q 502 694 439 677 q 525 697 513 697 q 614 617 593 697 q 621 556 621 589 l 621 534 q 506 559 567 559 m 496 358 q 448 395 456 358 q 446 406 446 400 q 476 450 448 439 l 500 450 q 590 414 557 449 q 496 358 555 359 m 152 304 q 224 439 152 406 q 279 450 250 450 l 370 450 q 350 389 350 425 q 410 283 350 320 q 492 262 445 262 q 628 309 571 263 l 628 304 q 519 140 628 191 q 389 113 461 113 q 191 191 258 113 q 152 304 152 239 m 34 304 q 172 45 34 133 q 389 -15 264 -15 q 661 88 559 -15 q 745 304 745 175 q 711 448 745 388 q 724 562 724 505 q 647 766 723 704 q 783 982 760 887 q 791 1055 791 1019 l 671 1055 q 617 902 671 977 q 533 804 587 861 l 529 804 q 389 745 445 803 q 251 804 335 804 q 96 722 145 804 q 72 627 72 680 q 115 505 73 556 q 34 304 34 434 m 175 621 q 229 694 175 680 q 255 697 241 697 q 332 640 313 697 q 339 597 339 620 q 338 559 339 570 l 274 559 q 202 549 232 559 q 175 621 176 579 z "},"ද":{"ha":575,"x_min":34,"x_max":620,"o":"m 34 293 q 138 68 34 153 q 240 14 184 30 q 217 -79 217 -31 q 293 -232 217 -175 q 418 -271 347 -271 q 620 -144 537 -270 l 534 -85 q 418 -155 487 -153 q 339 -99 359 -155 q 334 -64 334 -81 q 355 4 335 -27 q 553 126 480 20 l 458 194 q 323 127 408 129 q 184 197 233 127 q 156 293 156 240 q 225 423 156 376 q 320 453 269 453 l 492 453 q 517 593 517 532 q 419 783 517 728 q 324 807 376 807 q 170 724 218 807 q 145 628 145 681 q 175 530 146 574 q 42 357 69 472 q 34 293 34 324 m 248 623 q 296 693 248 677 q 324 699 311 699 q 401 643 381 699 q 408 598 408 621 q 406 564 408 585 q 320 567 351 567 q 269 563 293 567 q 248 623 248 587 z "},"ඩ":{"ha":783,"x_min":34,"x_max":749,"o":"m 39 256 q 146 19 39 71 q 228 1 183 1 q 373 103 331 1 q 378 121 376 113 q 479 9 401 34 q 529 1 503 1 q 739 224 708 1 q 749 397 749 286 q 578 958 749 829 q 359 1021 491 1021 q 138 932 229 1021 q 75 833 96 888 l 194 793 q 304 888 220 864 q 359 897 332 897 q 590 703 533 897 q 623 397 623 589 q 570 141 623 187 q 529 126 552 126 q 433 328 435 127 l 327 328 q 233 126 326 127 q 157 256 157 127 q 206 414 157 368 q 259 434 231 434 l 457 434 q 465 505 465 477 q 366 694 465 640 q 273 718 323 718 q 132 642 175 718 q 111 559 111 605 q 114 529 111 547 l 34 529 l 34 434 l 85 434 q 39 275 45 381 q 39 256 39 266 m 210 555 q 259 618 210 610 q 273 620 266 620 q 355 557 339 620 q 359 528 359 543 l 216 529 q 210 555 210 541 z "},"ඪ":{"ha":754,"x_min":7,"x_max":730,"o":"m 532 743 q 445 792 467 743 q 439 819 439 806 q 479 901 441 856 q 551 746 529 842 q 532 743 537 743 m 327 817 q 404 681 327 736 q 545 636 467 636 q 576 639 556 636 q 604 381 604 498 q 502 126 602 127 q 406 328 408 127 l 300 328 q 205 126 296 127 q 130 256 130 127 q 182 416 130 373 q 231 434 203 434 l 429 434 q 437 505 437 467 q 339 694 437 640 q 245 718 296 718 q 103 642 145 718 q 83 559 83 604 q 85 529 83 547 l 7 529 l 7 434 l 58 434 q 12 275 18 381 q 12 256 12 264 q 125 15 12 64 q 199 1 159 1 q 340 96 300 1 q 350 121 346 109 q 465 5 378 23 q 502 1 483 1 q 724 258 699 1 q 730 381 730 308 q 609 911 730 690 q 441 1099 537 1040 l 378 1024 q 403 983 403 1004 q 372 930 403 970 q 327 817 327 872 m 183 555 q 245 620 193 614 q 327 559 309 620 q 331 528 331 544 l 187 529 q 183 555 183 543 z "},"ධ":{"ha":781,"x_min":34,"x_max":747,"o":"m 34 307 q 60 469 34 404 q 198 621 100 590 q 255 631 227 631 q 359 598 311 629 l 316 490 q 264 505 292 505 q 172 425 201 502 q 156 305 156 380 q 216 129 156 149 q 232 126 224 126 q 327 328 324 127 l 433 328 q 529 126 437 127 q 623 366 620 126 q 623 397 623 381 q 499 853 623 755 q 359 897 444 897 q 220 837 274 897 q 193 793 202 817 l 75 833 q 240 998 119 949 q 359 1021 298 1021 q 697 779 613 1021 q 747 397 747 636 q 709 115 747 199 q 529 1 656 3 q 385 99 426 1 q 377 121 380 111 q 275 8 353 34 q 227 1 252 1 q 47 178 88 1 q 34 307 34 237 z "},"එ":{"ha":732,"x_min":34,"x_max":723,"o":"m 529 743 q 444 792 465 743 q 438 819 438 806 q 476 902 439 859 q 559 747 534 842 q 529 743 533 743 m 324 817 q 401 681 324 736 q 544 636 465 636 q 582 637 570 636 q 601 465 601 524 q 471 152 601 225 q 359 126 422 126 q 175 228 216 126 q 164 288 164 258 q 228 422 164 388 q 278 434 251 434 l 433 434 q 439 505 439 471 q 342 694 439 640 q 248 718 298 718 q 106 640 148 718 q 87 559 87 604 q 90 532 87 547 l 34 532 l 34 434 l 99 434 q 46 274 46 370 q 138 69 46 144 q 359 1 221 1 q 678 210 590 1 q 723 461 723 316 q 616 898 723 699 q 439 1099 540 1036 l 377 1024 q 401 983 401 1004 q 370 930 401 970 q 324 817 324 872 m 186 555 q 248 620 195 614 q 330 556 312 620 q 334 529 332 543 l 190 530 q 186 555 186 543 z "},"ඒ":{"ha":732,"x_min":34,"x_max":853,"o":"m 703 947 q 685 948 690 947 l 685 1085 l 689 1085 q 760 1016 758 1081 q 703 947 755 949 m 590 1173 q 598 952 590 1171 q 600 873 598 897 q 553 966 585 913 q 439 1099 503 1046 l 377 1024 q 401 983 401 1004 q 370 930 401 970 q 324 817 324 872 q 401 681 324 736 q 544 636 465 636 q 583 637 570 636 q 601 465 601 547 q 471 152 601 225 q 359 126 422 126 q 175 228 216 126 q 164 288 164 258 q 228 422 164 388 q 278 434 251 434 l 433 434 q 439 505 439 471 q 342 694 439 640 q 248 718 298 718 q 106 640 148 718 q 87 559 87 604 q 90 532 87 547 l 34 532 l 34 434 l 99 434 q 46 274 46 370 q 138 69 46 144 q 359 1 221 1 q 678 210 590 1 q 723 461 723 316 q 690 705 723 581 l 690 856 q 709 854 699 854 q 834 928 795 854 q 853 1016 853 967 q 690 1173 852 1173 l 590 1173 m 529 743 q 444 792 465 743 q 438 819 438 806 q 476 902 439 859 q 559 747 534 842 q 529 743 533 743 m 186 555 q 248 620 195 614 q 330 556 312 620 q 334 529 332 543 l 190 530 q 186 555 186 543 z "},"ෆ":{"ha":792,"x_min":34,"x_max":760,"o":"m 34 399 q 148 777 34 703 q 245 804 190 804 q 389 707 347 804 q 397 685 395 696 q 499 798 422 772 q 548 804 522 804 q 757 502 735 804 q 760 399 760 456 q 510 4 760 35 q 460 1 486 1 l 460 126 q 642 399 639 137 q 548 680 640 678 q 448 477 450 678 l 346 477 q 245 680 342 678 q 152 399 152 678 q 335 126 155 127 l 335 1 q 41 289 77 1 q 34 399 34 340 z "},"ග":{"ha":884,"x_min":34,"x_max":850,"o":"m 602 118 q 528 157 555 119 q 541 251 541 201 q 484 391 541 339 q 460 408 472 401 q 479 494 479 448 l 479 532 q 583 674 486 673 q 730 396 728 671 q 602 118 728 119 m 298 397 l 349 309 q 387 331 376 323 q 427 245 426 309 q 354 127 427 152 q 304 119 331 119 q 153 389 155 122 q 282 674 155 673 q 369 612 346 674 q 372 605 370 608 q 366 553 369 587 l 366 524 q 323 415 366 450 q 298 397 312 406 m 34 389 q 304 1 35 3 q 467 60 404 3 q 602 1 519 3 q 850 396 849 4 q 583 791 837 781 q 427 722 488 789 q 282 791 374 789 q 34 389 35 788 z "},"ඝ":{"ha":796,"x_min":34,"x_max":762,"o":"m 566 560 l 458 560 q 458 576 458 564 q 457 597 457 590 q 519 694 457 677 q 543 697 532 697 q 620 644 605 697 q 623 621 623 633 q 601 556 621 587 q 566 560 583 560 m 171 274 q 222 431 171 388 q 273 449 245 449 l 549 449 q 639 339 617 449 q 644 274 644 307 q 564 125 643 126 q 530 164 532 127 q 543 218 530 171 q 547 250 547 235 q 437 349 547 339 q 407 350 422 350 q 269 250 275 339 q 281 189 269 239 q 285 164 285 175 q 251 125 282 126 q 171 274 171 127 m 53 275 q 167 19 53 76 q 251 1 205 1 q 365 71 331 1 q 378 126 378 98 q 368 201 378 142 q 365 220 365 212 q 407 255 368 254 q 450 220 449 252 q 445 187 450 209 q 435 126 435 152 q 488 24 435 62 q 564 1 522 1 q 751 167 712 1 q 762 275 762 217 q 685 510 761 437 q 726 627 726 562 q 646 779 726 730 q 547 804 601 804 q 407 745 463 803 q 269 804 353 804 q 115 722 161 804 q 92 631 92 680 q 107 560 92 594 l 34 560 l 34 453 l 99 453 q 53 294 58 400 q 53 275 53 283 m 194 620 q 243 693 194 675 q 273 697 258 697 q 351 640 332 697 q 358 597 358 620 q 355 560 358 581 l 213 560 q 194 620 194 591 z "},"හ":{"ha":887,"x_min":34,"x_max":853,"o":"m 605 115 q 528 159 556 117 q 537 222 537 190 q 446 372 537 345 q 435 374 441 373 q 443 398 439 387 q 449 427 446 410 q 453 449 452 444 q 457 477 454 454 l 460 500 q 519 654 473 621 q 586 674 547 674 q 736 396 735 671 q 618 117 736 132 q 605 115 612 115 m 278 339 l 339 256 q 366 274 358 267 q 389 279 378 279 q 420 227 419 278 q 342 125 420 145 q 292 119 319 119 q 151 232 176 119 q 144 290 144 260 q 194 433 144 391 q 247 452 217 452 l 346 452 q 278 339 328 373 m 34 282 q 127 58 34 137 q 292 1 195 1 q 468 61 404 3 q 605 1 521 3 q 853 396 852 4 q 586 791 840 781 q 411 712 465 789 q 250 804 351 799 q 95 723 145 804 q 69 625 69 680 q 111 510 71 560 q 34 282 34 437 m 172 621 q 222 693 172 677 q 252 697 237 697 q 332 637 313 697 q 338 597 338 618 q 336 560 338 572 l 229 560 q 195 556 212 560 q 172 621 172 586 z "},"්":{"ha":0,"x_min":-184,"x_max":83,"o":"m -68 947 q -90 948 -83 947 l -90 1085 l -81 1085 q -12 1016 -14 1081 q -68 947 -15 948 m -184 1173 l -184 623 l -80 623 l -80 856 q -61 854 -72 854 q 62 926 23 854 q 83 1016 83 966 q -80 1173 81 1173 l -184 1173 z "},"ඉ":{"ha":707,"x_min":35,"x_max":673,"o":"m 119 -160 q 316 -275 198 -274 q 476 -195 420 -275 q 511 -76 511 -142 q 446 56 510 16 q 627 212 566 92 q 673 412 673 300 q 519 753 673 654 q 336 804 439 804 q 91 675 175 804 q 35 488 35 591 q 73 326 35 397 q 203 221 114 241 q 247 216 225 216 q 400 293 345 216 q 437 406 437 343 q 381 541 435 484 q 266 585 335 585 q 140 513 179 583 q 214 650 140 601 q 336 682 266 682 q 507 581 450 682 q 547 412 547 511 q 358 141 547 193 q 252 127 308 127 l 255 22 q 290 23 269 23 q 395 -72 393 19 q 346 -151 395 -127 q 305 -160 327 -160 q 205 -100 250 -159 l 119 -160 m 168 401 q 213 471 168 450 q 245 479 229 479 q 315 435 293 479 q 321 401 321 419 q 279 334 321 354 q 245 326 262 326 q 176 369 197 326 q 168 401 168 385 z "},"ඊ":{"ha":680,"x_min":38,"x_max":696,"o":"m 557 985 q 597 922 557 941 q 627 916 612 916 q 689 955 670 916 q 696 985 696 970 q 656 1047 696 1028 q 627 1054 642 1054 q 564 1015 583 1054 q 557 985 557 1000 m 167 985 q 206 922 167 941 q 236 916 221 916 q 304 960 281 916 q 313 998 313 979 q 264 1053 313 1043 q 247 1054 255 1054 q 171 1010 189 1054 q 167 985 167 997 m 38 368 q 161 56 38 151 q 338 0 235 0 q 594 160 517 0 q 637 373 637 251 q 601 570 637 487 q 395 726 537 718 q 381 726 388 726 q 328 720 350 726 q 491 936 456 850 q 514 1054 514 993 l 395 1054 q 340 898 395 974 q 202 746 297 841 q 39 411 53 598 q 38 368 38 389 m 161 366 l 161 374 q 248 586 165 525 q 347 616 290 616 q 499 486 461 616 q 514 372 514 434 q 422 144 514 202 q 339 122 385 122 q 175 256 214 122 q 161 366 161 305 z "},"ජ":{"ha":781,"x_min":34,"x_max":791,"o":"m 506 559 l 441 559 q 441 576 441 564 q 439 597 439 591 q 502 694 439 677 q 525 697 513 697 q 602 644 587 697 q 605 621 605 633 q 578 549 604 579 q 506 559 548 559 m 152 304 q 220 437 152 401 q 279 450 247 450 l 500 450 q 618 365 590 450 q 628 304 628 336 q 519 140 628 191 q 389 113 461 113 q 191 191 258 113 q 152 304 152 239 m 34 304 q 172 45 34 133 q 389 -15 264 -15 q 661 88 559 -15 q 745 304 745 175 q 665 505 743 435 q 708 627 708 559 q 647 765 707 712 q 783 981 758 886 q 791 1055 791 1017 l 671 1055 q 617 902 671 977 q 533 804 587 861 l 529 804 q 389 745 445 803 q 251 804 335 804 q 96 722 145 804 q 72 627 72 680 q 115 505 73 556 q 34 304 34 434 m 175 621 q 229 694 175 680 q 255 697 241 697 q 332 640 313 697 q 339 597 339 620 q 338 559 339 570 l 274 559 q 202 549 232 559 q 175 621 176 579 z "},"ඣ":{"ha":1409,"x_min":33,"x_max":1375,"o":"m 662 307 q 754 34 662 107 q 854 1 798 1 q 996 96 955 1 q 1005 121 1001 109 q 1120 5 1034 23 q 1157 1 1138 1 q 1366 218 1333 1 q 1375 397 1375 282 q 1204 958 1375 829 q 986 1021 1118 1021 q 769 933 859 1021 q 703 833 724 888 l 821 793 q 932 888 848 864 q 986 897 959 897 q 1217 705 1160 897 q 1251 397 1251 591 q 1198 141 1251 187 q 1157 126 1180 126 q 1061 328 1063 127 l 955 328 q 860 126 951 127 q 784 264 795 126 q 783 305 783 285 q 800 425 783 382 q 892 505 830 503 q 944 490 918 503 l 987 598 q 883 631 937 631 q 852 628 872 631 q 590 788 768 787 q 378 700 468 787 q 235 803 335 789 q 209 804 221 804 q 56 722 102 804 q 33 631 33 680 q 130 463 33 517 q 163 448 146 453 l 35 296 l 49 182 q 61 186 56 186 q 85 153 84 183 l 85 121 q 178 4 85 20 q 213 1 195 1 q 317 64 285 1 q 324 81 321 73 q 391 11 338 31 q 439 1 414 1 q 600 149 557 1 q 617 279 617 210 q 420 581 616 579 q 567 665 492 658 q 590 666 578 666 q 745 568 693 665 q 686 469 707 528 q 662 307 662 400 m 430 121 q 373 217 374 123 l 373 285 l 273 285 l 273 217 q 217 121 267 126 q 172 191 172 122 l 172 212 q 149 274 171 259 q 317 461 218 346 q 384 483 346 483 q 488 380 463 483 q 499 279 499 336 q 430 121 498 122 m 136 621 q 183 693 136 678 q 208 697 195 697 q 285 643 263 697 q 293 604 292 624 l 221 518 q 136 621 137 543 z "},"ඥ":{"ha":1335,"x_min":34,"x_max":1394,"o":"m 991 -79 q 1067 -232 991 -175 q 1192 -271 1122 -271 q 1394 -144 1312 -270 l 1309 -85 q 1192 -155 1261 -153 q 1114 -99 1134 -155 q 1108 -64 1108 -81 q 1130 4 1109 -27 q 1328 126 1255 20 l 1233 194 q 1096 127 1180 129 q 960 197 1008 127 q 930 293 930 240 q 1001 425 930 377 q 1095 453 1043 453 l 1267 453 q 1290 593 1290 526 q 1192 783 1290 728 q 1099 807 1149 807 q 956 742 1008 806 q 814 791 901 791 q 651 720 715 789 q 506 791 600 789 q 355 734 414 789 q 240 791 312 789 q 58 609 106 791 q 34 385 34 517 q 161 18 34 73 q 235 3 194 4 l 235 115 q 151 385 151 123 q 221 669 151 627 q 244 675 232 675 q 300 650 278 674 q 258 389 258 553 q 528 1 259 3 q 742 134 685 1 q 764 251 764 187 q 709 389 764 336 q 684 408 696 401 q 703 494 703 448 l 703 532 q 814 674 709 673 q 911 624 880 674 q 921 606 918 614 q 949 530 928 564 q 817 357 844 472 q 808 293 808 324 q 914 66 808 152 q 1015 14 959 30 q 991 -79 991 -31 m 1023 623 q 1070 693 1023 677 q 1099 699 1084 699 q 1176 643 1156 699 q 1183 598 1183 621 q 1180 564 1183 585 q 1095 567 1126 567 q 1043 563 1067 567 q 1023 623 1023 587 m 522 397 l 571 309 q 610 331 576 312 q 651 245 650 309 q 578 127 651 152 q 528 119 555 119 q 377 389 378 122 q 506 674 378 673 q 594 609 571 674 q 595 604 594 606 q 590 553 593 587 l 590 524 q 538 408 590 446 q 522 397 530 403 z "},"ක":{"ha":941,"x_min":35,"x_max":907,"o":"m 38 296 l 52 182 q 65 186 60 186 q 90 153 85 179 q 90 137 90 148 q 88 121 88 126 q 182 4 88 20 q 217 1 199 1 q 321 66 290 1 q 327 81 324 75 q 399 8 345 27 q 442 1 419 1 q 556 56 511 3 q 678 1 602 3 q 898 236 863 1 q 907 369 907 296 q 760 755 907 650 q 608 804 692 804 q 381 701 484 803 q 240 803 338 788 q 212 804 225 804 q 60 723 107 804 q 35 631 35 681 q 129 465 35 521 q 165 448 146 454 l 38 296 m 678 115 q 606 165 621 117 q 620 279 620 218 q 423 581 618 579 q 553 677 495 662 q 598 682 575 682 q 758 553 709 682 q 787 369 787 477 q 693 117 787 132 q 678 115 685 115 m 433 121 q 377 217 378 123 l 377 285 l 275 285 l 275 217 q 220 121 270 126 q 175 191 175 122 l 175 212 q 152 273 174 262 q 323 463 189 309 q 388 483 353 483 q 491 380 465 483 q 502 279 502 336 q 433 121 500 122 m 138 621 q 184 693 138 677 q 210 697 198 697 q 288 644 264 697 q 297 605 296 625 l 224 518 q 138 621 140 543 z "},"ඛ":{"ha":773,"x_min":34,"x_max":739,"o":"m 222 118 q 152 298 152 121 q 270 540 155 537 q 365 448 363 537 q 328 332 365 400 q 292 247 300 281 q 275 145 278 182 q 222 118 251 119 m 34 298 q 183 5 34 22 q 201 4 193 4 q 271 23 239 5 q 283 -94 274 -46 l 400 -94 q 388 64 388 -22 q 389 113 388 98 l 392 104 q 483 8 423 26 q 534 1 506 1 q 739 397 738 8 q 568 958 739 829 q 350 1021 481 1021 q 133 935 222 1021 q 65 833 87 890 l 184 793 q 297 888 213 865 q 350 897 323 897 q 582 699 526 897 q 614 397 614 585 q 551 155 614 203 q 519 142 534 142 q 449 198 471 144 q 430 267 439 220 q 484 406 476 354 q 487 448 487 426 q 317 659 487 636 q 271 662 294 662 q 34 298 35 659 z "},"ල":{"ha":788,"x_min":34,"x_max":754,"o":"m 34 282 q 176 -122 34 7 q 414 -208 271 -208 q 690 -75 597 -208 q 746 66 735 -11 l 623 85 q 521 -56 606 -9 q 414 -81 472 -81 q 203 62 271 -81 q 160 282 160 153 q 271 625 160 526 q 419 680 334 680 q 608 564 557 680 q 629 450 629 514 q 536 247 629 269 q 513 244 525 244 q 439 288 463 244 q 430 323 430 305 q 487 410 430 385 q 530 419 507 418 l 530 525 l 279 525 l 278 420 l 357 420 q 313 311 313 380 q 389 157 313 210 q 514 123 441 123 q 720 267 658 123 q 754 450 754 346 q 666 696 754 594 q 419 804 572 804 q 83 570 178 804 q 34 282 34 448 z "},"ළ":{"ha":757,"x_min":34,"x_max":723,"o":"m 34 180 q 152 -125 34 -18 q 389 -208 245 -208 q 666 -76 572 -208 q 723 66 712 -12 l 600 84 q 494 -60 582 -15 q 389 -83 446 -83 q 189 41 248 -83 q 159 180 159 103 q 220 401 160 334 q 217 366 217 377 q 304 203 217 258 q 437 170 359 170 q 639 278 587 170 q 658 368 658 320 l 547 368 q 469 278 547 294 q 430 274 450 274 q 320 338 349 274 q 312 380 312 358 q 331 441 313 418 l 665 441 q 688 601 688 526 q 606 789 688 743 q 547 804 579 804 q 435 732 471 803 q 320 804 400 803 q 179 688 202 804 q 174 635 174 663 q 203 525 174 564 q 56 328 98 465 q 34 180 34 259 m 589 551 l 480 551 l 480 602 q 540 696 484 694 q 594 610 593 693 q 589 551 594 575 m 300 551 q 271 604 278 556 q 270 621 270 613 q 312 694 270 685 q 324 696 319 696 q 389 602 384 693 q 389 566 389 600 l 389 551 l 300 551 z "},"ම":{"ha":742,"x_min":34,"x_max":708,"o":"m 363 400 q 326 458 327 410 q 331 518 326 479 q 336 585 336 562 q 335 606 336 600 q 361 620 343 618 q 407 518 407 617 q 363 400 406 401 m 34 404 q 187 46 34 141 q 363 1 260 1 q 708 480 707 4 q 354 1021 707 1020 q 138 928 224 1021 q 81 833 102 886 l 199 793 q 316 892 231 873 q 354 897 335 897 q 583 511 575 897 q 583 480 583 495 q 363 126 582 127 q 160 290 205 126 q 146 404 146 343 q 187 594 146 547 q 212 608 199 606 q 241 564 241 606 q 236 514 241 548 q 231 452 231 473 q 309 313 231 343 q 361 304 332 304 q 499 517 496 312 q 369 712 490 704 q 293 686 327 712 q 214 711 259 711 q 58 570 104 711 q 34 404 34 496 z "},"ා":{"ha":326,"x_min":5,"x_max":302,"o":"m 5 726 q 84 753 34 753 q 259 628 199 753 q 302 382 302 533 q 174 37 302 115 q 84 12 132 12 q 5 38 34 14 l 31 148 q 75 134 52 134 q 176 382 176 137 q 75 631 175 629 q 31 617 52 629 l 5 726 z "},"ෑ":{"ha":419,"x_min":0,"x_max":396,"o":"m 0 213 q 83 33 0 88 q 198 1 132 1 q 388 163 355 1 q 396 241 396 201 l 290 241 q 218 118 290 134 q 195 115 206 115 q 111 198 119 115 q 111 213 111 206 q 205 374 111 313 q 298 407 255 407 l 319 407 l 319 506 l 156 506 l 319 633 l 319 739 l 20 739 l 20 629 l 159 629 l 20 506 l 20 407 l 90 407 q 0 213 1 326 z "},"ැ":{"ha":411,"x_min":0,"x_max":400,"o":"m 0 222 q 75 43 0 104 q 201 1 126 1 q 393 165 359 1 q 400 241 400 202 l 293 241 q 232 126 293 148 q 205 122 218 122 q 119 197 132 122 q 118 222 118 209 q 187 407 118 301 q 353 633 205 433 l 353 739 l 53 739 l 53 629 l 212 629 q 81 449 84 452 q 0 222 0 324 z "},"ෛ":{"ha":1236,"x_min":16,"x_max":1199,"o":"m 327 358 q 366 419 327 403 q 392 425 380 425 l 393 425 q 452 381 437 423 q 456 358 456 369 q 419 298 456 317 q 392 293 406 293 q 332 334 349 293 q 327 358 327 345 m 228 363 q 298 228 231 278 q 381 203 336 203 q 472 243 441 205 q 321 118 446 119 q 165 225 218 118 q 133 380 133 293 q 218 610 133 525 q 346 667 275 667 q 477 613 422 667 q 491 598 484 605 l 572 671 q 346 784 475 783 q 103 656 198 784 q 16 380 16 541 q 138 64 16 165 q 321 1 214 1 q 551 145 487 1 q 578 285 578 209 q 475 511 578 456 q 393 530 438 530 q 259 460 308 530 q 228 363 228 416 m 949 358 q 989 419 949 403 q 1013 425 1001 425 q 1073 384 1057 425 q 1078 358 1078 370 q 1039 298 1078 315 q 1013 293 1027 293 q 955 331 972 293 q 949 358 949 345 m 849 363 q 921 228 852 278 q 1004 203 959 203 q 1095 243 1063 205 q 943 118 1069 119 q 788 222 841 118 q 754 380 754 292 q 840 610 754 525 q 967 667 897 667 q 1096 616 1042 667 q 1114 598 1104 608 l 1195 671 q 967 784 1097 783 q 726 658 822 784 q 637 380 637 543 q 758 65 637 167 q 943 1 836 1 q 1173 148 1111 1 q 1199 285 1199 210 q 1099 510 1199 454 q 1016 530 1061 530 q 879 458 928 530 q 849 363 849 415 z "},"ෞ":{"ha":1264,"x_min":16,"x_max":1198,"o":"m 327 358 q 366 419 327 403 q 392 425 380 425 l 393 425 q 452 381 437 423 q 456 358 456 369 q 419 298 456 317 q 392 293 406 293 q 332 334 349 293 q 327 358 327 345 m 228 363 q 298 228 231 278 q 381 203 336 203 q 472 243 441 205 q 321 118 446 119 q 165 225 218 118 q 133 380 133 293 q 218 610 133 525 q 346 667 275 667 q 477 613 422 667 q 491 598 484 605 l 572 671 q 346 784 475 783 q 103 656 198 784 q 16 380 16 541 q 138 64 16 165 q 321 1 214 1 q 551 145 487 1 q 578 285 578 209 q 475 511 578 456 q 393 530 438 530 q 259 460 308 530 q 228 363 228 416 m 795 475 q 913 321 798 323 q 976 341 955 321 q 998 384 997 361 q 1008 427 1000 407 q 1036 446 1016 446 q 1085 315 1084 446 q 1085 301 1085 308 q 1023 110 1085 137 q 1002 106 1012 106 q 949 133 971 106 q 945 138 947 137 l 873 75 q 991 3 920 11 q 1017 1 1005 1 q 1190 189 1157 1 q 1198 301 1198 239 q 1128 528 1198 461 q 1042 563 1092 563 q 970 541 994 563 q 945 494 947 519 q 940 446 944 468 q 922 425 936 425 q 888 491 888 427 q 960 604 888 591 q 977 605 968 605 l 977 693 q 803 563 831 693 q 795 475 795 524 z "},"ෙ":{"ha":597,"x_min":16,"x_max":578,"o":"m 327 358 q 366 419 327 403 q 392 425 380 425 l 393 425 q 452 381 437 423 q 456 358 456 369 q 419 298 456 317 q 392 293 406 293 q 332 334 349 293 q 327 358 327 345 m 228 363 q 298 228 231 278 q 381 203 336 203 q 472 243 441 205 q 321 118 446 119 q 165 225 218 118 q 133 380 133 293 q 218 610 133 525 q 346 667 275 667 q 477 613 422 667 q 491 598 484 605 l 572 671 q 346 784 475 783 q 103 656 198 784 q 16 380 16 541 q 138 64 16 165 q 321 1 214 1 q 551 145 487 1 q 578 285 578 209 q 475 511 578 456 q 393 530 438 530 q 259 460 308 530 q 228 363 228 416 z "},"ේ":{"ha":1021,"x_min":16,"x_max":830,"o":"m 327 358 q 366 419 327 403 q 392 425 380 425 l 393 425 q 452 381 437 423 q 456 358 456 369 q 419 298 456 317 q 392 293 406 293 q 332 334 349 293 q 327 358 327 345 m 228 363 q 298 228 231 278 q 381 203 336 203 q 472 243 441 205 q 321 118 446 119 q 165 225 218 118 q 133 380 133 293 q 218 610 133 525 q 346 667 275 667 q 477 613 422 667 q 491 598 484 605 l 563 663 l 563 621 l 667 621 l 667 854 q 686 853 675 853 q 810 925 770 853 q 830 1015 830 964 q 667 1172 829 1172 l 563 1172 l 563 682 q 346 784 468 784 q 103 656 198 784 q 16 380 16 541 q 138 64 16 165 q 321 1 214 1 q 551 145 487 1 q 578 285 578 209 q 475 511 578 456 q 393 530 438 530 q 259 460 308 530 q 228 363 228 416 m 680 945 q 658 947 665 945 l 658 1084 l 666 1084 q 735 1015 734 1080 q 680 945 732 947 z "},"ි":{"ha":0,"x_min":-705,"x_max":-20,"o":"m -705 906 q -549 1138 -705 1070 q -362 1173 -468 1173 q -77 1067 -168 1173 q -20 906 -20 1001 q -85 746 -20 814 q -149 703 -115 716 l -236 705 l -236 766 q -141 906 -142 807 q -244 1032 -141 996 q -362 1050 -296 1050 q -563 971 -510 1050 q -583 906 -583 941 q -488 766 -581 806 l -488 705 l -576 703 q -690 826 -655 735 q -705 906 -705 867 z "},"ී":{"ha":0,"x_min":-705,"x_max":-20,"o":"m -258 860 q -221 917 -258 901 q -197 922 -210 922 q -141 884 -157 922 q -136 860 -136 873 q -172 803 -136 819 q -197 798 -183 798 q -252 836 -236 798 q -258 860 -258 846 m -362 860 q -293 727 -362 776 q -198 697 -250 697 q -136 709 -164 697 q -27 849 -52 741 q -20 906 -20 878 q -175 1138 -20 1070 q -362 1173 -256 1173 q -650 1067 -557 1173 q -705 906 -705 1001 q -640 747 -705 815 q -576 703 -612 718 l -488 705 l -488 766 q -583 906 -582 806 q -490 1032 -583 991 q -362 1055 -435 1055 q -167 993 -212 1054 q -218 1006 -191 1006 q -338 945 -296 1006 q -362 860 -362 907 z "},"ෳ":{"ha":444,"x_min":12,"x_max":414,"o":"m 12 475 q 126 685 12 652 q 194 693 157 693 l 194 605 q 106 518 118 605 q 104 491 104 505 q 138 425 106 426 q 157 460 153 425 q 190 543 164 522 q 259 563 214 563 q 406 396 376 563 q 414 301 414 350 q 278 7 414 45 q 235 1 258 1 q 208 3 221 1 q 184 7 194 4 q 163 14 174 9 q 146 21 153 18 q 132 31 140 24 q 119 40 123 37 q 109 50 115 43 q 101 60 103 57 q 95 68 99 62 l 90 75 l 161 138 q 186 114 180 117 q 218 106 199 106 q 298 247 286 106 q 301 301 301 274 q 260 445 301 435 q 252 446 256 446 q 221 411 228 446 q 201 349 210 362 q 130 321 179 321 q 12 475 14 323 z "},"ෟ":{"ha":444,"x_min":12,"x_max":414,"o":"m 12 475 q 126 685 12 652 q 194 693 157 693 l 194 605 q 106 518 118 605 q 104 491 104 505 q 138 425 106 426 q 157 460 153 425 q 190 543 164 522 q 259 563 214 563 q 406 396 376 563 q 414 301 414 350 q 278 7 414 45 q 235 1 258 1 q 208 3 221 1 q 184 7 194 4 q 163 14 174 9 q 146 21 153 18 q 132 31 140 24 q 119 40 123 37 q 109 50 115 43 q 101 60 103 57 q 95 68 99 62 l 90 75 l 161 138 q 186 114 180 117 q 218 106 199 106 q 298 247 286 106 q 301 301 301 274 q 260 445 301 435 q 252 446 256 446 q 221 411 228 446 q 201 349 210 362 q 130 321 179 321 q 12 475 14 323 z "},"ො":{"ha":1421,"x_min":16,"x_max":1381,"o":"m 327 358 q 366 419 327 403 q 392 425 380 425 l 393 425 q 452 381 437 423 q 456 358 456 369 q 419 298 456 317 q 392 293 406 293 q 332 334 349 293 q 327 358 327 345 m 228 363 q 298 228 231 278 q 381 203 336 203 q 472 243 441 205 q 321 118 446 119 q 165 225 218 118 q 133 380 133 293 q 218 610 133 525 q 346 667 275 667 q 477 613 422 667 q 491 598 484 605 l 572 671 q 346 784 475 783 q 103 656 198 784 q 16 380 16 541 q 138 64 16 165 q 321 1 214 1 q 551 145 487 1 q 578 285 578 209 q 475 511 578 456 q 393 530 438 530 q 259 460 308 530 q 228 363 228 416 m 1084 727 l 1109 618 q 1153 632 1130 632 q 1256 384 1256 629 q 1153 136 1255 137 q 1109 149 1130 137 l 1084 39 q 1162 14 1112 14 q 1337 138 1278 14 q 1381 384 1381 233 q 1252 730 1381 651 q 1162 754 1210 754 q 1084 727 1111 753 z "},"ෝ":{"ha":1396,"x_min":16,"x_max":1352,"o":"m 327 358 q 366 419 327 403 q 392 425 380 425 l 393 425 q 452 381 437 423 q 456 358 456 369 q 419 298 456 317 q 392 293 406 293 q 332 334 349 293 q 327 358 327 345 m 228 363 q 298 228 231 278 q 381 203 336 203 q 472 243 441 205 q 321 118 446 119 q 165 225 218 118 q 133 380 133 293 q 218 610 133 525 q 346 667 275 667 q 477 613 422 667 q 491 598 484 605 l 572 671 q 346 784 475 783 q 103 656 198 784 q 16 380 16 541 q 138 64 16 165 q 321 1 214 1 q 551 145 487 1 q 578 285 578 209 q 475 511 578 456 q 393 530 438 530 q 259 460 308 530 q 228 363 228 416 m 1202 947 q 1181 948 1188 947 l 1181 1085 l 1188 1085 q 1259 1016 1257 1081 q 1202 947 1255 949 m 1086 1173 l 1086 760 q 1043 742 1062 754 l 1070 636 q 1101 647 1086 647 q 1206 537 1176 647 q 1222 391 1222 476 q 1130 140 1222 174 q 1101 136 1115 136 q 1070 145 1084 137 l 1043 39 q 1109 20 1073 20 q 1299 145 1236 20 q 1347 391 1347 240 q 1207 735 1347 658 q 1190 745 1198 741 l 1190 856 q 1208 854 1198 854 q 1333 928 1294 854 q 1352 1016 1352 967 q 1190 1173 1351 1173 l 1086 1173 z "},"ෘ":{"ha":391,"x_min":0,"x_max":373,"o":"m 0 194 q 50 43 0 99 q 134 5 85 5 q 217 23 153 5 q 247 27 235 27 q 289 3 271 26 l 373 57 q 323 233 323 126 q 338 425 323 254 q 343 541 343 491 q 224 745 343 720 q 176 749 202 749 q 8 548 9 746 q 11 499 8 533 l 115 499 q 113 547 113 532 q 176 640 115 639 q 235 544 233 637 q 222 376 235 471 q 151 393 191 393 q 26 315 68 393 q 0 194 0 264 m 168 109 q 106 202 107 111 q 156 285 106 274 q 170 286 163 286 q 210 275 191 286 q 208 222 208 237 q 222 118 208 163 l 220 118 q 193 113 212 118 q 168 109 175 109 z "},"ෲ":{"ha":853,"x_min":0,"x_max":762,"o":"m 389 194 q 439 43 389 99 q 524 5 475 5 q 606 23 543 5 q 636 27 624 27 q 678 3 661 26 l 762 57 q 712 233 712 126 q 727 425 712 254 q 732 541 732 491 q 613 745 732 720 q 566 749 591 749 q 397 548 399 746 q 400 499 397 533 l 505 499 q 502 547 502 532 q 566 640 505 639 q 624 544 623 637 q 612 376 624 471 q 541 393 581 393 q 415 313 456 393 q 389 194 389 263 m 557 109 q 495 202 496 111 q 545 285 495 274 q 559 286 552 286 q 600 275 581 286 q 597 222 597 237 q 612 118 597 163 l 609 118 q 582 113 601 118 q 557 109 564 109 m 0 194 q 50 43 0 99 q 134 5 85 5 q 217 23 153 5 q 247 27 235 27 q 289 3 271 26 l 373 57 q 323 233 323 126 q 338 425 323 254 q 343 541 343 491 q 224 745 343 720 q 176 749 202 749 q 8 548 9 746 q 11 499 8 533 l 115 499 q 113 547 113 532 q 176 640 115 639 q 235 544 233 637 q 222 376 235 471 q 151 393 191 393 q 26 315 68 393 q 0 194 0 264 m 168 109 q 106 202 107 111 q 156 285 106 274 q 170 286 163 286 q 210 275 191 286 q 208 222 208 237 q 222 118 208 163 l 220 118 q 193 113 212 118 q 168 109 175 109 z "},"ු":{"ha":0,"x_min":-694,"x_max":-76,"o":"m -694 -148 q -567 -277 -692 -275 l -76 -277 l -76 305 l -163 245 l -193 125 l -193 -159 l -533 -159 q -574 -118 -572 -156 q -570 -79 -574 -98 l -685 -65 q -694 -148 -694 -119 z "},"ූ":{"ha":0,"x_min":-694,"x_max":-76,"o":"m -694 -148 q -563 -277 -685 -271 q -423 -236 -522 -277 q -308 -203 -347 -203 q -194 -277 -236 -205 l -76 -277 l -76 305 l -132 245 l -194 125 l -194 -129 q -293 -88 -237 -88 q -450 -132 -354 -88 q -537 -157 -509 -157 q -575 -117 -574 -155 q -571 -81 -575 -100 l -685 -66 q -694 -148 -694 -109 z "},"ඹ":{"ha":777,"x_min":34,"x_max":745,"o":"m 34 342 q 183 5 34 39 q 227 1 205 1 q 342 71 308 1 q 355 126 355 98 q 345 201 355 142 q 342 220 342 212 q 384 255 345 254 q 426 220 425 252 q 420 187 426 209 q 412 126 412 152 q 467 23 412 61 q 541 1 499 1 q 741 286 720 1 q 745 397 745 334 q 574 958 745 829 q 355 1021 487 1021 q 138 935 228 1021 q 72 833 94 890 l 190 793 q 301 888 217 864 q 355 897 328 897 q 586 705 529 897 q 620 397 620 591 q 541 126 617 132 q 506 165 507 129 q 519 221 506 174 q 524 251 524 237 q 422 351 524 339 q 384 353 404 353 q 245 269 256 353 q 244 251 244 259 q 258 193 244 240 q 262 165 262 176 q 227 126 259 127 q 152 355 152 133 q 208 601 152 568 q 225 605 217 605 q 267 563 266 602 q 264 532 267 551 q 263 507 263 515 q 388 370 266 372 q 514 492 499 370 q 517 547 517 517 q 434 707 517 680 q 393 713 415 713 q 317 680 345 712 q 224 713 281 713 q 45 487 81 713 q 34 342 34 420 m 359 590 q 358 604 359 600 q 388 621 370 620 q 425 548 425 620 q 392 477 423 479 q 357 533 357 480 q 358 560 357 541 q 359 590 359 581 z "},"න":{"ha":918,"x_min":35,"x_max":890,"o":"m 637 115 q 560 149 586 117 q 586 292 586 213 q 461 536 586 494 q 456 537 457 537 q 422 545 437 544 q 431 564 427 559 q 543 674 487 655 q 595 682 566 682 q 746 559 700 682 q 773 372 773 484 q 637 115 772 117 m 35 305 q 156 42 35 119 q 304 1 220 1 q 496 61 423 3 q 637 1 549 3 q 882 248 845 1 q 890 372 890 304 q 707 783 890 701 q 595 804 655 804 q 395 712 477 803 q 232 804 334 798 q 79 722 125 804 q 56 631 56 680 q 168 454 56 517 q 221 431 193 441 q 256 422 237 426 q 170 343 217 345 q 145 349 152 345 q 147 362 146 353 q 148 376 148 372 l 41 382 q 35 305 35 328 m 304 121 q 148 255 168 123 q 191 248 172 248 q 355 388 290 248 q 380 446 366 412 q 468 293 467 422 q 347 125 468 148 q 304 121 326 121 m 254 515 q 160 605 171 540 q 159 621 159 613 q 205 692 159 675 q 231 696 217 696 q 309 640 288 696 q 316 597 316 620 l 316 576 q 308 553 313 568 q 290 507 297 522 q 254 515 271 510 z "},"ඳ":{"ha":792,"x_min":34,"x_max":827,"o":"m 425 -79 q 500 -232 425 -175 q 625 -271 555 -271 q 827 -144 745 -270 l 742 -85 q 625 -155 694 -153 q 547 -99 567 -155 q 541 -64 541 -81 q 563 4 543 -27 q 761 126 688 20 l 666 194 q 529 127 616 129 q 393 197 441 127 q 363 293 363 240 q 433 423 363 376 q 528 453 476 453 l 700 453 q 724 593 724 532 q 627 783 724 728 q 532 807 583 807 q 387 738 437 806 q 270 791 339 789 q 54 585 106 791 q 34 385 34 499 q 161 18 34 73 q 235 3 194 4 l 235 115 q 151 385 151 123 q 232 663 151 612 q 270 675 251 675 q 354 610 335 674 q 382 530 358 566 q 250 357 277 472 q 241 293 241 324 q 346 68 241 153 q 448 14 392 30 q 425 -79 425 -31 m 456 623 q 503 693 456 677 q 532 699 518 699 q 609 643 589 699 q 616 598 616 621 q 613 564 616 585 q 528 567 559 567 q 476 563 500 567 q 456 623 456 587 z "},"ඦ":{"ha":1006,"x_min":34,"x_max":1016,"o":"m 731 559 l 666 559 q 666 576 666 564 q 665 597 665 591 q 727 694 665 677 q 750 697 739 697 q 827 644 812 697 q 830 621 830 633 q 803 549 829 579 q 731 559 773 559 m 377 304 q 448 438 377 406 q 505 450 473 450 l 724 450 q 844 361 818 450 q 852 304 852 334 q 745 140 852 191 q 614 113 686 113 q 415 193 480 113 q 377 304 377 240 m 259 304 q 397 45 259 133 q 614 -15 490 -15 q 886 88 784 -15 q 970 304 970 175 q 890 505 968 435 q 933 627 933 559 q 871 765 932 715 q 1009 987 987 888 q 1016 1055 1016 1021 l 897 1055 q 842 902 897 977 q 758 804 812 861 l 754 804 q 614 745 670 803 q 476 804 560 804 q 342 749 391 803 q 240 791 298 791 q 58 609 106 791 q 34 385 34 517 q 161 18 34 73 q 235 3 194 4 l 235 115 q 151 385 151 123 q 222 669 151 628 q 245 675 233 675 q 298 651 278 674 q 297 627 297 642 q 340 505 298 556 q 259 304 259 434 m 400 621 q 454 694 400 680 q 480 697 467 697 q 557 640 538 697 q 564 597 564 620 q 563 559 564 570 l 499 559 q 427 549 457 559 q 400 621 401 579 z "},"ඞ":{"ha":792,"x_min":33,"x_max":749,"o":"m 359 491 q 324 494 342 491 q 332 541 332 517 q 313 616 332 582 l 321 616 q 410 544 408 613 q 359 491 407 492 m 39 256 q 146 19 39 71 q 228 1 183 1 q 373 103 331 1 q 378 121 376 113 q 479 9 401 34 q 529 1 503 1 q 739 224 708 1 q 749 397 749 286 q 571 962 749 836 q 359 1021 487 1021 q 138 932 229 1021 q 75 833 96 888 l 193 793 q 305 888 221 864 q 359 897 332 897 q 590 703 533 897 q 623 397 623 589 q 570 141 623 187 q 529 126 552 126 q 433 328 435 127 l 327 328 q 232 126 323 127 q 157 258 157 129 q 231 400 159 370 q 239 403 235 400 q 277 408 256 408 q 326 406 296 408 q 376 401 357 401 q 509 503 490 401 q 513 544 513 524 q 363 700 513 670 q 281 708 324 708 q 77 650 132 708 q 73 646 75 647 q 33 541 33 604 q 92 422 34 467 q 39 256 39 357 m 123 541 q 160 598 123 582 q 183 602 172 602 q 240 564 224 602 q 244 541 244 553 q 206 484 244 500 q 183 480 195 480 q 127 518 144 480 q 123 541 123 530 z "},"ණ":{"ha":1180,"x_min":45,"x_max":1147,"o":"m 901 123 q 784 184 826 123 q 769 206 779 193 q 711 267 738 255 q 677 274 694 273 q 688 388 688 330 l 688 392 l 688 404 l 688 457 q 724 578 688 563 q 741 581 732 581 q 796 453 796 579 l 796 334 l 901 334 l 901 453 q 959 581 902 579 q 1021 404 1020 581 q 1021 377 1021 393 q 981 161 1021 214 q 901 123 951 123 m 45 26 l 157 3 q 210 31 178 31 q 292 15 224 31 q 374 5 334 5 q 605 118 515 5 q 642 175 627 145 l 646 175 q 697 133 673 175 q 753 53 732 72 q 902 3 807 3 q 1138 218 1101 3 q 1147 377 1147 278 q 1086 659 1147 589 q 975 705 1044 705 q 863 652 902 705 q 849 624 853 637 q 780 697 833 677 q 736 705 758 705 q 627 640 666 704 q 525 743 586 707 q 666 964 642 867 q 675 1040 675 1002 l 555 1040 q 500 886 555 960 q 415 784 469 842 q 351 789 387 789 q 106 661 190 789 q 50 473 50 576 q 96 297 52 370 q 132 252 110 274 q 64 134 83 209 q 45 26 54 94 m 355 119 q 258 132 346 119 q 222 134 236 134 q 178 125 198 134 q 235 201 195 174 q 262 199 245 199 q 415 277 358 199 q 453 391 453 327 q 396 525 452 471 q 281 572 347 572 q 161 518 206 571 q 270 651 178 616 q 351 665 307 665 q 525 560 467 665 q 563 388 563 490 q 439 136 563 189 q 355 119 401 119 m 179 391 q 224 464 179 442 q 260 472 241 472 q 332 429 309 472 q 342 391 342 410 q 296 316 342 338 q 260 308 278 308 q 187 355 209 308 q 179 391 179 373 z "},"ඬ":{"ha":1013,"x_min":34,"x_max":979,"o":"m 270 256 q 377 19 270 71 q 458 1 414 1 q 604 103 562 1 q 609 121 606 113 q 709 9 632 34 q 760 1 734 1 q 970 224 939 1 q 979 397 979 286 q 802 962 979 836 q 590 1021 718 1021 q 369 932 460 1021 q 305 833 327 888 l 425 793 q 534 888 450 864 q 590 897 563 897 q 821 703 764 897 q 853 397 853 589 q 800 141 853 187 q 760 126 783 126 q 663 328 666 127 l 557 328 q 463 126 553 127 q 388 256 388 127 q 437 414 388 368 q 490 434 461 434 l 688 434 q 696 505 696 477 q 597 694 696 640 q 503 718 553 718 q 393 680 435 716 q 262 745 343 743 q 47 533 90 745 q 34 385 34 468 q 161 18 34 73 q 235 3 194 4 l 235 115 q 151 385 151 123 q 228 623 151 581 q 262 631 244 631 q 339 567 319 631 q 342 559 340 563 q 345 529 342 547 l 264 529 l 264 434 l 316 434 q 270 275 275 381 q 270 256 270 266 m 441 555 q 490 618 441 610 q 503 620 496 620 q 585 562 566 620 q 590 528 590 545 l 446 529 q 441 555 441 541 z "},"ඟ":{"ha":1108,"x_min":34,"x_max":1074,"o":"m 522 397 l 572 309 q 612 331 578 312 q 652 245 651 309 q 582 129 652 156 q 529 119 557 119 q 378 389 380 122 q 506 674 380 673 q 597 605 572 673 q 590 553 593 587 l 590 524 q 547 415 590 450 q 522 397 536 406 m 826 118 q 751 157 779 119 q 765 251 765 201 q 708 391 765 339 q 684 408 696 401 q 703 494 703 448 q 704 532 703 521 q 807 673 711 671 q 954 396 952 670 q 826 118 952 119 m 258 389 q 529 1 259 3 q 690 60 629 3 q 826 1 743 3 q 1074 396 1073 4 q 807 791 1061 781 q 651 720 711 789 q 506 791 601 789 q 369 746 423 789 q 266 789 327 789 q 53 576 102 789 q 34 384 34 494 q 161 16 34 72 q 235 1 194 3 l 235 114 q 155 267 170 118 q 151 384 151 317 q 243 670 151 637 q 266 674 255 674 q 305 663 289 673 q 258 389 258 564 z "},"ඤ":{"ha":1428,"x_min":34,"x_max":1488,"o":"m 1084 -79 q 1160 -231 1084 -174 q 1286 -271 1215 -271 q 1488 -144 1405 -270 l 1402 -85 q 1286 -155 1355 -153 q 1207 -99 1227 -155 q 1202 -64 1202 -81 q 1223 4 1203 -24 q 1421 126 1348 20 l 1326 194 q 1190 127 1274 129 q 1054 197 1101 127 q 1024 293 1024 240 q 1095 425 1024 377 q 1188 453 1137 453 l 1360 453 q 1383 593 1383 526 q 1286 783 1383 728 q 1192 807 1242 807 q 1040 727 1089 807 q 1038 723 1039 724 q 857 788 963 788 q 635 699 738 787 q 491 803 591 789 q 465 804 477 804 q 336 754 387 803 q 240 791 297 791 q 58 609 106 791 q 34 385 34 517 q 161 18 34 73 q 235 3 194 4 l 235 115 q 151 385 151 123 q 222 669 151 628 q 245 675 233 675 q 290 659 271 674 q 289 631 289 648 q 387 463 289 517 q 419 448 403 453 l 292 296 l 305 182 q 317 186 312 186 q 342 153 340 183 l 342 121 q 434 4 342 20 q 469 1 452 1 q 572 62 541 1 q 579 81 576 72 q 651 8 597 28 q 696 1 673 1 q 856 149 814 1 q 873 279 873 210 q 675 581 872 579 q 857 666 760 666 q 1006 600 956 666 q 1021 575 1016 589 q 1042 530 1028 552 q 907 349 932 468 q 902 293 902 320 q 1008 66 902 152 q 1108 14 1053 30 q 1084 -79 1084 -31 m 1116 623 q 1164 693 1116 677 q 1192 699 1177 699 q 1270 643 1249 699 q 1276 598 1276 621 q 1274 564 1276 585 q 1188 567 1219 567 q 1137 563 1161 567 q 1116 623 1116 587 m 686 121 q 629 217 631 123 l 629 285 l 529 285 l 529 217 q 472 121 525 125 q 427 191 427 122 q 427 199 427 194 q 429 212 429 208 q 404 273 427 260 q 572 460 472 343 q 640 483 602 483 q 745 380 719 483 q 755 279 755 336 q 686 121 754 122 m 391 621 q 438 693 391 677 q 464 697 450 697 q 541 643 519 697 q 549 604 548 624 l 477 518 q 391 621 392 543 z "},"ඕ":{"ha":777,"x_min":34,"x_max":745,"o":"m 334 936 q 236 925 282 936 q 201 991 201 962 q 294 1062 201 1046 q 370 1067 328 1067 q 566 998 518 1067 q 579 955 579 978 q 545 887 578 909 q 334 936 456 936 m 83 1009 q 142 890 84 943 q 73 841 103 868 l 144 750 q 317 815 221 812 q 589 624 526 815 q 618 397 618 533 q 566 141 618 187 q 525 126 548 126 q 429 328 431 127 l 323 328 q 228 126 319 127 q 151 355 151 127 q 209 600 151 564 q 229 605 220 605 q 266 563 262 597 q 263 532 266 551 q 262 507 262 515 q 387 370 264 372 q 515 505 503 370 q 517 547 517 524 q 438 705 517 674 q 392 713 416 713 q 317 680 342 712 q 222 713 278 713 q 42 475 76 713 q 34 342 34 414 q 224 1 35 3 q 369 103 327 1 q 374 121 372 113 q 475 9 397 34 q 525 1 499 1 q 735 224 704 1 q 745 397 745 286 q 631 817 743 684 q 704 955 704 868 q 597 1123 704 1059 q 370 1179 505 1179 q 98 1070 153 1179 q 83 1009 83 1042 m 359 590 q 358 605 359 601 q 388 621 369 620 q 425 548 425 620 q 392 477 423 479 q 357 533 357 480 q 358 560 357 541 q 359 590 359 581 z "},"ඔ":{"ha":777,"x_min":34,"x_max":745,"o":"m 34 342 q 224 1 35 3 q 365 96 324 1 q 374 121 370 109 q 490 5 403 23 q 526 1 507 1 q 735 218 703 1 q 745 397 745 282 q 574 958 745 829 q 355 1021 487 1021 q 138 935 228 1021 q 72 833 94 890 l 190 793 q 301 888 217 864 q 355 897 328 897 q 586 705 529 897 q 620 397 620 591 q 567 141 620 187 q 526 126 549 126 q 430 328 433 127 l 324 328 q 229 126 320 127 q 152 355 153 133 q 214 602 152 576 q 229 605 222 605 q 267 563 263 597 q 264 532 267 551 q 263 507 263 515 q 388 370 266 372 q 514 492 499 370 q 517 547 517 517 q 434 707 517 680 q 393 713 415 713 q 317 680 345 712 q 224 713 281 713 q 45 487 81 713 q 34 342 34 420 m 359 590 q 358 604 359 600 q 388 621 370 620 q 425 548 425 620 q 392 477 423 479 q 357 533 357 480 q 358 560 357 541 q 359 590 359 581 z "},"ප":{"ha":779,"x_min":34,"x_max":745,"o":"m 506 559 l 441 559 q 439 597 439 571 q 502 694 439 677 q 525 697 513 697 q 601 647 586 697 q 605 621 605 633 q 578 549 604 579 q 506 559 548 559 m 152 304 q 222 438 152 406 q 279 450 248 450 l 499 450 q 618 361 593 450 q 627 304 627 334 q 519 140 627 191 q 389 113 461 113 q 190 193 255 113 q 152 304 152 240 m 34 304 q 172 45 34 133 q 389 -15 264 -15 q 661 88 559 -15 q 745 304 745 175 q 663 505 743 435 q 708 627 708 559 q 628 779 708 730 q 529 804 583 804 q 389 745 445 803 q 250 804 335 804 q 95 722 144 804 q 71 627 71 680 q 115 506 72 557 q 34 304 34 434 m 174 621 q 224 693 174 677 q 254 697 239 697 q 334 637 315 697 q 339 597 339 618 q 338 559 339 570 l 273 559 q 201 551 233 559 q 174 621 175 578 z "},"ඵ":{"ha":738,"x_min":34,"x_max":724,"o":"m 530 743 q 445 792 467 743 q 439 819 439 806 q 479 902 441 860 q 560 747 536 841 q 530 743 534 743 m 327 817 q 404 681 327 736 q 545 636 467 636 q 583 637 570 636 q 602 465 602 524 q 465 148 602 217 q 361 126 419 126 q 163 245 201 126 q 155 304 155 274 q 259 434 157 433 l 434 434 q 442 505 442 477 q 343 694 442 640 q 250 718 300 718 q 107 640 149 718 q 88 559 88 604 q 103 490 88 525 q 34 319 41 438 q 34 297 34 307 q 111 95 34 179 q 361 1 201 1 q 680 210 591 1 q 724 461 724 316 q 617 898 724 699 q 441 1099 541 1036 l 378 1024 q 403 983 403 1004 q 372 930 403 970 q 327 817 327 872 m 187 555 q 250 620 197 614 q 331 556 313 620 q 335 529 334 543 l 218 529 q 193 528 201 529 q 187 555 187 540 z "},"ර":{"ha":667,"x_min":34,"x_max":633,"o":"m 34 369 q 157 57 34 152 q 334 1 231 1 q 590 161 513 1 q 633 374 633 252 q 597 571 633 488 q 377 727 524 724 q 324 722 346 727 q 487 937 452 852 q 510 1055 510 994 l 389 1055 q 335 899 389 975 q 197 747 292 841 q 37 423 53 604 q 34 369 34 396 m 157 368 l 157 376 q 244 587 161 526 q 343 617 286 617 q 494 491 454 617 q 510 373 510 438 q 418 145 510 203 q 335 123 381 123 q 171 258 210 123 q 157 368 157 307 z "},"ස":{"ha":796,"x_min":34,"x_max":762,"o":"m 566 560 l 458 560 q 458 576 458 564 q 457 597 457 590 q 519 694 457 677 q 543 697 532 697 q 620 644 605 697 q 623 621 623 633 q 601 556 621 587 q 566 560 583 560 m 171 275 q 222 434 171 389 q 273 452 245 452 l 549 452 q 639 338 618 452 q 644 275 644 307 q 582 130 644 153 q 557 126 570 126 q 458 328 461 127 l 357 328 q 256 126 353 127 q 174 229 189 126 q 171 275 171 251 m 53 275 q 152 31 53 96 q 256 1 197 1 q 397 96 357 1 q 407 121 403 109 q 522 5 437 23 q 557 1 540 1 q 745 148 699 1 q 762 275 762 205 q 685 510 761 437 q 726 627 726 562 q 646 779 726 730 q 547 804 601 804 q 407 745 463 803 q 269 804 353 804 q 115 722 161 804 q 92 631 92 680 q 107 560 92 594 l 34 560 l 34 453 l 99 453 q 53 294 58 400 q 53 275 53 283 m 194 620 q 243 693 194 675 q 273 697 258 697 q 351 640 332 697 q 358 597 358 620 q 355 560 358 581 l 213 560 q 194 620 194 591 z "},"ශ":{"ha":926,"x_min":34,"x_max":909,"o":"m 572 195 q 656 14 572 50 q 711 3 682 3 q 773 16 724 3 q 788 19 783 19 q 837 -3 800 19 q 841 -5 840 -4 l 909 54 q 876 168 876 99 q 883 267 876 198 q 891 412 891 359 q 665 788 891 760 q 620 791 643 791 q 431 715 505 789 q 282 791 380 789 q 34 389 35 788 q 304 1 35 3 q 518 133 461 1 q 541 251 541 187 q 484 391 541 339 q 460 408 472 401 q 479 494 479 448 l 479 532 q 555 661 479 628 q 620 673 585 673 q 774 412 773 670 l 774 387 q 719 399 747 399 q 600 316 642 399 q 572 195 572 264 m 728 96 q 667 199 669 99 q 708 300 667 275 q 734 307 720 307 q 766 298 754 305 q 761 199 761 220 q 770 106 761 145 q 728 96 735 96 m 298 397 l 349 309 q 387 331 376 323 q 427 245 426 309 q 354 127 427 152 q 304 119 331 119 q 153 389 155 122 q 282 674 155 673 q 372 608 349 674 q 373 602 372 605 q 366 553 369 586 l 366 524 q 323 415 366 450 q 298 397 312 406 z "},"ෂ":{"ha":777,"x_min":34,"x_max":745,"o":"m 506 559 l 441 559 q 441 576 441 564 q 439 597 439 591 q 502 694 439 677 q 525 697 513 697 q 602 644 587 697 q 605 621 605 633 q 578 549 604 579 q 506 559 548 559 m 152 304 q 224 439 152 406 q 279 450 250 450 l 471 450 q 327 317 366 374 q 278 163 278 247 q 279 132 278 142 q 156 266 175 170 q 152 304 152 285 m 388 156 q 487 340 388 251 q 540 384 505 355 q 583 420 570 408 q 628 304 628 381 q 518 140 628 191 q 392 113 463 114 q 388 156 388 132 m 34 304 q 172 45 34 133 q 389 -15 264 -15 q 661 88 559 -15 q 745 304 745 175 q 665 505 743 435 q 708 627 708 559 q 628 779 708 730 q 529 804 583 804 q 389 745 445 803 q 251 804 335 804 q 96 722 145 804 q 72 627 72 680 q 115 505 73 556 q 34 304 34 434 m 175 621 q 229 694 175 680 q 255 697 241 697 q 332 640 313 697 q 339 597 339 620 q 338 559 339 570 l 274 559 q 202 549 232 559 q 175 621 176 579 z "},"ත":{"ha":917,"x_min":35,"x_max":887,"o":"m 46 305 l 57 206 l 80 206 q 103 148 103 199 q 194 26 103 66 q 313 1 247 1 q 498 58 434 3 q 643 1 553 1 q 887 372 886 4 q 743 754 887 646 q 593 804 675 804 q 381 701 486 804 q 370 689 376 696 q 245 802 338 783 q 212 804 228 804 q 60 723 107 804 q 35 631 35 681 q 132 469 35 521 q 170 453 149 460 l 46 305 m 631 115 q 555 149 582 117 q 574 283 574 208 q 473 530 574 463 q 403 553 437 553 l 400 553 l 415 571 q 515 665 480 644 q 593 682 551 682 q 735 575 686 682 q 770 372 770 495 q 631 115 769 117 m 315 118 q 205 175 225 118 q 199 203 199 189 q 168 289 198 271 q 321 461 229 354 q 340 463 328 463 q 441 381 411 463 q 456 283 456 339 q 345 119 456 134 q 315 118 330 118 m 134 623 q 182 697 134 680 q 210 701 197 701 q 288 647 266 701 q 297 604 296 627 l 225 517 q 134 623 136 541 z "},"ථ":{"ha":734,"x_min":34,"x_max":724,"o":"m 530 743 q 445 792 467 743 q 439 819 439 806 q 477 902 441 859 q 560 747 536 842 q 530 743 534 743 m 326 817 q 403 681 326 736 q 545 636 467 636 q 583 637 571 636 q 602 465 602 524 q 418 130 602 165 q 369 126 393 126 q 176 239 229 126 q 155 335 155 283 q 216 491 155 452 q 259 505 236 505 q 312 490 286 503 l 354 598 q 250 631 304 631 q 77 522 138 631 q 34 335 34 444 q 132 85 34 179 q 369 1 221 1 q 690 231 609 1 q 724 461 724 331 q 617 898 724 699 q 441 1099 541 1036 l 378 1024 q 403 983 403 1004 q 372 930 403 970 q 326 817 326 872 z "},"ට":{"ha":718,"x_min":34,"x_max":684,"o":"m 34 335 q 127 585 34 505 q 250 631 182 631 q 354 598 305 629 l 312 490 q 259 505 285 505 q 167 422 195 505 q 155 335 155 382 q 228 160 155 217 q 338 126 273 126 q 556 461 551 126 q 556 480 556 472 q 328 897 543 886 q 191 826 240 897 q 174 793 180 810 l 56 833 q 237 1006 107 964 q 328 1021 281 1021 q 684 480 682 1019 q 338 1 682 3 q 65 171 138 1 q 34 335 34 245 z "},"ඨ":{"ha":781,"x_min":34,"x_max":757,"o":"m 559 743 q 473 793 494 743 q 468 819 468 807 q 506 901 469 857 q 578 746 556 842 q 559 743 564 743 m 354 817 q 431 681 354 736 q 572 636 494 636 q 604 639 583 636 q 631 381 631 498 q 529 126 629 127 q 433 328 435 127 l 327 328 q 232 126 323 127 q 157 275 164 126 q 156 305 156 290 q 172 425 156 380 q 264 505 206 499 q 317 490 292 503 l 359 598 q 255 631 309 631 q 84 522 145 631 q 60 469 69 498 q 34 307 34 403 q 126 34 34 107 q 227 1 170 1 q 370 99 328 1 q 378 121 376 110 q 479 9 401 34 q 529 1 503 1 q 751 248 723 1 q 757 381 757 301 q 636 911 757 690 q 468 1099 564 1040 l 407 1024 q 431 983 431 1004 q 400 930 431 970 q 354 817 354 872 z "},"උ":{"ha":745,"x_min":42,"x_max":730,"o":"m 42 182 q 160 -123 42 -16 q 397 -206 254 -206 q 674 -73 581 -206 q 730 68 719 -9 l 606 85 q 502 -56 589 -11 q 397 -79 454 -79 q 197 50 252 -79 q 171 182 171 109 q 292 427 171 361 q 418 456 347 456 l 589 456 q 613 594 613 528 q 515 784 613 730 q 422 808 472 808 q 267 727 317 808 q 241 629 241 684 q 263 545 241 586 q 52 288 91 483 q 42 182 42 237 m 502 567 q 418 570 450 570 q 363 567 397 570 q 345 625 345 593 q 393 697 345 680 q 422 701 407 701 q 498 647 477 701 q 506 601 506 625 q 502 567 506 581 z "},"ඌ":{"ha":1119,"x_min":42,"x_max":1057,"o":"m 42 182 q 161 -125 42 -18 q 397 -206 252 -206 q 674 -73 581 -206 q 730 68 719 -9 l 606 85 q 502 -56 589 -11 q 397 -79 454 -79 q 197 47 254 -79 q 170 182 170 109 q 290 426 170 359 q 418 456 346 456 l 589 456 q 613 594 613 528 q 515 784 613 730 q 422 808 472 808 q 267 727 317 808 q 241 629 241 684 q 263 545 241 586 q 52 288 91 483 q 42 182 42 237 m 502 567 q 418 570 450 570 q 363 567 397 570 q 345 625 345 593 q 393 697 345 680 q 422 701 407 701 q 498 647 477 701 q 506 601 506 625 q 502 567 506 581 m 655 475 q 773 321 658 323 q 837 341 817 321 q 859 384 857 361 q 868 427 860 407 q 895 446 876 446 q 944 315 943 446 q 944 301 944 308 q 876 109 944 127 q 861 106 868 106 q 808 134 830 106 q 804 138 806 137 l 732 75 q 793 19 764 34 q 878 1 830 1 q 1047 180 1013 1 q 1057 301 1057 235 q 983 533 1057 468 q 902 563 949 563 q 831 541 854 563 q 805 494 807 519 q 799 446 803 468 q 781 425 795 425 q 747 491 747 427 q 822 604 747 593 q 837 605 830 605 l 837 693 q 663 563 692 693 q 655 475 655 524 z "},"ව":{"ha":722,"x_min":34,"x_max":688,"o":"m 34 297 q 109 94 34 176 q 342 1 193 1 q 688 480 685 4 q 334 1021 686 1020 q 118 928 203 1021 q 61 833 81 886 l 179 793 q 296 892 210 873 q 334 897 315 897 q 557 590 530 897 q 562 480 562 538 q 342 126 560 127 q 163 245 197 126 q 155 304 155 274 q 259 434 157 433 l 434 434 q 441 505 441 471 q 343 694 441 640 q 250 718 300 718 q 107 640 149 718 q 88 559 88 604 q 103 490 88 525 q 34 319 41 438 q 34 297 34 307 m 187 555 q 250 620 197 614 q 331 556 313 620 q 335 529 334 543 l 218 529 q 193 528 201 529 q 187 555 187 540 z "},"ය":{"ha":785,"x_min":34,"x_max":751,"o":"m 556 560 l 452 560 q 448 597 448 578 q 510 694 448 678 q 532 697 521 697 q 609 646 594 697 q 613 621 613 633 q 590 556 612 586 q 556 560 572 560 m 34 340 q 119 42 34 113 q 247 1 168 1 q 392 103 350 1 q 397 121 395 113 q 499 8 422 34 q 548 1 522 1 q 732 146 686 1 q 751 275 751 203 q 674 510 750 438 q 716 625 716 562 q 635 779 716 730 q 536 804 590 804 q 382 726 435 804 q 353 656 362 694 l 353 655 q 351 651 351 652 q 274 665 313 665 q 85 556 152 665 q 34 340 34 471 m 548 126 q 448 328 450 127 l 346 328 q 247 126 342 127 q 152 323 155 126 q 152 340 152 332 q 212 518 152 458 q 285 549 244 549 q 349 532 316 548 q 368 452 355 491 l 538 452 q 628 338 608 452 q 633 275 633 307 q 572 130 633 153 q 548 126 560 126 z "},"෴":{"ha":2759,"x_min":34,"x_max":2714,"o":"m 2064 164 q 2135 33 2064 80 q 2215 7 2174 7 l 2587 7 q 2714 136 2713 9 q 2705 218 2714 175 l 2589 205 q 2592 172 2592 183 q 2547 121 2589 122 l 2271 121 q 2199 189 2200 123 q 2201 220 2199 199 l 2241 425 l 2115 425 l 2110 407 q 2021 343 2097 369 q 1956 319 1968 327 l 2024 624 l 1898 624 l 1893 608 q 1800 547 1879 571 q 1729 521 1743 530 l 1803 853 l 1678 853 l 1668 810 q 1580 743 1659 768 q 1504 716 1516 723 l 1558 962 l 1432 962 l 1364 654 q 1331 675 1356 661 q 1261 734 1268 708 q 1260 745 1260 741 q 1261 755 1260 749 q 1261 766 1261 764 l 1272 815 l 1146 815 l 1069 458 q 1034 480 1061 465 q 963 540 968 514 q 962 548 962 544 l 962 551 l 975 612 l 849 612 l 773 263 q 738 285 765 270 q 667 346 673 319 q 666 354 666 350 l 666 362 l 678 419 l 553 419 l 528 294 q 449 137 503 172 q 363 115 414 115 l 202 115 q 157 167 159 118 q 160 199 157 179 l 43 213 q 34 130 34 159 q 163 1 37 3 l 401 1 q 591 103 533 1 q 637 229 617 151 q 696 195 644 222 q 743 136 742 170 l 743 125 l 732 76 l 857 76 l 935 425 q 993 391 943 416 q 1039 331 1038 363 l 1039 323 l 1024 255 l 1150 255 l 1230 620 q 1289 586 1238 612 q 1335 526 1333 559 l 1335 515 l 1303 374 l 1428 374 l 1472 571 q 1580 644 1489 617 q 1637 665 1628 659 l 1552 278 l 1676 278 l 1697 370 q 1804 450 1712 420 q 1864 472 1855 467 l 1793 151 l 1919 151 l 1925 178 q 2026 248 1944 220 q 2082 270 2072 263 l 2068 202 q 2064 164 2064 182 z "},"ඏ":{"ha":1244,"x_min":34,"x_max":1195,"o":"m 936 163 q 971 218 936 202 q 997 224 985 224 q 1051 187 1035 224 q 1057 163 1057 175 q 1020 106 1057 122 q 997 102 1008 102 q 940 140 956 102 q 936 163 936 152 m 1082 381 q 1081 289 1082 316 q 990 323 1042 323 q 970 321 977 323 q 888 505 962 439 q 932 627 932 557 q 930 651 932 643 q 983 675 952 675 q 1073 529 1050 675 q 1082 381 1082 465 m 730 559 l 666 559 q 665 597 665 571 q 727 694 665 678 q 749 697 738 697 q 826 644 811 697 q 829 621 829 633 q 803 549 827 581 q 730 559 770 559 m 376 304 q 444 437 376 401 q 503 450 471 450 l 724 450 q 842 365 814 450 q 852 304 852 336 q 745 140 852 191 q 614 113 686 113 q 414 193 480 113 q 376 304 376 241 m 399 621 q 453 694 399 680 q 479 697 465 697 q 557 640 538 697 q 564 597 564 620 q 563 576 564 590 q 563 559 563 564 l 498 559 q 426 549 456 559 q 399 621 400 579 m 296 627 q 339 505 297 559 q 259 321 266 438 q 239 323 251 323 q 146 288 183 321 q 145 381 145 316 q 217 667 145 620 q 244 675 231 675 q 297 651 277 674 q 296 627 296 642 m 34 385 q 231 1 35 3 q 362 69 315 4 q 614 -15 464 -15 q 865 71 768 -14 q 998 1 916 3 q 1195 385 1194 4 q 1036 784 1195 736 q 989 791 1013 791 q 887 749 926 789 q 753 804 834 804 q 614 745 667 803 q 475 804 557 804 q 342 750 392 803 q 240 791 300 791 q 50 578 94 791 q 34 385 34 495 m 171 163 q 206 218 171 202 q 232 224 220 224 q 286 187 270 224 q 292 163 292 175 q 255 106 292 122 q 232 102 243 102 q 175 140 191 102 q 171 163 171 151 z "},"ඐ":{"ha":1663,"x_min":34,"x_max":1632,"o":"m 936 167 q 974 224 936 208 q 997 228 985 228 q 1053 190 1036 228 q 1057 167 1057 178 q 1020 110 1057 126 q 997 106 1008 106 q 940 144 956 106 q 936 167 936 155 m 1082 387 q 1081 293 1082 320 q 989 328 1043 328 q 970 327 975 328 q 888 509 962 446 q 932 631 932 562 q 930 655 932 647 q 983 680 952 680 q 1073 533 1048 680 q 1082 387 1082 471 m 730 563 l 666 563 q 663 601 663 587 q 726 699 663 681 q 749 701 738 701 q 826 648 811 701 q 829 625 829 637 q 802 553 827 585 q 730 563 772 563 m 376 308 q 444 441 376 406 q 503 454 471 454 l 724 454 q 842 369 814 454 q 852 308 852 340 q 745 145 852 197 q 613 117 686 117 q 416 194 483 117 q 376 308 376 243 m 399 625 q 453 699 399 684 q 479 701 465 701 q 557 644 538 701 q 564 601 564 624 q 564 582 564 594 q 563 563 563 568 l 498 563 q 426 553 456 563 q 399 625 400 586 m 296 631 q 339 509 297 563 q 259 327 266 445 q 239 328 251 328 q 146 293 186 327 q 145 387 145 321 q 217 671 145 624 q 244 680 229 680 q 297 655 277 678 q 296 631 296 646 m 34 389 q 231 5 35 7 q 362 73 315 8 q 614 -11 464 -11 q 865 75 768 -9 q 998 5 916 7 q 1195 389 1194 8 q 1036 788 1195 741 q 989 795 1013 795 q 887 753 926 793 q 753 808 834 808 q 614 749 667 807 q 475 808 557 808 q 342 754 392 807 q 240 795 300 795 q 50 582 94 795 q 34 389 34 499 m 171 167 q 209 224 171 208 q 232 228 220 228 q 288 190 271 228 q 292 167 292 178 q 255 110 292 126 q 232 106 243 106 q 175 144 191 106 q 171 167 171 155 m 1229 475 q 1347 321 1232 323 q 1410 341 1389 321 q 1432 384 1431 361 q 1442 427 1434 407 q 1470 446 1450 446 q 1519 315 1518 446 q 1519 301 1519 308 q 1457 110 1519 137 q 1436 106 1446 106 q 1383 132 1405 106 q 1378 138 1379 137 l 1308 75 q 1426 3 1354 11 q 1451 1 1439 1 q 1619 168 1581 1 q 1632 301 1632 227 q 1563 528 1632 461 q 1476 563 1526 563 q 1404 541 1428 563 q 1379 494 1381 519 q 1374 446 1378 468 q 1356 425 1370 425 q 1322 491 1322 427 q 1394 604 1322 591 q 1411 605 1402 605 l 1411 693 q 1237 563 1265 693 q 1229 475 1229 524 z "},"ඍ":{"ha":1199,"x_min":45,"x_max":1166,"o":"m 795 194 q 845 42 795 96 q 929 5 880 5 q 1010 22 948 5 q 1042 27 1029 27 q 1082 3 1065 26 l 1166 57 q 1118 233 1118 126 q 1133 425 1118 254 q 1138 541 1138 491 q 1019 745 1138 720 q 971 749 997 749 q 803 548 804 746 q 806 499 803 533 l 910 499 q 907 547 907 517 q 971 640 910 639 q 1029 544 1028 637 q 1017 376 1029 471 q 945 393 986 393 q 819 312 860 393 q 795 194 795 262 m 963 109 q 901 202 902 111 q 951 285 901 274 q 964 286 958 286 q 1005 275 986 286 q 1002 222 1002 237 q 1017 118 1002 163 l 1015 118 q 987 113 1006 118 q 963 109 970 109 m 557 560 l 450 560 q 449 597 449 571 q 513 694 449 680 q 534 697 524 697 q 610 647 595 697 q 614 621 614 633 q 591 556 613 586 q 557 560 574 560 m 161 275 q 212 434 161 389 q 258 452 232 452 l 540 452 q 629 338 609 452 q 635 275 635 307 q 574 130 635 153 q 549 126 562 126 q 449 328 452 127 l 349 328 q 248 126 345 127 q 165 221 183 126 q 161 275 161 247 m 45 275 q 146 28 45 94 q 248 1 190 1 q 393 103 351 1 q 399 121 396 113 q 500 8 423 34 q 549 1 524 1 q 735 149 690 1 q 753 275 753 206 q 677 510 751 438 q 718 627 718 562 q 637 777 718 728 q 537 804 593 804 q 399 745 452 803 q 259 804 342 804 q 104 722 153 804 q 80 627 80 680 q 121 510 81 562 q 45 275 45 437 m 183 621 q 237 694 183 680 q 263 697 251 697 q 342 640 323 697 q 349 597 349 620 q 347 560 349 571 l 240 560 q 205 556 221 560 q 183 621 183 590 z "},"ඎ":{"ha":1588,"x_min":45,"x_max":1556,"o":"m 1184 194 q 1234 43 1184 99 q 1318 5 1270 5 q 1400 22 1339 5 q 1431 27 1419 27 q 1472 3 1454 26 l 1556 57 q 1507 233 1507 126 q 1522 425 1507 254 q 1527 541 1527 490 q 1408 745 1527 720 q 1360 749 1386 749 q 1192 548 1194 746 q 1195 499 1192 533 l 1299 499 q 1297 547 1297 517 q 1360 640 1299 639 q 1419 544 1417 637 q 1407 376 1419 471 q 1335 393 1375 393 q 1208 312 1249 393 q 1184 194 1184 262 m 1352 109 q 1290 202 1291 111 q 1340 285 1290 274 q 1354 286 1347 286 q 1394 275 1375 286 q 1392 222 1392 237 q 1407 118 1392 163 l 1404 118 q 1377 113 1396 118 q 1352 109 1359 109 m 795 194 q 845 42 795 96 q 929 5 880 5 q 1010 22 948 5 q 1042 27 1029 27 q 1082 3 1065 26 l 1166 57 q 1118 233 1118 126 q 1133 425 1118 254 q 1138 541 1138 491 q 1019 745 1138 720 q 971 749 997 749 q 803 548 804 746 q 806 499 803 533 l 910 499 q 907 547 907 517 q 971 640 910 639 q 1029 544 1028 637 q 1017 376 1029 471 q 945 393 986 393 q 819 312 860 393 q 795 194 795 262 m 963 109 q 901 202 902 111 q 951 285 901 274 q 964 286 958 286 q 1005 275 986 286 q 1002 222 1002 237 q 1017 118 1002 163 l 1015 118 q 987 113 1006 118 q 963 109 970 109 m 557 560 l 450 560 q 449 597 449 571 q 513 694 449 680 q 534 697 524 697 q 610 647 595 697 q 614 621 614 633 q 591 556 613 586 q 557 560 574 560 m 161 275 q 212 434 161 389 q 258 452 232 452 l 540 452 q 629 338 609 452 q 635 275 635 307 q 574 130 635 153 q 549 126 562 126 q 449 328 452 127 l 349 328 q 248 126 345 127 q 165 221 183 126 q 161 275 161 247 m 45 275 q 146 28 45 94 q 248 1 190 1 q 393 103 351 1 q 399 121 396 113 q 500 8 423 34 q 549 1 524 1 q 735 149 690 1 q 753 275 753 206 q 677 510 751 438 q 718 627 718 562 q 637 777 718 728 q 537 804 593 804 q 399 745 452 803 q 259 804 342 804 q 104 722 153 804 q 80 627 80 680 q 121 510 81 562 q 45 275 45 437 m 183 621 q 237 694 183 680 q 263 697 251 697 q 342 640 323 697 q 349 597 349 620 q 347 560 349 571 l 240 560 q 205 556 221 560 q 183 621 183 590 z "},"/":{"ha":555,"x_min":26,"x_max":543,"o":"m 416 983 l 26 -95 l 155 -95 l 543 983 l 416 983 z "}," ":{"ha":406,"x_min":0,"x_max":0,"o":""},"£":{"ha":636,"x_min":37,"x_max":609,"o":"m 591 0 l 591 121 l 273 121 l 273 411 l 509 411 l 509 524 l 273 524 l 273 624 q 381 806 273 783 q 414 808 397 808 q 555 765 481 807 l 609 868 q 397 932 511 932 q 179 827 252 932 q 129 646 129 754 l 129 524 l 37 524 l 37 411 l 129 411 l 129 121 l 39 121 l 39 0 l 591 0 z "},"∑":{"ha":661,"x_min":27,"x_max":625,"o":"m 27 -237 l 625 -237 l 625 -117 l 205 -117 l 524 349 l 241 796 l 625 796 l 625 917 l 58 917 l 58 830 l 372 345 l 27 -152 l 27 -237 z "},"t":{"ha":461,"x_min":33,"x_max":456,"o":"m 456 34 l 418 121 q 345 98 376 98 q 267 208 269 100 l 267 572 l 416 572 l 416 678 l 267 678 l 267 861 l 126 861 l 126 678 l 33 678 l 33 572 l 126 572 l 126 193 q 255 -14 126 15 q 301 -18 278 -18 q 456 34 376 -16 z "},"ť":{"ha":461,"x_min":33,"x_max":481,"o":"m 456 34 l 418 121 q 345 98 376 98 q 267 208 269 100 l 267 572 l 416 572 l 416 678 l 267 678 l 267 861 l 126 861 l 126 678 l 33 678 l 33 572 l 126 572 l 126 193 q 255 -14 126 15 q 301 -18 278 -18 q 456 34 376 -16 m 481 917 q 430 1000 481 982 q 404 1004 416 1004 q 336 960 357 1004 q 330 922 330 943 q 376 856 330 873 q 382 853 380 854 q 330 735 376 808 q 327 732 328 734 l 372 703 q 479 891 463 796 q 481 917 481 906 z "},"þ":{"ha":680,"x_min":87,"x_max":639,"o":"m 328 98 q 228 121 277 98 l 228 389 q 305 567 228 522 q 359 582 330 582 q 472 495 437 582 q 494 372 494 442 q 389 111 494 161 q 328 98 361 98 m 228 -273 l 228 -3 q 331 -18 282 -18 q 583 129 500 -18 q 639 373 639 228 q 530 648 639 563 q 395 696 471 696 q 227 609 292 694 l 228 983 l 87 983 l 87 -273 l 228 -273 z "},"¾":{"ha":1176,"x_min":9,"x_max":1149,"o":"m 1081 1 l 1081 109 l 1149 109 l 1149 208 l 1081 208 l 1081 553 l 930 553 l 699 187 l 711 109 l 959 109 l 959 1 l 1081 1 m 205 343 q 385 416 326 343 q 419 515 419 458 q 339 643 419 600 q 294 661 317 654 q 396 768 384 688 q 397 788 397 779 q 292 921 397 887 q 206 933 252 933 q 39 863 98 933 q 24 842 31 852 l 100 785 q 198 838 134 836 q 274 793 259 838 q 277 772 277 783 q 209 703 277 718 q 167 699 189 699 l 125 699 l 125 608 l 182 608 q 296 541 286 608 q 297 529 297 534 q 231 453 297 468 q 198 450 214 450 q 65 498 122 452 l 9 407 q 205 343 96 343 m 377 -15 l 940 997 l 811 997 l 245 -14 l 377 -15 m 959 208 l 823 208 l 959 431 l 959 208 z "},"³":{"ha":468,"x_min":11,"x_max":420,"o":"m 206 343 q 387 416 327 343 q 420 515 420 458 q 340 643 420 600 q 296 661 319 654 q 397 768 385 688 q 399 788 399 779 q 293 921 399 887 q 208 933 254 933 q 41 863 99 933 q 26 842 33 852 l 102 785 q 199 838 136 836 q 275 793 260 838 q 278 772 278 783 q 210 703 278 718 q 168 699 190 699 l 126 699 l 126 608 l 183 608 q 297 541 288 608 q 298 529 298 534 q 232 453 298 468 q 199 450 216 450 q 66 498 123 452 l 11 407 q 206 343 98 343 z "},"˜":{"ha":540,"x_min":38,"x_max":503,"o":"m 354 901 q 264 930 327 901 q 184 954 217 952 q 38 878 115 952 l 98 810 q 187 848 146 848 q 282 818 216 848 q 366 795 332 795 q 503 875 441 796 l 444 940 q 354 901 406 902 z "},"™":{"ha":1074,"x_min":34,"x_max":985,"o":"m 34 916 l 34 831 l 159 831 l 159 334 l 266 334 l 266 831 l 392 831 l 392 916 l 34 916 m 484 334 l 521 677 q 528 743 526 720 q 538 703 530 730 q 545 678 544 685 l 635 354 l 731 357 l 826 675 q 846 749 827 680 q 849 711 848 736 q 852 677 852 688 l 884 334 l 985 334 l 916 916 l 806 916 l 703 552 q 699 533 701 547 q 689 494 692 507 q 685 514 688 500 q 678 548 681 537 l 578 916 l 464 916 l 391 334 l 484 334 z "},"²":{"ha":487,"x_min":30,"x_max":426,"o":"m 426 366 l 426 472 l 222 472 l 264 521 q 304 564 277 536 q 406 701 387 650 q 416 758 416 730 q 328 906 416 857 q 222 933 279 933 q 37 837 103 933 q 30 826 33 830 l 113 776 q 206 833 151 831 q 288 784 269 833 q 293 754 293 769 q 228 633 293 705 q 199 602 218 623 q 175 575 183 585 l 42 427 l 42 366 l 426 366 z "},"u":{"ha":709,"x_min":87,"x_max":694,"o":"m 631 -18 q 694 -9 661 -18 l 690 94 q 670 92 681 92 q 617 144 624 92 q 616 168 616 155 l 616 678 l 475 678 l 475 317 q 392 111 475 160 q 334 95 365 95 q 231 198 244 95 q 228 232 228 214 l 228 678 l 87 678 l 87 217 q 220 -4 87 38 q 297 -15 256 -15 q 476 80 404 -15 q 496 111 487 96 q 631 -18 510 -16 z "},"ú":{"ha":709,"x_min":87,"x_max":694,"o":"m 631 -18 q 694 -9 661 -18 l 690 94 q 670 92 681 92 q 617 144 624 92 q 616 168 616 155 l 616 678 l 475 678 l 475 317 q 392 111 475 160 q 334 95 365 95 q 231 198 244 95 q 228 232 228 214 l 228 678 l 87 678 l 87 217 q 220 -4 87 38 q 297 -15 256 -15 q 476 80 404 -15 q 496 111 487 96 q 631 -18 510 -16 m 563 911 l 491 1016 l 254 845 l 311 760 l 563 911 z "},"û":{"ha":709,"x_min":87,"x_max":694,"o":"m 631 -18 q 694 -9 661 -18 l 690 94 q 670 92 681 92 q 617 144 624 92 q 616 168 616 155 l 616 678 l 475 678 l 475 317 q 392 111 475 160 q 334 95 365 95 q 231 198 244 95 q 228 232 228 214 l 228 678 l 87 678 l 87 217 q 220 -4 87 38 q 297 -15 256 -15 q 476 80 404 -15 q 496 111 487 96 q 631 -18 510 -16 m 365 996 l 156 834 l 214 762 l 361 864 l 509 760 l 571 836 l 365 996 z "},"ü":{"ha":709,"x_min":87,"x_max":694,"o":"m 631 -18 q 694 -9 661 -18 l 690 94 q 670 92 681 92 q 617 144 624 92 q 616 168 616 155 l 616 678 l 475 678 l 475 317 q 392 111 475 160 q 334 95 365 95 q 231 198 244 95 q 228 232 228 214 l 228 678 l 87 678 l 87 217 q 220 -4 87 38 q 297 -15 256 -15 q 476 80 404 -15 q 496 111 487 96 q 631 -18 510 -16 m 304 875 q 252 955 304 937 q 227 959 239 959 q 155 910 172 959 q 148 875 148 894 q 199 792 148 810 q 225 788 213 788 q 297 837 278 788 q 304 875 304 854 m 568 875 q 515 955 568 939 q 490 959 502 959 q 419 910 438 959 q 414 875 414 894 q 465 792 414 810 q 490 788 477 788 q 562 837 543 788 q 568 875 568 854 z "},"ù":{"ha":709,"x_min":87,"x_max":694,"o":"m 631 -18 q 694 -9 661 -18 l 690 94 q 670 92 681 92 q 617 144 624 92 q 616 168 616 155 l 616 678 l 475 678 l 475 317 q 392 111 475 160 q 334 95 365 95 q 231 198 244 95 q 228 232 228 214 l 228 678 l 87 678 l 87 217 q 220 -4 87 38 q 297 -15 256 -15 q 476 80 404 -15 q 496 111 487 96 q 631 -18 510 -16 m 193 911 l 264 1016 l 502 845 l 445 760 l 193 911 z "},"ű":{"ha":704,"x_min":87,"x_max":697,"o":"m 631 -18 q 694 -9 661 -18 l 690 94 q 670 92 681 92 q 617 144 624 92 q 616 168 616 155 l 616 678 l 475 678 l 475 317 q 392 111 475 160 q 334 95 365 95 q 231 198 244 95 q 228 232 228 214 l 228 678 l 87 678 l 87 217 q 220 -4 87 38 q 297 -15 256 -15 q 476 80 404 -15 q 496 111 487 96 q 631 -18 510 -16 m 427 925 l 350 1015 l 138 831 l 198 760 l 427 925 m 697 925 l 621 1015 l 408 831 l 469 760 l 697 925 z "},"ū":{"ha":709,"x_min":87,"x_max":694,"o":"m 631 -18 q 694 -9 661 -18 l 690 94 q 670 92 681 92 q 617 144 624 92 q 616 168 616 155 l 616 678 l 475 678 l 475 317 q 392 111 475 160 q 334 95 365 95 q 231 198 244 95 q 228 232 228 214 l 228 678 l 87 678 l 87 217 q 220 -4 87 38 q 297 -15 256 -15 q 476 80 404 -15 q 496 111 487 96 q 631 -18 510 -16 m 175 929 l 175 819 l 541 819 l 541 929 l 175 929 z "},"_":{"ha":678,"x_min":-1,"x_max":680,"o":"m -1 -164 l -1 -273 l 680 -273 l 680 -164 l -1 -164 z "}," ":{"ha":258,"x_min":0,"x_max":0,"o":""},"­":{"ha":814,"x_min":57,"x_max":389,"o":"m 57 420 l 57 311 l 389 311 l 389 420 l 57 420 z "},"µ":{"ha":776,"x_min":87,"x_max":696,"o":"m 228 -273 l 224 19 q 317 -15 264 -15 q 479 81 411 -15 q 498 113 490 98 q 631 -18 510 -16 q 696 -9 661 -18 l 690 94 q 671 92 682 92 q 618 141 625 92 q 617 168 617 153 l 617 678 l 476 678 l 476 317 q 392 110 476 159 q 334 95 365 95 q 231 198 244 95 q 228 232 228 214 l 228 678 l 87 678 l 87 -273 l 228 -273 z "},"Ģ":{"ha":783,"x_min":45,"x_max":720,"o":"m 720 57 l 720 464 l 406 464 l 406 345 l 576 345 l 576 137 q 437 109 500 109 q 220 285 273 109 q 198 456 198 358 q 320 781 198 707 q 415 807 363 807 q 585 673 532 804 l 720 708 q 519 918 669 872 q 416 933 471 933 q 140 795 243 933 q 45 454 45 665 q 216 39 45 155 q 420 -18 302 -18 q 720 57 570 -16 m 480 -172 q 425 -81 480 -102 q 395 -76 410 -76 q 321 -123 343 -76 q 312 -165 313 -144 q 362 -239 312 -220 q 372 -243 368 -241 q 315 -369 363 -290 q 311 -376 312 -373 l 359 -408 q 476 -206 457 -308 q 480 -172 480 -187 z "},"ģ":{"ha":661,"x_min":37,"x_max":642,"o":"m 320 300 q 218 368 248 300 q 205 438 205 399 q 278 574 205 545 q 317 581 297 581 q 420 510 391 581 q 433 438 433 479 q 361 308 433 336 q 320 300 342 300 m 320 689 q 109 589 179 689 q 64 435 64 524 q 144 251 65 317 q 72 126 73 202 q 134 19 73 58 q 37 -126 38 -47 q 155 -267 37 -222 q 300 -290 218 -290 q 589 -183 502 -290 q 631 -66 631 -130 q 529 84 631 38 q 389 110 469 110 l 260 107 q 186 155 187 107 q 224 205 189 184 q 320 190 271 190 q 528 288 457 190 q 574 438 574 351 q 529 583 572 522 l 642 579 l 642 689 l 391 680 q 320 689 359 689 m 317 -179 q 171 -111 189 -179 q 168 -94 168 -102 q 225 -8 170 -46 l 244 -8 l 372 -5 q 492 -65 481 -4 q 494 -77 494 -72 q 406 -168 494 -142 q 317 -179 366 -179 m 231 867 q 288 776 231 795 q 316 770 302 770 q 389 817 368 770 q 399 860 399 837 q 351 933 399 913 q 339 937 345 936 q 397 1066 347 983 q 400 1070 399 1069 l 351 1103 q 233 899 254 1001 q 231 867 231 882 z "},"Ķ":{"ha":739,"x_min":91,"x_max":738,"o":"m 731 96 q 661 140 685 94 l 484 486 l 716 916 l 571 916 l 373 540 l 235 540 l 235 916 l 91 916 l 91 0 l 235 0 l 235 420 l 369 420 l 537 83 q 674 -18 585 -16 q 738 -8 699 -18 l 731 96 m 465 -172 q 410 -81 465 -102 q 380 -76 395 -76 q 307 -123 328 -76 q 297 -165 298 -144 q 347 -239 297 -220 q 357 -243 353 -241 q 300 -369 349 -290 q 296 -376 297 -373 l 345 -408 q 461 -206 442 -308 q 465 -172 465 -187 z "},"ķ":{"ha":656,"x_min":91,"x_max":655,"o":"m 598 -18 q 655 -11 623 -18 l 648 92 l 631 92 q 582 129 602 95 l 438 380 l 628 678 l 487 678 l 346 449 l 232 448 l 232 983 l 91 983 l 91 0 l 232 0 l 232 334 l 326 334 l 467 77 q 557 -12 509 3 q 598 -18 576 -18 m 442 -172 q 387 -81 442 -102 q 357 -76 372 -76 q 283 -123 305 -76 q 274 -165 275 -144 q 324 -239 274 -220 q 334 -243 330 -241 q 277 -369 326 -290 q 273 -376 274 -373 l 321 -408 q 438 -206 419 -308 q 442 -172 442 -187 z "},"Ļ":{"ha":555,"x_min":87,"x_max":541,"o":"m 541 0 l 541 121 l 231 121 l 231 916 l 87 916 l 87 0 l 541 0 m 400 -172 q 345 -81 400 -102 q 315 -76 330 -76 q 241 -123 263 -76 q 232 -165 233 -144 q 282 -239 232 -220 q 292 -243 288 -241 q 235 -369 283 -290 q 231 -376 232 -373 l 279 -408 q 396 -206 377 -308 q 400 -172 400 -187 z "},"ļ":{"ha":361,"x_min":88,"x_max":357,"o":"m 251 -16 q 357 0 302 -16 l 330 106 q 285 98 305 98 q 229 174 231 100 l 229 983 l 88 983 l 88 160 q 225 -15 88 -1 q 251 -16 239 -16 m 285 -172 q 229 -81 285 -102 q 199 -76 214 -76 q 126 -123 148 -76 q 117 -165 118 -144 q 167 -239 117 -220 q 176 -243 171 -241 q 119 -369 168 -290 q 115 -376 117 -373 l 164 -408 q 281 -206 262 -308 q 285 -172 285 -187 z "},"Ņ":{"ha":830,"x_min":91,"x_max":738,"o":"m 738 0 l 738 916 l 605 916 l 605 270 l 216 926 l 91 916 l 91 0 l 224 0 l 224 652 l 618 -12 l 738 0 m 496 -172 q 441 -81 496 -102 q 411 -76 426 -76 q 338 -123 359 -76 q 328 -165 330 -144 q 378 -239 328 -220 q 388 -243 382 -241 q 331 -369 380 -290 q 327 -376 328 -373 l 376 -408 q 492 -206 473 -308 q 496 -172 496 -187 z "},"ņ":{"ha":703,"x_min":87,"x_max":667,"o":"m 662 94 q 610 127 616 87 q 609 148 609 137 l 609 461 q 500 677 609 624 q 411 696 460 696 q 225 585 292 694 l 222 678 l 87 678 l 87 0 l 228 0 l 228 359 q 313 568 228 519 q 369 583 340 583 q 463 496 444 583 q 468 446 468 473 l 468 138 q 609 -16 471 -15 q 667 -9 635 -16 l 662 94 m 445 -172 q 389 -81 445 -102 q 359 -76 374 -76 q 286 -123 308 -76 q 277 -165 278 -144 q 327 -239 277 -220 q 336 -243 332 -241 q 279 -369 328 -290 q 275 -376 277 -373 l 324 -408 q 441 -206 422 -308 q 445 -172 445 -187 z "},"Ŗ":{"ha":716,"x_min":96,"x_max":694,"o":"m 240 0 l 240 365 l 357 365 l 492 83 q 631 -16 540 -15 q 694 -8 665 -16 l 688 96 l 673 96 q 620 133 637 99 l 491 392 q 655 591 627 448 q 662 658 662 624 q 448 910 662 867 q 336 920 397 920 q 96 916 205 920 l 96 0 l 240 0 m 338 800 q 507 700 483 800 q 514 642 514 674 q 415 495 514 528 q 346 486 384 486 l 240 486 l 240 798 q 338 800 302 800 m 453 -172 q 396 -81 453 -100 q 368 -76 381 -76 q 294 -122 316 -76 q 285 -165 285 -142 q 332 -239 285 -218 q 345 -243 339 -241 q 286 -372 336 -289 q 283 -376 285 -374 l 332 -408 q 450 -205 430 -307 q 453 -172 453 -187 z "},"ŗ":{"ha":439,"x_min":88,"x_max":442,"o":"m 229 0 l 229 362 q 305 547 229 498 q 368 564 334 564 q 427 552 396 564 l 442 692 q 406 696 423 696 q 225 566 281 694 l 220 684 l 88 684 l 88 0 l 229 0 m 260 -172 q 205 -81 260 -102 q 175 -76 190 -76 q 102 -123 123 -76 q 92 -165 94 -144 q 142 -239 92 -220 q 152 -243 148 -241 q 95 -369 144 -290 q 91 -376 92 -373 l 140 -408 q 256 -206 237 -308 q 260 -172 260 -187 z "},"Ş":{"ha":665,"x_min":52,"x_max":604,"o":"m 275 -286 q 445 -208 397 -286 q 464 -142 464 -176 q 387 -20 464 -65 q 373 -14 378 -16 q 570 118 510 8 q 604 256 604 179 q 476 475 604 397 q 340 540 454 488 q 221 633 243 585 q 210 681 210 655 q 285 799 210 768 q 343 811 312 811 q 483 738 433 811 q 492 722 488 730 l 601 780 q 433 922 557 888 q 349 933 391 933 q 136 850 220 933 q 65 673 65 777 q 190 453 65 529 q 327 387 212 439 q 446 292 423 342 q 457 241 457 269 q 382 121 457 153 q 320 109 353 109 q 109 175 209 110 l 52 72 q 275 -15 159 -4 q 357 -111 355 -56 q 288 -180 357 -170 q 258 -183 274 -183 q 212 -179 235 -183 l 209 -278 q 275 -286 244 -286 z "},"ş":{"ha":538,"x_min":33,"x_max":494,"o":"m 212 -286 q 381 -208 334 -286 q 400 -142 400 -176 q 317 -18 400 -62 q 308 -12 312 -14 q 472 103 427 8 q 491 193 491 144 q 381 365 491 301 q 313 397 359 377 q 209 465 229 437 q 195 507 195 486 q 254 585 195 567 q 286 589 270 589 q 395 534 357 589 q 401 524 399 528 l 494 578 q 323 693 446 677 q 283 696 302 696 q 104 625 172 696 q 56 505 56 574 q 165 328 56 392 q 233 294 187 316 q 338 227 317 256 q 351 183 351 206 q 285 96 351 115 q 248 92 267 92 q 85 145 163 94 l 33 60 q 212 -15 110 -1 q 293 -111 292 -57 q 224 -180 293 -170 q 194 -183 210 -183 q 148 -179 171 -183 l 145 -278 q 212 -286 180 -286 z "},"Ţ":{"ha":568,"x_min":8,"x_max":559,"o":"m 237 -285 q 408 -203 361 -285 q 426 -137 426 -171 q 358 -5 426 -69 q 353 0 355 -1 l 353 795 l 559 795 l 559 916 l 8 916 l 8 795 l 209 795 l 209 0 q 321 -111 319 -45 q 263 -176 321 -159 q 216 -183 241 -183 q 174 -179 197 -183 l 171 -278 q 237 -285 209 -285 z "},"ţ":{"ha":465,"x_min":33,"x_max":456,"o":"m 225 -286 q 389 -217 338 -286 q 414 -145 414 -184 q 330 -15 412 -65 q 456 34 388 -8 l 418 121 q 345 98 376 98 q 267 208 269 100 l 267 572 l 416 572 l 416 678 l 267 678 l 267 861 l 126 861 l 126 678 l 33 678 l 33 572 l 126 572 l 126 193 q 225 -4 127 39 q 307 -111 305 -52 q 224 -182 307 -175 q 206 -183 214 -183 q 161 -179 183 -183 l 159 -278 q 225 -286 194 -286 z "},"Ș":{"ha":650,"x_min":52,"x_max":604,"o":"m 604 256 q 476 475 604 397 q 340 540 454 488 q 221 633 243 585 q 210 681 210 655 q 285 799 210 768 q 343 811 312 811 q 483 738 433 811 q 492 722 488 730 l 601 780 q 433 922 557 888 q 349 933 391 933 q 136 850 220 933 q 65 673 65 777 q 190 453 65 529 q 327 387 212 439 q 446 292 423 342 q 457 241 457 269 q 382 121 457 153 q 320 109 353 109 q 109 175 209 110 l 52 72 q 317 -18 178 -18 q 545 81 465 -18 q 604 256 604 153 m 427 -172 q 372 -81 427 -102 q 342 -76 357 -76 q 269 -123 290 -76 q 259 -165 260 -144 q 309 -239 259 -220 q 319 -243 315 -241 q 262 -369 311 -290 q 258 -376 259 -373 l 307 -408 q 423 -206 404 -308 q 427 -172 427 -187 z "},"ș":{"ha":538,"x_min":33,"x_max":494,"o":"m 491 193 q 381 365 491 301 q 313 397 359 377 q 209 465 229 437 q 195 507 195 486 q 254 585 195 567 q 286 589 270 589 q 395 534 357 589 q 401 524 399 528 l 494 578 q 323 693 446 677 q 283 696 302 696 q 104 625 172 696 q 56 505 56 574 q 165 328 56 392 q 233 294 187 316 q 338 227 317 256 q 351 183 351 206 q 285 96 351 115 q 248 92 267 92 q 85 145 163 94 l 33 60 q 254 -18 132 -18 q 448 64 380 -18 q 491 193 491 118 m 372 -172 q 316 -81 372 -102 q 286 -76 301 -76 q 213 -123 235 -76 q 203 -165 205 -144 q 254 -239 203 -220 q 263 -243 259 -241 q 206 -369 255 -290 q 202 -376 203 -373 l 251 -408 q 368 -206 349 -308 q 372 -172 372 -187 z "},"Ț":{"ha":568,"x_min":8,"x_max":559,"o":"m 8 916 l 8 795 l 209 795 l 209 0 l 353 0 l 353 795 l 559 795 l 559 916 l 8 916 m 365 -172 q 309 -81 365 -102 q 279 -76 294 -76 q 206 -123 228 -76 q 197 -165 198 -144 q 247 -239 197 -220 q 256 -243 252 -241 q 199 -369 248 -290 q 195 -376 197 -373 l 244 -408 q 361 -206 342 -308 q 365 -172 365 -187 z "},"ț":{"ha":461,"x_min":33,"x_max":456,"o":"m 456 34 l 418 121 q 345 98 376 98 q 267 208 269 100 l 267 572 l 416 572 l 416 678 l 267 678 l 267 861 l 126 861 l 126 678 l 33 678 l 33 572 l 126 572 l 126 193 q 255 -14 126 15 q 301 -18 278 -18 q 456 34 376 -16 m 350 -172 q 294 -81 350 -102 q 264 -76 279 -76 q 191 -123 213 -76 q 182 -165 183 -144 q 232 -239 182 -220 q 241 -243 237 -241 q 184 -369 233 -290 q 180 -376 182 -373 l 229 -408 q 346 -206 327 -308 q 350 -172 350 -187 z "},"ˉ":{"ha":506,"x_min":69,"x_max":435,"o":"m 69 929 l 69 819 l 435 819 l 435 929 l 69 929 z "},"₺":{"ha":814,"x_min":28,"x_max":758,"o":"m 758 429 l 614 429 q 391 121 605 138 q 363 119 377 119 q 274 121 307 119 l 274 330 l 488 408 l 488 513 l 274 434 l 274 522 l 488 601 l 488 704 l 274 625 l 274 916 l 130 916 l 130 572 l 28 536 l 28 433 l 130 469 l 130 381 l 28 345 l 28 240 l 130 277 l 130 0 q 362 -4 182 -1 q 720 224 629 -8 q 758 429 754 313 z "},"₽":{"ha":732,"x_min":37,"x_max":688,"o":"m 366 800 q 540 632 538 798 q 431 473 540 503 q 370 465 403 465 l 269 465 l 269 798 q 366 800 331 800 m 502 176 l 502 281 l 269 281 l 269 361 l 373 361 q 646 494 564 361 q 688 650 688 563 q 545 884 688 815 q 368 920 469 920 q 125 916 235 920 l 125 465 l 37 465 l 37 361 l 125 361 l 125 281 l 37 281 l 37 176 l 125 176 l 125 0 l 269 0 l 269 176 l 502 176 z "},"ℓ":{"ha":553,"x_min":19,"x_max":548,"o":"m 522 829 q 419 1019 522 975 q 338 1034 382 1034 q 156 875 194 1034 q 144 765 144 825 l 145 349 q 19 247 80 288 l 73 156 q 146 209 111 180 l 146 190 q 243 9 148 65 q 347 -18 290 -18 q 541 77 461 -18 q 548 85 545 81 l 483 161 q 370 103 425 104 q 292 178 307 103 q 288 220 288 198 l 288 335 q 514 743 475 534 q 522 829 522 788 m 285 781 q 346 913 286 911 q 403 819 401 910 q 289 514 403 685 q 286 511 286 513 l 285 781 z "},"Ω":{"ha":887,"x_min":56,"x_max":831,"o":"m 387 0 l 387 114 q 240 313 282 159 q 220 465 220 387 q 312 753 220 662 q 445 807 368 807 q 637 650 582 807 q 665 468 665 570 q 579 179 665 288 q 499 114 544 134 l 500 0 l 831 0 l 831 121 l 648 121 q 814 435 791 239 q 817 495 817 465 q 701 829 817 705 q 446 933 602 933 q 145 772 251 933 q 68 488 68 651 q 197 152 68 285 q 231 121 214 134 l 56 121 l 56 0 l 387 0 z "},"∆":{"ha":845,"x_min":15,"x_max":830,"o":"m 830 0 l 509 921 l 342 921 l 15 0 l 830 0 m 644 115 l 195 115 l 423 787 l 644 115 z "},"∕":{"ha":762,"x_min":31,"x_max":726,"o":"m 163 -15 l 31 -14 l 597 997 l 726 997 l 163 -15 z "},"∙":{"ha":467,"x_min":79,"x_max":388,"o":"m 388 399 q 320 532 388 484 q 233 559 281 559 q 104 488 149 559 q 79 399 79 446 q 146 266 79 312 q 233 240 186 240 q 363 312 319 240 q 388 399 388 351 z "},"ų":{"ha":723,"x_min":87,"x_max":708,"o":"m 708 -267 l 701 -172 q 652 -180 677 -180 q 572 -133 585 -180 q 571 -118 571 -125 q 696 -8 574 -46 l 690 94 q 671 92 682 92 q 618 141 625 92 q 617 168 617 153 l 617 678 l 476 678 l 476 317 q 392 110 476 159 q 334 95 365 95 q 231 191 247 95 q 228 232 228 212 l 228 678 l 87 678 l 87 217 q 216 -3 87 42 q 298 -15 254 -15 q 477 81 406 -15 q 498 113 488 96 q 568 -7 506 20 q 456 -130 475 -53 q 452 -160 452 -146 q 529 -266 452 -235 q 617 -281 568 -281 q 708 -267 665 -281 z "},"ů":{"ha":709,"x_min":87,"x_max":694,"o":"m 631 -18 q 694 -9 661 -18 l 690 94 q 670 92 681 92 q 617 144 624 92 q 616 168 616 155 l 616 678 l 475 678 l 475 317 q 392 111 475 160 q 334 95 365 95 q 231 198 244 95 q 228 232 228 214 l 228 678 l 87 678 l 87 217 q 220 -4 87 38 q 297 -15 256 -15 q 476 80 404 -15 q 496 111 487 96 q 631 -18 510 -16 m 511 883 q 430 1020 511 982 q 362 1035 397 1035 q 235 971 279 1035 q 209 880 209 932 q 292 739 209 777 q 357 724 323 724 q 486 791 441 724 q 511 883 511 830 m 296 880 q 340 951 296 936 q 359 954 350 954 q 419 911 404 954 q 425 880 425 897 q 378 810 425 825 q 359 807 369 807 q 301 849 316 807 q 296 880 296 864 z "},"v":{"ha":623,"x_min":3,"x_max":620,"o":"m 377 0 l 620 678 l 481 678 l 313 190 l 148 678 l 3 678 l 241 0 l 377 0 z "},"ඃ":{"ha":342,"x_min":34,"x_max":308,"o":"m 125 195 q 155 153 125 165 q 171 151 163 151 q 213 180 202 151 q 216 195 216 189 q 187 239 216 227 q 171 241 179 241 q 127 212 141 241 q 125 195 125 203 m 34 195 q 98 311 34 271 q 171 332 132 332 q 286 269 247 332 q 308 195 308 235 q 244 81 308 121 q 171 60 210 60 q 56 123 95 60 q 34 195 34 157 m 125 562 q 155 519 125 532 q 171 517 163 517 q 213 547 202 517 q 216 562 216 555 q 187 605 216 593 q 171 608 179 608 q 127 578 141 608 q 125 562 125 570 m 34 562 q 98 677 34 637 q 171 699 132 699 q 286 635 247 699 q 308 562 308 601 q 244 446 308 486 q 171 426 210 426 q 56 488 95 426 q 34 562 34 522 z "},"w":{"ha":959,"x_min":5,"x_max":952,"o":"m 328 0 l 480 475 l 620 0 l 732 0 l 952 678 l 826 678 l 684 202 l 552 662 l 423 656 l 282 203 l 149 678 l 5 678 l 216 0 l 328 0 z "},"x":{"ha":608,"x_min":5,"x_max":604,"o":"m 597 91 q 586 90 591 90 q 530 123 555 91 l 378 357 l 597 678 l 456 678 l 315 457 l 180 678 l 23 678 l 237 347 l 5 0 l 149 0 l 304 241 l 403 79 q 519 -16 454 -7 q 544 -18 532 -18 q 604 -11 571 -18 l 597 91 z "},"y":{"ha":597,"x_min":-50,"x_max":605,"o":"m 467 678 l 307 170 l 140 678 l -3 678 l 237 3 q 146 -159 190 -129 q 94 -175 125 -175 q -8 -149 52 -174 l -50 -252 q 102 -290 37 -290 q 331 -88 250 -290 q 340 -61 336 -75 l 605 678 l 467 678 z "},"ý":{"ha":597,"x_min":-50,"x_max":605,"o":"m 467 678 l 307 170 l 140 678 l -3 678 l 237 3 q 146 -159 190 -129 q 94 -175 125 -175 q -8 -149 52 -174 l -50 -252 q 102 -290 37 -290 q 331 -88 250 -290 q 340 -61 336 -75 l 605 678 l 467 678 m 500 911 l 429 1016 l 191 845 l 248 760 l 500 911 z "},"ÿ":{"ha":597,"x_min":-50,"x_max":605,"o":"m 467 678 l 307 170 l 140 678 l -3 678 l 237 3 q 146 -159 190 -129 q 94 -175 125 -175 q -8 -149 52 -174 l -50 -252 q 102 -290 37 -290 q 331 -88 250 -290 q 340 -61 336 -75 l 605 678 l 467 678 m 240 875 q 189 955 240 937 q 163 959 175 959 q 91 910 109 959 q 84 875 84 894 q 136 792 84 810 q 161 788 149 788 q 233 837 214 788 q 240 875 240 854 m 505 875 q 452 955 505 939 q 426 959 438 959 q 355 910 374 959 q 350 875 350 894 q 401 792 350 810 q 426 788 414 788 q 498 837 479 788 q 505 875 505 854 z "},"¥":{"ha":750,"x_min":22,"x_max":720,"o":"m 642 164 l 642 264 l 439 264 l 439 345 l 642 345 l 642 445 l 488 445 l 720 916 l 567 916 l 437 629 q 372 467 408 564 q 305 629 328 581 l 175 916 l 22 916 l 248 445 l 95 445 l 95 345 l 296 345 l 296 264 l 95 264 l 95 164 l 296 164 l 296 0 l 439 0 l 439 164 l 642 164 z "},"z":{"ha":564,"x_min":42,"x_max":521,"o":"m 206 103 l 515 602 l 515 678 l 52 678 l 52 576 l 349 576 l 42 72 l 42 0 l 521 0 l 521 103 l 206 103 z "},"ź":{"ha":564,"x_min":42,"x_max":521,"o":"m 206 103 l 515 602 l 515 678 l 52 678 l 52 576 l 349 576 l 42 72 l 42 0 l 521 0 l 521 103 l 206 103 m 505 911 l 433 1016 l 195 845 l 252 760 l 505 911 z "},"ž":{"ha":564,"x_min":42,"x_max":521,"o":"m 206 103 l 515 602 l 515 678 l 52 678 l 52 576 l 349 576 l 42 72 l 42 0 l 521 0 l 521 103 l 206 103 m 298 758 l 507 925 l 450 996 l 302 887 l 152 998 l 91 924 l 298 758 z "},"ż":{"ha":564,"x_min":42,"x_max":521,"o":"m 206 103 l 515 602 l 515 678 l 52 678 l 52 576 l 349 576 l 42 72 l 42 0 l 521 0 l 521 103 l 206 103 m 312 793 q 376 853 363 804 q 377 892 380 872 q 317 959 369 951 q 286 959 301 962 q 224 899 235 948 q 222 863 220 882 q 282 793 231 803 q 312 793 297 791 z "},"‍":{"ha":0,"x_min":-247,"x_max":244,"o":"m -56 4 l 54 4 l 54 755 l 183 663 l 244 747 l 90 859 l 239 967 l 176 1048 l 0 922 l -176 1048 l -244 967 l -91 859 l -247 747 l -176 663 l -56 751 l -56 4 z "},"‌":{"ha":0,"x_min":-65,"x_max":54,"o":"m -65 0 l -65 996 l 54 996 l 54 0 l -65 0 z "}}}
